CSLSans-MediumItalic.ufo
<glyph name="exclam" format="2">
  <advance width="290"/>
  <unicode hex="0021"/>
  <outline>
    <contour>
      <point x="110" y="200" type="line"/>
      <point x="137" y="498" type="line"/>
      <point x="177" y="698" type="line"/>
      <point x="289" y="698" type="line"/>
      <point x="249" y="498" type="line"/>
      <point x="158" y="200" type="line"/>
    </contour>
    <contour>
      <point x="96" y="-12" type="qcurve" smooth="yes"/>
      <point x="64" y="-12"/>
      <point x="34" y="16"/>
      <point x="34" y="37" type="qcurve" smooth="yes"/>
      <point x="34" y="139"/>
      <point x="118" y="139" type="qcurve" smooth="yes"/>
      <point x="150" y="139"/>
      <point x="180" y="111"/>
      <point x="180" y="90" type="qcurve" smooth="yes"/>
      <point x="180" y="72"/>
      <point x="175" y="51" type="qcurve"/>
      <point x="164" y="-12"/>
    </contour>
  </outline>
</glyph>
<glyph name="quotedbl" format="2">
  <advance width="443"/>
  <unicode hex="0022"/>
  <outline>
    <contour>
      <point x="207" y="440" type="line"/>
      <point x="267" y="740" type="line"/>
      <point x="170" y="740" type="line"/>
      <point x="110" y="440" type="line"/>
    </contour>
    <contour>
      <point x="404" y="440" type="line"/>
      <point x="464" y="740" type="line"/>
      <point x="367" y="740" type="line"/>
      <point x="307" y="440" type="line"/>
    </contour>
  </outline>
</glyph>
<glyph name="numbersign" format="2">
  <advance width="663"/>
  <unicode hex="0023"/>
  <outline>
    <contour>
      <point x="367" y="0" type="line"/>
      <point x="438" y="191" type="line"/>
      <point x="567" y="191" type="line"/>
      <point x="581" y="263" type="line"/>
      <point x="464" y="263" type="line"/>
      <point x="528" y="435" type="line"/>
      <point x="657" y="435" type="line"/>
      <point x="671" y="507" type="line"/>
      <point x="554" y="507" type="line"/>
      <point x="625" y="698" type="line"/>
      <point x="547" y="698" type="line"/>
      <point x="476" y="507" type="line"/>
      <point x="334" y="507" type="line"/>
      <point x="405" y="698" type="line"/>
      <point x="327" y="698" type="line"/>
      <point x="257" y="507" type="line"/>
      <point x="128" y="507" type="line"/>
      <point x="113" y="435" type="line"/>
      <point x="230" y="435" type="line"/>
      <point x="167" y="263" type="line"/>
      <point x="38" y="263" type="line"/>
      <point x="23" y="191" type="line"/>
      <point x="140" y="191" type="line"/>
      <point x="70" y="0" type="line"/>
      <point x="147" y="0" type="line"/>
      <point x="218" y="191" type="line"/>
      <point x="360" y="191" type="line"/>
      <point x="289" y="0" type="line"/>
    </contour>
    <contour>
      <point x="386" y="263" type="line"/>
      <point x="244" y="263" type="line"/>
      <point x="308" y="435" type="line"/>
      <point x="450" y="435" type="line"/>
    </contour>
  </outline>
</glyph>
<glyph name="ampersand" format="2">
  <advance width="685"/>
  <unicode hex="0026"/>
  <outline>
    <contour>
      <point x="223" y="-12" type="qcurve"/>
      <point x="344" y="-12"/>
      <point x="434" y="73" type="qcurve"/>
      <point x="486" y="0" type="line"/>
      <point x="607" y="0" type="line"/>
      <point x="502" y="147" type="line"/>
      <point x="542" y="209"/>
      <point x="566" y="285" type="qcurve"/>
      <point x="639" y="285" type="line"/>
      <point x="657" y="375" type="line"/>
      <point x="507" y="375" type="line"/>
      <point x="489" y="290"/>
      <point x="451" y="219" type="qcurve"/>
      <point x="349" y="362" type="line"/>
      <point x="535" y="451"/>
      <point x="535" y="571" type="qcurve"/>
      <point x="535" y="637"/>
      <point x="487" y="676" type="qcurve"/>
      <point x="440" y="710"/>
      <point x="374" y="710" type="qcurve"/>
      <point x="280" y="710"/>
      <point x="165" y="594"/>
      <point x="165" y="514" type="qcurve"/>
      <point x="165" y="473"/>
      <point x="195" y="406"/>
      <point x="215" y="379" type="qcurve"/>
      <point x="34" y="296"/>
      <point x="34" y="154" type="qcurve"/>
      <point x="34" y="81"/>
      <point x="130" y="-12"/>
    </contour>
    <contour>
      <point x="305" y="423" type="qcurve"/>
      <point x="267" y="476"/>
      <point x="267" y="519" type="qcurve"/>
      <point x="267" y="572"/>
      <point x="302" y="604" type="qcurve"/>
      <point x="326" y="625"/>
      <point x="361" y="625" type="qcurve"/>
      <point x="392" y="625"/>
      <point x="431" y="590"/>
      <point x="431" y="558" type="qcurve"/>
      <point x="431" y="511"/>
      <point x="361" y="449"/>
    </contour>
    <contour>
      <point x="247" y="78" type="qcurve"/>
      <point x="144" y="78"/>
      <point x="140" y="171" type="qcurve"/>
      <point x="140" y="186"/>
      <point x="143" y="200" type="qcurve"/>
      <point x="155" y="244"/>
      <point x="214" y="297"/>
      <point x="258" y="318" type="qcurve"/>
      <point x="389" y="136" type="line"/>
      <point x="327" y="78"/>
    </contour>
  </outline>
</glyph>
<glyph name="quotesingle" format="2">
  <advance width="246"/>
  <unicode hex="0027"/>
  <outline>
    <contour>
      <point x="207" y="440" type="line"/>
      <point x="267" y="740" type="line"/>
      <point x="170" y="740" type="line"/>
      <point x="110" y="440" type="line"/>
    </contour>
  </outline>
</glyph>
<glyph name="parenleft" format="2">
  <advance width="339"/>
  <unicode hex="0028"/>
  <outline>
    <contour>
      <point x="280" y="-138" type="line"/>
      <point x="225" y="-71"/>
      <point x="163" y="104"/>
      <point x="163" y="204" type="qcurve"/>
      <point x="163" y="239"/>
      <point x="169" y="277" type="qcurve"/>
      <point x="188" y="368" type="line"/>
      <point x="210" y="477"/>
      <point x="358" y="681"/>
      <point x="460" y="760" type="qcurve"/>
      <point x="352" y="760" type="line"/>
      <point x="238" y="676"/>
      <point x="156" y="534" type="qcurve"/>
      <point x="70" y="380"/>
      <point x="70" y="208" type="qcurve"/>
      <point x="70" y="100"/>
      <point x="136" y="-81"/>
      <point x="185" y="-138" type="qcurve"/>
    </contour>
  </outline>
</glyph>
<glyph name="parenright" format="2">
  <advance width="339"/>
  <unicode hex="0029"/>
  <outline>
    <contour>
      <point x="10" y="-138" type="line"/>
      <point x="124" y="-54"/>
      <point x="206" y="89" type="qcurve"/>
      <point x="292" y="243"/>
      <point x="292" y="415" type="qcurve"/>
      <point x="292" y="469"/>
      <point x="283" y="519" type="qcurve"/>
      <point x="255" y="666"/>
      <point x="176" y="760" type="qcurve"/>
      <point x="81" y="760" type="line"/>
      <point x="136" y="693"/>
      <point x="199" y="519"/>
      <point x="199" y="419" type="qcurve"/>
      <point x="199" y="385"/>
      <point x="192" y="346" type="qcurve"/>
      <point x="174" y="255" type="line"/>
      <point x="150" y="146"/>
      <point x="4" y="-59"/>
      <point x="-98" y="-138" type="qcurve"/>
    </contour>
  </outline>
</glyph>
<glyph name="asterisk" format="2">
  <advance width="512"/>
  <unicode hex="002A"/>
  <outline>
    <contour>
      <point x="109" y="380" type="line"/>
      <point x="239" y="510" type="line"/>
      <point x="95" y="554" type="line"/>
      <point x="135" y="641" type="line"/>
      <point x="275" y="580" type="line"/>
      <point x="302" y="747" type="line"/>
      <point x="396" y="747" type="line"/>
      <point x="358" y="581" type="line"/>
      <point x="510" y="639" type="line"/>
      <point x="530" y="554" type="line"/>
      <point x="367" y="505" type="line"/>
      <point x="443" y="373" type="line"/>
      <point x="364" y="323" type="line"/>
      <point x="298" y="464" type="line"/>
      <point x="178" y="320" type="line"/>
    </contour>
  </outline>
</glyph>
<glyph name="plus" format="2">
  <advance width="600"/>
  <unicode hex="002B"/>
  <outline>
    <contour>
      <point x="213" y="62" type="line"/>
      <point x="252" y="262" type="line"/>
      <point x="72" y="262" type="line"/>
      <point x="89" y="349" type="line"/>
      <point x="270" y="349" type="line"/>
      <point x="310" y="548" type="line"/>
      <point x="405" y="548" type="line"/>
      <point x="366" y="349" type="line"/>
      <point x="545" y="349" type="line"/>
      <point x="528" y="262" type="line"/>
      <point x="348" y="262" type="line"/>
      <point x="308" y="62" type="line"/>
    </contour>
  </outline>
</glyph>
<glyph name="comma" format="2">
  <advance width="288"/>
  <unicode hex="002C"/>
  <outline>
    <contour>
      <point x="46" y="-138" type="line"/>
      <point x="100" y="-99"/>
      <point x="161" y="4"/>
      <point x="172" y="52" type="qcurve"/>
      <point x="177" y="71"/>
      <point x="177" y="88" type="qcurve"/>
      <point x="177" y="110"/>
      <point x="147" y="139"/>
      <point x="115" y="139" type="qcurve"/>
      <point x="50" y="139"/>
      <point x="37" y="76" type="qcurve"/>
      <point x="32" y="56"/>
      <point x="32" y="39" type="qcurve"/>
      <point x="32" y="2"/>
      <point x="73" y="-7" type="qcurve"/>
      <point x="39" y="-76"/>
      <point x="-37" y="-138" type="qcurve"/>
    </contour>
  </outline>
</glyph>
<glyph name="period" format="2">
  <advance width="288"/>
  <unicode hex="002E"/>
  <outline>
    <contour>
      <point x="93" y="-12" type="qcurve" smooth="yes"/>
      <point x="61" y="-12"/>
      <point x="31" y="16"/>
      <point x="31" y="37" type="qcurve" smooth="yes"/>
      <point x="31" y="139"/>
      <point x="115" y="139" type="qcurve" smooth="yes"/>
      <point x="147" y="139"/>
      <point x="177" y="111"/>
      <point x="177" y="90" type="qcurve" smooth="yes"/>
      <point x="177" y="72"/>
      <point x="172" y="51" type="qcurve"/>
      <point x="161" y="-12"/>
    </contour>
  </outline>
</glyph>
<glyph name="slash" format="2">
  <advance width="421"/>
  <unicode hex="002F"/>
  <outline>
    <contour>
      <point x="-71" y="-151" type="line"/>
      <point x="377" y="740" type="line"/>
      <point x="473" y="740" type="line"/>
      <point x="24" y="-151" type="line"/>
    </contour>
  </outline>
</glyph>
<glyph name="zero" format="2">
  <advance width="600"/>
  <unicode hex="0030"/>
  <outline>
    <contour>
      <point x="258" y="-12" type="qcurve" smooth="yes"/>
      <point x="154" y="-12"/>
      <point x="104" y="62" type="qcurve"/>
      <point x="59" y="126"/>
      <point x="59" y="235" type="qcurve" smooth="yes"/>
      <point x="59" y="319"/>
      <point x="98" y="487"/>
      <point x="175" y="626"/>
      <point x="292" y="710"/>
      <point x="370" y="710" type="qcurve" smooth="yes"/>
      <point x="473" y="710"/>
      <point x="525" y="636" type="qcurve"/>
      <point x="569" y="571"/>
      <point x="569" y="463" type="qcurve" smooth="yes"/>
      <point x="569" y="379"/>
      <point x="530" y="211"/>
      <point x="452" y="72"/>
      <point x="336" y="-12"/>
    </contour>
    <contour>
      <point x="269" y="80" type="qcurve" smooth="yes"/>
      <point x="335" y="80"/>
      <point x="414" y="194"/>
      <point x="431" y="288" type="qcurve"/>
      <point x="454" y="401" type="line" smooth="yes"/>
      <point x="462" y="444"/>
      <point x="462" y="484" type="qcurve" smooth="yes"/>
      <point x="462" y="546"/>
      <point x="412" y="618"/>
      <point x="358" y="618" type="qcurve" smooth="yes"/>
      <point x="237" y="618"/>
      <point x="197" y="410" type="qcurve"/>
      <point x="174" y="297" type="line" smooth="yes"/>
      <point x="166" y="255"/>
      <point x="166" y="214" type="qcurve" smooth="yes"/>
      <point x="166" y="80"/>
    </contour>
  </outline>
</glyph>
<glyph name="three" format="2">
  <advance width="600"/>
  <unicode hex="0033"/>
  <outline>
    <contour>
      <point x="245" y="-12" type="qcurve"/>
      <point x="367" y="-12"/>
      <point x="506" y="118"/>
      <point x="506" y="218" type="qcurve"/>
      <point x="506" y="278"/>
      <point x="444" y="354"/>
      <point x="392" y="363" type="qcurve"/>
      <point x="393" y="368" type="line"/>
      <point x="463" y="382"/>
      <point x="553" y="479"/>
      <point x="553" y="551" type="qcurve"/>
      <point x="553" y="622"/>
      <point x="444" y="710"/>
      <point x="358" y="710" type="qcurve"/>
      <point x="275" y="710"/>
      <point x="166" y="648"/>
      <point x="128" y="599" type="qcurve"/>
      <point x="194" y="532" type="line"/>
      <point x="224" y="577"/>
      <point x="296" y="617"/>
      <point x="341" y="617" type="qcurve"/>
      <point x="386" y="617"/>
      <point x="436" y="575"/>
      <point x="436" y="535" type="qcurve"/>
      <point x="436" y="525"/>
      <point x="433" y="509" type="qcurve"/>
      <point x="415" y="410"/>
      <point x="299" y="410" type="qcurve"/>
      <point x="231" y="410" type="line"/>
      <point x="212" y="316" type="line"/>
      <point x="285" y="316" type="line"/>
      <point x="339" y="316"/>
      <point x="395" y="267"/>
      <point x="395" y="225" type="qcurve"/>
      <point x="395" y="209"/>
      <point x="391" y="193" type="qcurve"/>
      <point x="380" y="138"/>
      <point x="316" y="81"/>
      <point x="253" y="81" type="qcurve"/>
      <point x="191" y="81"/>
      <point x="126" y="131"/>
      <point x="111" y="173" type="qcurve"/>
      <point x="28" y="115" type="line"/>
      <point x="47" y="64"/>
      <point x="101" y="27" type="qcurve"/>
      <point x="154" y="-12"/>
    </contour>
  </outline>
</glyph>
<glyph name="four" format="2">
  <advance width="600"/>
  <unicode hex="0034"/>
  <outline>
    <contour>
      <point x="307" y="0" type="line"/>
      <point x="334" y="136" type="line"/>
      <point x="23" y="136" type="line"/>
      <point x="43" y="235" type="line"/>
      <point x="409" y="698" type="line"/>
      <point x="549" y="698" type="line"/>
      <point x="454" y="224" type="line"/>
      <point x="546" y="224" type="line"/>
      <point x="528" y="136" type="line"/>
      <point x="436" y="136" type="line"/>
      <point x="409" y="0" type="line"/>
    </contour>
    <contour>
      <point x="423" y="579" type="line"/>
      <point x="416" y="579" type="line"/>
      <point x="135" y="224" type="line"/>
      <point x="352" y="224" type="line"/>
    </contour>
  </outline>
</glyph>
<glyph name="five" format="2">
  <advance width="600"/>
  <unicode hex="0035"/>
  <outline>
    <contour>
      <point x="260" y="-12" type="qcurve"/>
      <point x="324" y="-12"/>
      <point x="426" y="32"/>
      <point x="461" y="69" type="qcurve"/>
      <point x="532" y="151"/>
      <point x="532" y="259" type="qcurve"/>
      <point x="532" y="348"/>
      <point x="435" y="444"/>
      <point x="358" y="444" type="qcurve"/>
      <point x="300" y="444"/>
      <point x="232" y="397"/>
      <point x="206" y="349" type="qcurve"/>
      <point x="198" y="349" type="line"/>
      <point x="261" y="602" type="line"/>
      <point x="560" y="602" type="line"/>
      <point x="579" y="698" type="line"/>
      <point x="198" y="698" type="line"/>
      <point x="100" y="305" type="line"/>
      <point x="187" y="292" type="line"/>
      <point x="241" y="352"/>
      <point x="313" y="352" type="qcurve"/>
      <point x="366" y="352"/>
      <point x="418" y="300"/>
      <point x="418" y="255" type="qcurve"/>
      <point x="418" y="233"/>
      <point x="412" y="210" type="qcurve"/>
      <point x="388" y="82"/>
      <point x="268" y="82" type="qcurve"/>
      <point x="208" y="82"/>
      <point x="143" y="132"/>
      <point x="129" y="174" type="qcurve"/>
      <point x="41" y="116" type="line"/>
      <point x="60" y="65"/>
      <point x="170" y="-12"/>
    </contour>
  </outline>
</glyph>
<glyph name="six" format="2">
  <advance width="600"/>
  <unicode hex="0036"/>
  <outline>
    <contour>
      <point x="266" y="-12" type="qcurve"/>
      <point x="386" y="-12"/>
      <point x="531" y="142"/>
      <point x="531" y="251" type="qcurve"/>
      <point x="531" y="337"/>
      <point x="436" y="442"/>
      <point x="356" y="442" type="qcurve"/>
      <point x="301" y="442"/>
      <point x="226" y="387"/>
      <point x="197" y="339" type="qcurve"/>
      <point x="191" y="341" type="line"/>
      <point x="226" y="444"/>
      <point x="407" y="618"/>
      <point x="539" y="698" type="qcurve"/>
      <point x="386" y="698" type="line"/>
      <point x="256" y="625"/>
      <point x="160" y="495" type="qcurve"/>
      <point x="59" y="355"/>
      <point x="59" y="211" type="qcurve"/>
      <point x="59" y="106"/>
      <point x="166" y="-12"/>
    </contour>
    <contour>
      <point x="273" y="79" type="qcurve"/>
      <point x="167" y="79"/>
      <point x="165" y="188" type="qcurve"/>
      <point x="165" y="208"/>
      <point x="169" y="227" type="qcurve"/>
      <point x="181" y="285"/>
      <point x="252" y="352"/>
      <point x="312" y="352" type="qcurve"/>
      <point x="419" y="352"/>
      <point x="420" y="243" type="qcurve"/>
      <point x="420" y="224"/>
      <point x="416" y="204" type="qcurve"/>
      <point x="404" y="146"/>
      <point x="332" y="79"/>
    </contour>
  </outline>
</glyph>
<glyph name="seven" format="2">
  <advance width="600"/>
  <unicode hex="0037"/>
  <outline>
    <contour>
      <point x="236" y="0" type="line"/>
      <point x="121" y="0" type="line"/>
      <point x="485" y="606" type="line"/>
      <point x="137" y="606" type="line"/>
      <point x="155" y="698" type="line"/>
      <point x="613" y="698" type="line"/>
      <point x="593" y="599" type="line"/>
    </contour>
  </outline>
</glyph>
<glyph name="eight" format="2">
  <advance width="600"/>
  <unicode hex="0038"/>
  <outline>
    <contour>
      <point x="261" y="-12" type="qcurve" smooth="yes"/>
      <point x="155" y="-12"/>
      <point x="44" y="90"/>
      <point x="44" y="168" type="qcurve" smooth="yes"/>
      <point x="44" y="240"/>
      <point x="133" y="349"/>
      <point x="216" y="364" type="qcurve"/>
      <point x="218" y="371" type="line"/>
      <point x="130" y="405"/>
      <point x="130" y="505" type="qcurve" smooth="yes"/>
      <point x="130" y="589"/>
      <point x="263" y="710"/>
      <point x="374" y="710" type="qcurve" smooth="yes"/>
      <point x="469" y="710"/>
      <point x="569" y="622"/>
      <point x="569" y="551" type="qcurve" smooth="yes"/>
      <point x="569" y="490"/>
      <point x="491" y="389"/>
      <point x="422" y="368" type="qcurve"/>
      <point x="421" y="360" type="line"/>
      <point x="526" y="330"/>
      <point x="526" y="217" type="qcurve" smooth="yes"/>
      <point x="526" y="121"/>
      <point x="383" y="-12"/>
    </contour>
    <contour>
      <point x="331" y="404" type="qcurve" smooth="yes"/>
      <point x="435" y="404"/>
      <point x="458" y="503" type="qcurve" smooth="yes"/>
      <point x="462" y="521"/>
      <point x="462" y="537" type="qcurve"/>
      <point x="461" y="621"/>
      <point x="360" y="621" type="qcurve" smooth="yes"/>
      <point x="256" y="621"/>
      <point x="233" y="523" type="qcurve" smooth="yes"/>
      <point x="229" y="506"/>
      <point x="229" y="489" type="qcurve" smooth="yes"/>
      <point x="229" y="450"/>
      <point x="281" y="404"/>
    </contour>
    <contour>
      <point x="268" y="77" type="qcurve" smooth="yes"/>
      <point x="384" y="77"/>
      <point x="411" y="187" type="qcurve"/>
      <point x="415" y="206"/>
      <point x="415" y="226" type="qcurve"/>
      <point x="412" y="320"/>
      <point x="302" y="320" type="qcurve" smooth="yes"/>
      <point x="187" y="320"/>
      <point x="159" y="209" type="qcurve"/>
      <point x="155" y="189"/>
      <point x="155" y="170" type="qcurve"/>
      <point x="159" y="77"/>
    </contour>
  </outline>
</glyph>
<glyph name="less" format="2">
  <advance width="600"/>
  <unicode hex="003C"/>
  <outline>
    <contour>
      <point x="96" y="249" type="line"/>
      <point x="113" y="330" type="line"/>
      <point x="564" y="582" type="line"/>
      <point x="541" y="465" type="line"/>
      <point x="213" y="287" type="line"/>
      <point x="211" y="279" type="line"/>
      <point x="468" y="97" type="line"/>
      <point x="446" y="-8" type="line"/>
    </contour>
  </outline>
</glyph>
<glyph name="equal" format="2">
  <advance width="600"/>
  <unicode hex="003D"/>
  <outline>
    <contour>
      <point x="550" y="370" type="line"/>
      <point x="568" y="457" type="line"/>
      <point x="112" y="457" type="line"/>
      <point x="95" y="370" type="line"/>
    </contour>
    <contour>
      <point x="508" y="155" type="line"/>
      <point x="525" y="242" type="line"/>
      <point x="70" y="242" type="line"/>
      <point x="52" y="155" type="line"/>
    </contour>
  </outline>
</glyph>
<glyph name="greater" format="2">
  <advance width="600"/>
  <unicode hex="003E"/>
  <outline>
    <contour>
      <point x="49" y="-8" type="line"/>
      <point x="501" y="248" type="line"/>
      <point x="517" y="329" type="line"/>
      <point x="167" y="582" type="line"/>
      <point x="146" y="477" type="line"/>
      <point x="403" y="299" type="line"/>
      <point x="401" y="291" type="line"/>
      <point x="72" y="109" type="line"/>
    </contour>
  </outline>
</glyph>
<glyph name="question" format="2">
  <advance width="478"/>
  <unicode hex="003F"/>
  <outline>
    <contour>
      <point x="262" y="219" type="line"/>
      <point x="281" y="313" type="line"/>
      <point x="379" y="333"/>
      <point x="497" y="464"/>
      <point x="497" y="546" type="qcurve"/>
      <point x="497" y="622"/>
      <point x="395" y="710"/>
      <point x="307" y="710" type="qcurve"/>
      <point x="142" y="710"/>
      <point x="76" y="548" type="qcurve"/>
      <point x="163" y="510" type="line"/>
      <point x="181" y="559"/>
      <point x="244" y="617"/>
      <point x="295" y="617" type="qcurve"/>
      <point x="337" y="617"/>
      <point x="386" y="574"/>
      <point x="386" y="535" type="qcurve"/>
      <point x="386" y="511"/>
      <point x="382" y="498" type="qcurve"/>
      <point x="357" y="394"/>
      <point x="193" y="379" type="qcurve"/>
      <point x="160" y="219" type="line"/>
    </contour>
    <contour>
      <point x="172" y="-12" type="qcurve"/>
      <point x="240" y="-12"/>
      <point x="251" y="51" type="qcurve"/>
      <point x="256" y="72"/>
      <point x="256" y="90" type="qcurve"/>
      <point x="256" y="111"/>
      <point x="226" y="139"/>
      <point x="194" y="139" type="qcurve"/>
      <point x="110" y="139"/>
      <point x="110" y="37" type="qcurve"/>
      <point x="110" y="16"/>
      <point x="140" y="-12"/>
    </contour>
  </outline>
</glyph>
<glyph name="at" format="2">
  <advance width="875"/>
  <unicode hex="0040"/>
  <outline>
    <contour>
      <point x="577" y="-121" type="line"/>
      <point x="591" y="-50" type="line"/>
      <point x="379" y="-50" type="line"/>
      <point x="265" y="-50"/>
      <point x="139" y="86"/>
      <point x="139" y="201" type="qcurve"/>
      <point x="139" y="233"/>
      <point x="147" y="275" type="qcurve"/>
      <point x="157" y="326" type="line"/>
      <point x="188" y="468"/>
      <point x="378" y="638"/>
      <point x="510" y="638" type="qcurve"/>
      <point x="623" y="638"/>
      <point x="756" y="515"/>
      <point x="756" y="411" type="qcurve"/>
      <point x="756" y="388"/>
      <point x="754" y="364"/>
      <point x="743" y="310" type="qcurve"/>
      <point x="706" y="144"/>
      <point x="626" y="144" type="qcurve"/>
      <point x="592" y="144"/>
      <point x="592" y="178" type="qcurve"/>
      <point x="592" y="195"/>
      <point x="596" y="211" type="qcurve"/>
      <point x="653" y="495" type="line"/>
      <point x="566" y="495" type="line"/>
      <point x="552" y="425" type="line"/>
      <point x="548" y="425" type="line"/>
      <point x="530" y="504"/>
      <point x="444" y="504" type="qcurve"/>
      <point x="375" y="504"/>
      <point x="276" y="401"/>
      <point x="255" y="301" type="qcurve"/>
      <point x="247" y="259"/>
      <point x="247" y="230" type="qcurve"/>
      <point x="247" y="152"/>
      <point x="320" y="74"/>
      <point x="377" y="74" type="qcurve"/>
      <point x="423" y="74"/>
      <point x="491" y="131"/>
      <point x="506" y="173" type="qcurve"/>
      <point x="510" y="173" type="line"/>
      <point x="510" y="161" type="line"/>
      <point x="510" y="77"/>
      <point x="609" y="74" type="qcurve"/>
      <point x="691" y="74"/>
      <point x="748" y="145" type="qcurve"/>
      <point x="801" y="212"/>
      <point x="823" y="317" type="qcurve"/>
      <point x="832" y="368"/>
      <point x="832" y="402" type="qcurve"/>
      <point x="832" y="542"/>
      <point x="656" y="708"/>
      <point x="518" y="708" type="qcurve"/>
      <point x="346" y="708"/>
      <point x="228" y="596" type="qcurve"/>
      <point x="111" y="487"/>
      <point x="73" y="311" type="qcurve"/>
      <point x="62" y="248"/>
      <point x="62" y="201" type="qcurve"/>
      <point x="62" y="53"/>
      <point x="225" y="-121"/>
      <point x="370" y="-121" type="qcurve"/>
    </contour>
    <contour>
      <point x="409" y="149" type="qcurve"/>
      <point x="339" y="149"/>
      <point x="335" y="224" type="qcurve"/>
      <point x="335" y="235"/>
      <point x="338" y="249" type="qcurve"/>
      <point x="347" y="291"/>
      <point x="363" y="376"/>
      <point x="417" y="428"/>
      <point x="459" y="428" type="qcurve"/>
      <point x="500" y="428"/>
      <point x="522" y="405" type="qcurve"/>
      <point x="539" y="387"/>
      <point x="539" y="365" type="qcurve"/>
      <point x="539" y="359"/>
      <point x="516" y="244" type="qcurve"/>
      <point x="508" y="206"/>
      <point x="451" y="149"/>
    </contour>
  </outline>
</glyph>
<glyph name="F" format="2">
  <advance width="548"/>
  <unicode hex="0046"/>
  <outline>
    <contour>
      <point x="140" y="0" type="line"/>
      <point x="202" y="304" type="line"/>
      <point x="479" y="304" type="line"/>
      <point x="498" y="400" type="line"/>
      <point x="221" y="400" type="line"/>
      <point x="261" y="602" type="line"/>
      <point x="568" y="602" type="line"/>
      <point x="588" y="698" type="line"/>
      <point x="172" y="698" type="line"/>
      <point x="32" y="0" type="line"/>
    </contour>
  </outline>
</glyph>
<glyph name="G" format="2">
  <advance width="560"/>
  <unicode hex="0047"/>
  <outline>
    <contour>
      <point x="43" y="270" type="qcurve"/>
      <point x="43" y="302"/>
      <point x="49" y="360"/>
      <point x="54" y="389" type="qcurve"/>
      <point x="68" y="460"/>
      <point x="128" y="579"/>
      <point x="217" y="666"/>
      <point x="330" y="713"/>
      <point x="395" y="713" type="qcurve"/>
      <point x="467" y="713"/>
      <point x="562" y="663"/>
      <point x="616" y="588"/>
      <point x="628" y="546" type="qcurve"/>
      <point x="533" y="498" type="line"/>
      <point x="525" y="537"/>
      <point x="490" y="587"/>
      <point x="429" y="617"/>
      <point x="384" y="617" type="qcurve"/>
      <point x="329" y="617"/>
      <point x="245" y="570"/>
      <point x="189" y="480"/>
      <point x="177" y="419" type="qcurve"/>
      <point x="154" y="306" type="line"/>
      <point x="151" y="292"/>
      <point x="148" y="259"/>
      <point x="148" y="245" type="qcurve"/>
      <point x="148" y="207"/>
      <point x="169" y="146"/>
      <point x="210" y="103"/>
      <point x="262" y="80"/>
      <point x="293" y="80" type="qcurve"/>
      <point x="361" y="80"/>
      <point x="463" y="152"/>
      <point x="478" y="227" type="qcurve"/>
      <point x="488" y="275" type="line"/>
      <point x="317" y="275" type="line"/>
      <point x="317" y="372" type="line"/>
      <point x="613" y="372" type="line"/>
      <point x="587" y="243" type="line"/>
      <point x="571" y="165"/>
      <point x="506" y="65"/>
      <point x="420" y="7"/>
      <point x="326" y="-15"/>
      <point x="281" y="-15" type="qcurve"/>
      <point x="234" y="-15"/>
      <point x="147" y="22"/>
      <point x="80" y="95"/>
      <point x="43" y="200"/>
    </contour>
  </outline>
</glyph>
<glyph name="K" format="2">
  <advance width="633"/>
  <unicode hex="004B"/>
  <outline>
    <contour>
      <point x="450" y="0" type="line"/>
      <point x="303" y="324" type="line"/>
      <point x="182" y="208" type="line"/>
      <point x="140" y="0" type="line"/>
      <point x="32" y="0" type="line"/>
      <point x="172" y="698" type="line"/>
      <point x="281" y="698" type="line"/>
      <point x="211" y="351" type="line"/>
      <point x="217" y="351" type="line"/>
      <point x="332" y="473" type="line"/>
      <point x="555" y="698" type="line"/>
      <point x="689" y="698" type="line"/>
      <point x="387" y="396" type="line"/>
      <point x="569" y="0" type="line"/>
    </contour>
  </outline>
</glyph>
<glyph name="L" format="2">
  <advance width="498"/>
  <unicode hex="004C"/>
  <outline>
    <contour>
      <point x="32" y="0" type="line"/>
      <point x="172" y="698" type="line"/>
      <point x="281" y="698" type="line"/>
      <point x="160" y="96" type="line"/>
      <point x="434" y="96" type="line"/>
      <point x="415" y="0" type="line"/>
    </contour>
  </outline>
</glyph>
<glyph name="P" format="2">
  <advance width="609"/>
  <unicode hex="0050"/>
  <outline>
    <contour>
      <point x="140" y="0" type="line"/>
      <point x="196" y="279" type="line"/>
      <point x="370" y="279" type="line"/>
      <point x="483" y="279"/>
      <point x="620" y="419"/>
      <point x="620" y="522" type="qcurve"/>
      <point x="620" y="602"/>
      <point x="525" y="698"/>
      <point x="427" y="698" type="qcurve"/>
      <point x="172" y="698" type="line"/>
      <point x="32" y="0" type="line"/>
    </contour>
    <contour>
      <point x="385" y="375" type="qcurve"/>
      <point x="216" y="375" type="line"/>
      <point x="261" y="602" type="line"/>
      <point x="426" y="602" type="line"/>
      <point x="508" y="602"/>
      <point x="508" y="533" type="qcurve"/>
      <point x="508" y="514"/>
      <point x="496" y="465" type="qcurve"/>
      <point x="471" y="375"/>
    </contour>
  </outline>
</glyph>
<glyph name="Q" format="2">
  <advance width="687"/>
  <unicode hex="0051"/>
  <outline>
    <contour>
      <point x="313" y="85" type="qcurve"/>
      <point x="241" y="85"/>
      <point x="165" y="167"/>
      <point x="165" y="240" type="qcurve"/>
      <point x="165" y="266"/>
      <point x="171" y="302" type="qcurve"/>
      <point x="192" y="406" type="line"/>
      <point x="238" y="613"/>
      <point x="404" y="613" type="qcurve"/>
      <point x="547" y="613"/>
      <point x="551" y="458" type="qcurve"/>
      <point x="551" y="433"/>
      <point x="545" y="396" type="qcurve"/>
      <point x="523" y="290" type="line"/>
      <point x="503" y="191"/>
      <point x="397" y="85"/>
    </contour>
    <contour>
      <point x="557" y="-94" type="line"/>
      <point x="621" y="-13" type="line"/>
      <point x="506" y="63" type="line"/>
      <point x="537" y="89"/>
      <point x="563" y="123" type="qcurve"/>
      <point x="660" y="258"/>
      <point x="660" y="433" type="qcurve"/>
      <point x="660" y="568"/>
      <point x="588" y="642" type="qcurve"/>
      <point x="521" y="710"/>
      <point x="412" y="710" type="qcurve"/>
      <point x="331" y="710"/>
      <point x="200" y="638"/>
      <point x="153" y="576" type="qcurve"/>
      <point x="56" y="441"/>
      <point x="56" y="265" type="qcurve"/>
      <point x="56" y="131"/>
      <point x="129" y="57" type="qcurve"/>
      <point x="201" y="-12"/>
      <point x="303" y="-12" type="qcurve"/>
      <point x="358" y="-12"/>
      <point x="406" y="5" type="qcurve"/>
    </contour>
  </outline>
</glyph>
<glyph name="R" format="2">
  <advance width="638"/>
  <unicode hex="0052"/>
  <outline>
    <contour>
      <point x="420" y="0" type="line"/>
      <point x="336" y="283" type="line"/>
      <point x="197" y="283" type="line"/>
      <point x="140" y="0" type="line"/>
      <point x="32" y="0" type="line"/>
      <point x="172" y="698" type="line"/>
      <point x="431" y="698" type="line" smooth="yes"/>
      <point x="527" y="698"/>
      <point x="620" y="603"/>
      <point x="620" y="525" type="qcurve" smooth="yes"/>
      <point x="620" y="446"/>
      <point x="526" y="318"/>
      <point x="442" y="296" type="qcurve"/>
      <point x="536" y="0" type="line"/>
    </contour>
    <contour>
      <point x="385" y="375" type="line" smooth="yes"/>
      <point x="471" y="375"/>
      <point x="496" y="465" type="qcurve"/>
      <point x="508" y="514"/>
      <point x="508" y="533" type="qcurve" smooth="yes"/>
      <point x="508" y="602"/>
      <point x="426" y="602" type="qcurve" smooth="yes"/>
      <point x="261" y="602" type="line"/>
      <point x="216" y="375" type="line"/>
    </contour>
  </outline>
</glyph>
<glyph name="S" format="2">
  <advance width="597"/>
  <unicode hex="0053"/>
  <outline>
    <contour>
      <point x="275" y="-12" type="qcurve" smooth="yes"/>
      <point x="114" y="-12"/>
      <point x="20" y="106" type="qcurve"/>
      <point x="98" y="179" type="line"/>
      <point x="172" y="88"/>
      <point x="281" y="88" type="qcurve" smooth="yes"/>
      <point x="399" y="88"/>
      <point x="414" y="176" type="qcurve"/>
      <point x="414" y="178" type="line"/>
      <point x="414" y="178"/>
      <point x="414" y="179" type="qcurve"/>
      <point x="414" y="181" type="line"/>
      <point x="414" y="181"/>
      <point x="414" y="182" type="qcurve"/>
      <point x="414" y="183" type="line"/>
      <point x="414" y="183"/>
      <point x="414" y="183" type="qcurve"/>
      <point x="414" y="184" type="line"/>
      <point x="414" y="185"/>
      <point x="414" y="186" type="qcurve"/>
      <point x="414" y="187" type="line"/>
      <point x="414" y="187"/>
      <point x="414" y="188" type="qcurve"/>
      <point x="414" y="196" type="line"/>
      <point x="414" y="196"/>
      <point x="414" y="197" type="qcurve"/>
      <point x="414" y="199" type="line"/>
      <point x="414" y="225"/>
      <point x="401" y="245" type="qcurve" smooth="yes"/>
      <point x="382" y="274"/>
      <point x="325" y="297" type="qcurve" smooth="yes"/>
      <point x="267" y="320" type="line"/>
      <point x="101" y="383"/>
      <point x="101" y="508" type="qcurve" smooth="yes"/>
      <point x="101" y="597"/>
      <point x="227" y="710"/>
      <point x="345" y="710" type="qcurve" smooth="yes"/>
      <point x="497" y="710"/>
      <point x="581" y="603" type="qcurve"/>
      <point x="502" y="533" type="line"/>
      <point x="445" y="610"/>
      <point x="339" y="610" type="qcurve"/>
      <point x="230" y="608"/>
      <point x="215" y="539" type="qcurve"/>
      <point x="214" y="527"/>
      <point x="214" y="515" type="qcurve" smooth="yes"/>
      <point x="214" y="457"/>
      <point x="306" y="421" type="qcurve"/>
      <point x="365" y="396" type="line"/>
      <point x="464" y="356"/>
      <point x="502" y="300" type="qcurve" smooth="yes"/>
      <point x="528" y="261"/>
      <point x="528" y="210" type="qcurve" smooth="yes"/>
      <point x="528" y="108"/>
      <point x="395" y="-12"/>
    </contour>
  </outline>
</glyph>
<glyph name="T" format="2">
  <advance width="561"/>
  <unicode hex="0054"/>
  <outline>
    <contour>
      <point x="282" y="0" type="line"/>
      <point x="403" y="602" type="line"/>
      <point x="603" y="602" type="line"/>
      <point x="622" y="698" type="line"/>
      <point x="113" y="698" type="line"/>
      <point x="94" y="602" type="line"/>
      <point x="294" y="602" type="line"/>
      <point x="174" y="0" type="line"/>
    </contour>
  </outline>
</glyph>
<glyph name="V" format="2">
  <advance width="609"/>
  <unicode hex="0056"/>
  <outline>
    <contour>
      <point x="188" y="0" type="line"/>
      <point x="106" y="698" type="line"/>
      <point x="215" y="698" type="line"/>
      <point x="247" y="383" type="line"/>
      <point x="270" y="114" type="line"/>
      <point x="275" y="114" type="line"/>
      <point x="399" y="372" type="line"/>
      <point x="565" y="698" type="line"/>
      <point x="680" y="698" type="line"/>
      <point x="316" y="0" type="line"/>
    </contour>
  </outline>
</glyph>
<glyph name="X" format="2">
  <advance width="615"/>
  <unicode hex="0058"/>
  <outline>
    <contour>
      <point x="536" y="0" type="line"/>
      <point x="386" y="345" type="line"/>
      <point x="676" y="698" type="line"/>
      <point x="551" y="698" type="line"/>
      <point x="344" y="435" type="line"/>
      <point x="338" y="435" type="line"/>
      <point x="229" y="698" type="line"/>
      <point x="114" y="698" type="line"/>
      <point x="258" y="363" type="line"/>
      <point x="-31" y="0" type="line"/>
      <point x="95" y="0" type="line"/>
      <point x="303" y="268" type="line"/>
      <point x="309" y="268" type="line"/>
      <point x="420" y="0" type="line"/>
    </contour>
  </outline>
</glyph>
<glyph name="Z" format="2">
  <advance width="566"/>
  <unicode hex="005A"/>
  <outline>
    <contour>
      <point x="478" y="0" type="line"/>
      <point x="497" y="96" type="line"/>
      <point x="135" y="96" type="line"/>
      <point x="591" y="599" type="line"/>
      <point x="611" y="698" type="line"/>
      <point x="138" y="698" type="line"/>
      <point x="119" y="602" type="line"/>
      <point x="463" y="602" type="line"/>
      <point x="7" y="99" type="line"/>
      <point x="-13" y="0" type="line"/>
    </contour>
  </outline>
</glyph>
<glyph name="bracketleft" format="2">
  <advance width="320"/>
  <unicode hex="005B"/>
  <outline>
    <contour>
      <point x="5" y="-138" type="line"/>
      <point x="185" y="760" type="line"/>
      <point x="369" y="760" type="line"/>
      <point x="353" y="682" type="line"/>
      <point x="263" y="682" type="line"/>
      <point x="114" y="-60" type="line"/>
      <point x="204" y="-60" type="line"/>
      <point x="189" y="-138" type="line"/>
    </contour>
  </outline>
</glyph>
<glyph name="backslash" format="2">
  <advance width="421"/>
  <unicode hex="005C"/>
  <outline>
    <contour>
      <point x="322" y="-151" type="line"/>
      <point x="232" y="740" type="line"/>
      <point x="145" y="740" type="line"/>
      <point x="235" y="-151" type="line"/>
    </contour>
  </outline>
</glyph>
<glyph name="bracketright" format="2">
  <advance width="319"/>
  <unicode hex="005D"/>
  <outline>
    <contour>
      <point x="-28" y="-138" type="line"/>
      <point x="-12" y="-60" type="line"/>
      <point x="78" y="-60" type="line"/>
      <point x="227" y="682" type="line"/>
      <point x="136" y="682" type="line"/>
      <point x="152" y="760" type="line"/>
      <point x="336" y="760" type="line"/>
      <point x="156" y="-138" type="line"/>
    </contour>
  </outline>
</glyph>
<glyph name="asciicircum" format="2">
  <advance width="600"/>
  <unicode hex="005E"/>
  <outline>
    <contour>
      <point x="481" y="289" type="line"/>
      <point x="567" y="325" type="line"/>
      <point x="435" y="698" type="line"/>
      <point x="330" y="698" type="line"/>
      <point x="63" y="336" type="line"/>
      <point x="140" y="289" type="line"/>
      <point x="365" y="591" type="line"/>
      <point x="372" y="591" type="line"/>
    </contour>
  </outline>
</glyph>
<glyph name="grave" format="2">
  <advance width="590"/>
  <unicode hex="0060"/>
  <outline>
    <contour>
      <point x="285" y="582" type="line"/>
      <point x="349" y="611" type="line"/>
      <point x="285" y="794" type="line"/>
      <point x="192" y="750" type="line"/>
    </contour>
  </outline>
</glyph>
<glyph name="d" format="2">
  <advance width="586"/>
  <unicode hex="0064"/>
  <outline>
    <contour>
      <point x="192" y="-12" type="qcurve"/>
      <point x="252" y="-12"/>
      <point x="330" y="52"/>
      <point x="361" y="116" type="qcurve"/>
      <point x="365" y="116" type="line"/>
      <point x="363" y="107"/>
      <point x="358" y="85"/>
      <point x="358" y="68" type="qcurve"/>
      <point x="358" y="4"/>
      <point x="434" y="0" type="qcurve"/>
      <point x="513" y="0" type="line"/>
      <point x="530" y="87" type="line"/>
      <point x="463" y="87" type="line"/>
      <point x="594" y="740" type="line"/>
      <point x="490" y="740" type="line"/>
      <point x="429" y="433" type="line"/>
      <point x="424" y="433" type="line"/>
      <point x="415" y="479"/>
      <point x="342" y="532"/>
      <point x="291" y="532" type="qcurve"/>
      <point x="233" y="532"/>
      <point x="141" y="473"/>
      <point x="109" y="424" type="qcurve"/>
      <point x="42" y="316"/>
      <point x="42" y="179" type="qcurve"/>
      <point x="42" y="92"/>
      <point x="120" y="-12"/>
    </contour>
    <contour>
      <point x="234" y="77" type="qcurve"/>
      <point x="191" y="77"/>
      <point x="149" y="132"/>
      <point x="149" y="176" type="qcurve"/>
      <point x="149" y="202"/>
      <point x="154" y="230" type="qcurve"/>
      <point x="169" y="303" type="line"/>
      <point x="197" y="443"/>
      <point x="309" y="443" type="qcurve"/>
      <point x="368" y="443"/>
      <point x="393" y="413" type="qcurve"/>
      <point x="411" y="391"/>
      <point x="411" y="360" type="qcurve"/>
      <point x="411" y="349"/>
      <point x="409" y="337" type="qcurve"/>
      <point x="390" y="242" type="line"/>
      <point x="377" y="174"/>
      <point x="333" y="127" type="qcurve"/>
      <point x="313" y="106"/>
      <point x="265" y="77"/>
    </contour>
  </outline>
</glyph>
<glyph name="f" format="2">
  <advance width="326"/>
  <unicode hex="0066"/>
  <outline>
    <contour>
      <point x="-80" y="-200" type="line"/>
      <point x="-63" y="-113" type="line"/>
      <point x="31" y="-113" type="line"/>
      <point x="141" y="433" type="line"/>
      <point x="63" y="433" type="line"/>
      <point x="80" y="520" type="line"/>
      <point x="159" y="520" type="line"/>
      <point x="177" y="611" type="line"/>
      <point x="188" y="674"/>
      <point x="261" y="740"/>
      <point x="331" y="740" type="qcurve" smooth="yes"/>
      <point x="408" y="740" type="line"/>
      <point x="391" y="653" type="line"/>
      <point x="289" y="653" type="line"/>
      <point x="263" y="520" type="line"/>
      <point x="364" y="520" type="line"/>
      <point x="347" y="433" type="line"/>
      <point x="245" y="433" type="line"/>
      <point x="144" y="-71" type="line"/>
      <point x="133" y="-134"/>
      <point x="60" y="-200"/>
      <point x="-10" y="-200" type="qcurve" smooth="yes"/>
    </contour>
  </outline>
</glyph>
<glyph name="h" format="2">
  <advance width="573"/>
  <unicode hex="0068"/>
  <outline>
    <contour>
      <point x="504" y="0" type="line"/>
      <point x="521" y="87" type="line"/>
      <point x="458" y="87" type="line"/>
      <point x="505" y="322" type="line"/>
      <point x="513" y="358"/>
      <point x="513" y="392" type="qcurve"/>
      <point x="513" y="458"/>
      <point x="448" y="532"/>
      <point x="383" y="532" type="qcurve"/>
      <point x="325" y="532"/>
      <point x="247" y="469"/>
      <point x="218" y="409" type="qcurve"/>
      <point x="213" y="409" type="line"/>
      <point x="279" y="740" type="line"/>
      <point x="175" y="740" type="line"/>
      <point x="27" y="0" type="line"/>
      <point x="131" y="0" type="line"/>
      <point x="187" y="280" type="line"/>
      <point x="197" y="335"/>
      <point x="278" y="442"/>
      <point x="338" y="442" type="qcurve"/>
      <point x="406" y="442"/>
      <point x="406" y="370" type="qcurve"/>
      <point x="406" y="345"/>
      <point x="400" y="315" type="qcurve"/>
      <point x="355" y="90" type="line"/>
      <point x="353" y="78"/>
      <point x="353" y="66" type="qcurve"/>
      <point x="353" y="2"/>
      <point x="425" y="0" type="qcurve"/>
    </contour>
  </outline>
</glyph>
<glyph name="k" format="2">
  <advance width="532"/>
  <unicode hex="006B"/>
  <outline>
    <contour>
      <point x="411" y="0" type="line" smooth="yes"/>
      <point x="341" y="0"/>
      <point x="320" y="65" type="qcurve"/>
      <point x="249" y="243" type="line"/>
      <point x="163" y="162" type="line"/>
      <point x="131" y="0" type="line"/>
      <point x="27" y="0" type="line"/>
      <point x="175" y="740" type="line"/>
      <point x="279" y="740" type="line"/>
      <point x="189" y="289" type="line"/>
      <point x="195" y="289" type="line"/>
      <point x="278" y="377" type="line"/>
      <point x="431" y="520" type="line"/>
      <point x="554" y="520" type="line"/>
      <point x="331" y="310" type="line"/>
      <point x="422" y="87" type="line"/>
      <point x="485" y="87" type="line"/>
      <point x="468" y="0" type="line"/>
    </contour>
  </outline>
</glyph>
<glyph name="q" format="2">
  <advance width="576"/>
  <unicode hex="0071"/>
  <outline>
    <contour>
      <point x="406" y="-200" type="line"/>
      <point x="550" y="520" type="line"/>
      <point x="446" y="520" type="line"/>
      <point x="429" y="433" type="line"/>
      <point x="424" y="433" type="line"/>
      <point x="415" y="479"/>
      <point x="342" y="532"/>
      <point x="291" y="532" type="qcurve"/>
      <point x="233" y="532"/>
      <point x="141" y="473"/>
      <point x="109" y="424" type="qcurve"/>
      <point x="42" y="316"/>
      <point x="42" y="179" type="qcurve"/>
      <point x="42" y="92"/>
      <point x="120" y="-12"/>
      <point x="192" y="-12" type="qcurve"/>
      <point x="252" y="-12"/>
      <point x="330" y="52"/>
      <point x="361" y="116" type="qcurve"/>
      <point x="365" y="116" type="line"/>
      <point x="302" y="-200" type="line"/>
    </contour>
    <contour>
      <point x="234" y="77" type="qcurve"/>
      <point x="191" y="77"/>
      <point x="149" y="132"/>
      <point x="149" y="176" type="qcurve"/>
      <point x="149" y="202"/>
      <point x="154" y="230" type="qcurve"/>
      <point x="169" y="303" type="line"/>
      <point x="197" y="443"/>
      <point x="309" y="443" type="qcurve"/>
      <point x="368" y="443"/>
      <point x="393" y="413" type="qcurve"/>
      <point x="411" y="391"/>
      <point x="411" y="360" type="qcurve"/>
      <point x="411" y="349"/>
      <point x="409" y="337" type="qcurve"/>
      <point x="390" y="242" type="line"/>
      <point x="376" y="173"/>
      <point x="333" y="127" type="qcurve"/>
      <point x="288" y="77"/>
    </contour>
  </outline>
</glyph>
<glyph name="r" format="2">
  <advance width="377"/>
  <unicode hex="0072"/>
  <outline>
    <contour>
      <point x="131" y="0" type="line"/>
      <point x="190" y="294" type="line"/>
      <point x="213" y="417"/>
      <point x="346" y="417" type="qcurve"/>
      <point x="381" y="417" type="line"/>
      <point x="402" y="520" type="line"/>
      <point x="373" y="520" type="line"/>
      <point x="317" y="520"/>
      <point x="274" y="485" type="qcurve"/>
      <point x="237" y="452"/>
      <point x="219" y="409" type="qcurve"/>
      <point x="213" y="409" type="line"/>
      <point x="235" y="520" type="line"/>
      <point x="131" y="520" type="line"/>
      <point x="27" y="0" type="line"/>
    </contour>
  </outline>
</glyph>
<glyph name="s" format="2">
  <advance width="494"/>
  <unicode hex="0073"/>
  <outline>
    <contour>
      <point x="220" y="-12" type="qcurve"/>
      <point x="313" y="-12"/>
      <point x="370" y="34" type="qcurve"/>
      <point x="412" y="67"/>
      <point x="424" y="118" type="qcurve"/>
      <point x="427" y="135"/>
      <point x="427" y="151" type="qcurve"/>
      <point x="427" y="193"/>
      <point x="374" y="269"/>
      <point x="292" y="298" type="qcurve"/>
      <point x="246" y="314" type="line"/>
      <point x="179" y="337"/>
      <point x="179" y="380" type="qcurve"/>
      <point x="179" y="444"/>
      <point x="266" y="444" type="qcurve"/>
      <point x="346" y="444"/>
      <point x="393" y="385" type="qcurve"/>
      <point x="460" y="449" type="line"/>
      <point x="426" y="488"/>
      <point x="336" y="532"/>
      <point x="266" y="532" type="qcurve"/>
      <point x="178" y="532"/>
      <point x="72" y="445"/>
      <point x="72" y="374" type="qcurve"/>
      <point x="72" y="269"/>
      <point x="214" y="223" type="qcurve"/>
      <point x="260" y="208" type="line"/>
      <point x="320" y="187"/>
      <point x="320" y="144" type="qcurve"/>
      <point x="320" y="76"/>
      <point x="226" y="76" type="qcurve"/>
      <point x="140" y="76"/>
      <point x="79" y="150" type="qcurve"/>
      <point x="9" y="86" type="line"/>
      <point x="86" y="-12"/>
    </contour>
  </outline>
</glyph>
<glyph name="t" format="2">
  <advance width="333"/>
  <unicode hex="0074"/>
  <outline>
    <contour>
      <point x="251" y="0" type="line"/>
      <point x="268" y="87" type="line"/>
      <point x="168" y="87" type="line"/>
      <point x="236" y="433" type="line"/>
      <point x="341" y="433" type="line"/>
      <point x="358" y="520" type="line"/>
      <point x="254" y="520" type="line"/>
      <point x="282" y="662" type="line"/>
      <point x="185" y="662" type="line"/>
      <point x="167" y="571" type="line"/>
      <point x="163" y="544"/>
      <point x="141" y="520"/>
      <point x="112" y="520" type="qcurve"/>
      <point x="73" y="520" type="line"/>
      <point x="56" y="433" type="line"/>
      <point x="133" y="433" type="line"/>
      <point x="69" y="117" type="line"/>
      <point x="65" y="96"/>
      <point x="65" y="79" type="qcurve"/>
      <point x="65" y="42"/>
      <point x="110" y="0"/>
      <point x="158" y="0" type="qcurve"/>
    </contour>
  </outline>
</glyph>
<glyph name="v" format="2">
  <advance width="496"/>
  <unicode hex="0076"/>
  <outline>
    <contour>
      <point x="255" y="0" type="line"/>
      <point x="534" y="520" type="line"/>
      <point x="423" y="520" type="line"/>
      <point x="304" y="289" type="line"/>
      <point x="213" y="95" type="line"/>
      <point x="208" y="95" type="line"/>
      <point x="189" y="289" type="line"/>
      <point x="160" y="520" type="line"/>
      <point x="58" y="520" type="line"/>
      <point x="131" y="0" type="line"/>
    </contour>
  </outline>
</glyph>
<glyph name="x" format="2">
  <advance width="504"/>
  <unicode hex="0078"/>
  <outline>
    <contour>
      <point x="327" y="0" type="line"/>
      <point x="241" y="194" type="line"/>
      <point x="236" y="194" type="line"/>
      <point x="78" y="0" type="line"/>
      <point x="-38" y="0" type="line"/>
      <point x="194" y="270" type="line"/>
      <point x="74" y="520" type="line"/>
      <point x="186" y="520" type="line"/>
      <point x="266" y="332" type="line"/>
      <point x="271" y="332" type="line"/>
      <point x="423" y="520" type="line"/>
      <point x="539" y="520" type="line"/>
      <point x="313" y="257" type="line"/>
      <point x="440" y="0" type="line"/>
    </contour>
  </outline>
</glyph>
<glyph name="braceleft" format="2">
  <advance width="343"/>
  <unicode hex="007B"/>
  <outline>
    <contour>
      <point x="215" y="-138" type="line"/>
      <point x="232" y="-57" type="line"/>
      <point x="147" y="-57" type="line"/>
      <point x="199" y="204"/>
      <point x="199" y="214" type="qcurve"/>
      <point x="199" y="288"/>
      <point x="123" y="306" type="qcurve"/>
      <point x="125" y="316" type="line"/>
      <point x="184" y="323"/>
      <point x="238" y="395"/>
      <point x="247" y="442" type="qcurve"/>
      <point x="294" y="679" type="line"/>
      <point x="379" y="679" type="line"/>
      <point x="394" y="760" type="line"/>
      <point x="294" y="760" type="line"/>
      <point x="218" y="760"/>
      <point x="198" y="670" type="qcurve"/>
      <point x="153" y="447" type="line"/>
      <point x="144" y="403"/>
      <point x="92" y="359"/>
      <point x="44" y="359" type="qcurve"/>
      <point x="25" y="265" type="line"/>
      <point x="97" y="265"/>
      <point x="100" y="196" type="qcurve"/>
      <point x="100" y="183"/>
      <point x="97" y="168" type="qcurve"/>
      <point x="55" y="-44" type="line"/>
      <point x="52" y="-59"/>
      <point x="52" y="-70" type="qcurve"/>
      <point x="52" y="-134"/>
      <point x="125" y="-138" type="qcurve"/>
    </contour>
  </outline>
</glyph>
<glyph name="bar" format="2">
  <advance width="344"/>
  <unicode hex="007C"/>
  <outline>
    <contour>
      <point x="47" y="-138" type="line"/>
      <point x="227" y="760" type="line"/>
      <point x="318" y="760" type="line"/>
      <point x="139" y="-138" type="line"/>
    </contour>
  </outline>
</glyph>
<glyph name="braceright" format="2">
  <advance width="344"/>
  <unicode hex="007D"/>
  <outline>
    <contour>
      <point x="-32" y="-138" type="line"/>
      <point x="-16" y="-57" type="line"/>
      <point x="68" y="-57" type="line"/>
      <point x="115" y="180" type="line"/>
      <point x="133" y="293"/>
      <point x="238" y="306" type="qcurve"/>
      <point x="239" y="316" type="line"/>
      <point x="164" y="333"/>
      <point x="164" y="409" type="qcurve" smooth="yes"/>
      <point x="164" y="426"/>
      <point x="168" y="443" type="qcurve"/>
      <point x="215" y="679" type="line"/>
      <point x="130" y="679" type="line"/>
      <point x="147" y="760" type="line"/>
      <point x="238" y="760" type="line"/>
      <point x="310" y="757"/>
      <point x="310" y="692" type="qcurve" smooth="yes"/>
      <point x="310" y="674"/>
      <point x="308" y="666" type="qcurve" smooth="yes"/>
      <point x="265" y="454" type="line" smooth="yes"/>
      <point x="262" y="440"/>
      <point x="262" y="426" type="qcurve" smooth="yes"/>
      <point x="262" y="358"/>
      <point x="338" y="358" type="qcurve"/>
      <point x="319" y="264" type="line"/>
      <point x="227" y="264"/>
      <point x="209" y="175" type="qcurve" smooth="yes"/>
      <point x="165" y="-48" type="line"/>
      <point x="146" y="-138"/>
      <point x="69" y="-138" type="qcurve" smooth="yes"/>
    </contour>
  </outline>
</glyph>
<glyph name="asciitilde" format="2">
  <advance width="600"/>
  <unicode hex="007E"/>
  <outline>
    <contour>
      <point x="406" y="225" type="qcurve"/>
      <point x="454" y="225"/>
      <point x="516" y="257"/>
      <point x="539" y="281" type="qcurve"/>
      <point x="509" y="345" type="line"/>
      <point x="486" y="328"/>
      <point x="447" y="313"/>
      <point x="424" y="313" type="qcurve"/>
      <point x="394" y="313"/>
      <point x="346" y="332"/>
      <point x="322" y="347" type="qcurve"/>
      <point x="284" y="367"/>
      <point x="265" y="375" type="qcurve"/>
      <point x="240" y="385"/>
      <point x="205" y="385" type="qcurve"/>
      <point x="157" y="385"/>
      <point x="95" y="354"/>
      <point x="72" y="329" type="qcurve"/>
      <point x="102" y="266" type="line"/>
      <point x="126" y="282"/>
      <point x="165" y="298"/>
      <point x="188" y="298" type="qcurve"/>
      <point x="218" y="298"/>
      <point x="265" y="279"/>
      <point x="289" y="264" type="qcurve"/>
      <point x="317" y="246"/>
      <point x="369" y="225"/>
    </contour>
  </outline>
</glyph>
<glyph name="cent" format="2">
  <advance width="517"/>
  <unicode hex="00A2"/>
  <outline>
    <contour>
      <point x="157" y="-114" type="line"/>
      <point x="179" y="-4" type="line"/>
      <point x="42" y="40"/>
      <point x="42" y="209" type="qcurve" smooth="yes"/>
      <point x="42" y="329"/>
      <point x="107" y="422" type="qcurve"/>
      <point x="171" y="511"/>
      <point x="285" y="526" type="qcurve"/>
      <point x="306" y="630" type="line"/>
      <point x="392" y="630" type="line"/>
      <point x="370" y="522" type="line"/>
      <point x="468" y="495"/>
      <point x="497" y="404" type="qcurve"/>
      <point x="412" y="364" type="line"/>
      <point x="398" y="420"/>
      <point x="347" y="437" type="qcurve"/>
      <point x="276" y="76" type="line"/>
      <point x="338" y="87"/>
      <point x="381" y="164" type="qcurve"/>
      <point x="456" y="122" type="line"/>
      <point x="393" y="3"/>
      <point x="264" y="-10" type="qcurve"/>
      <point x="243" y="-114" type="line"/>
    </contour>
    <contour>
      <point x="272" y="437" type="line"/>
      <point x="184" y="412"/>
      <point x="164" y="308" type="qcurve" smooth="yes"/>
      <point x="147" y="222" type="line"/>
      <point x="143" y="206"/>
      <point x="143" y="183" type="qcurve" smooth="yes"/>
      <point x="143" y="148"/>
      <point x="172" y="94"/>
      <point x="201" y="82" type="qcurve"/>
    </contour>
  </outline>
</glyph>
<glyph name="sterling" format="2">
  <advance width="584"/>
  <unicode hex="00A3"/>
  <outline>
    <contour>
      <point x="474" y="0" type="line"/>
      <point x="493" y="96" type="line"/>
      <point x="154" y="96" type="line"/>
      <point x="156" y="103" type="line"/>
      <point x="194" y="124"/>
      <point x="258" y="220"/>
      <point x="262" y="290" type="qcurve"/>
      <point x="436" y="290" type="line"/>
      <point x="454" y="379" type="line"/>
      <point x="253" y="379" type="line"/>
      <point x="248" y="410"/>
      <point x="248" y="444" type="qcurve"/>
      <point x="248" y="525"/>
      <point x="326" y="614"/>
      <point x="393" y="614" type="qcurve"/>
      <point x="440" y="614"/>
      <point x="498" y="574"/>
      <point x="518" y="536" type="qcurve"/>
      <point x="606" y="592" type="line"/>
      <point x="576" y="649"/>
      <point x="478" y="710"/>
      <point x="401" y="710" type="qcurve"/>
      <point x="283" y="710"/>
      <point x="139" y="562"/>
      <point x="139" y="452" type="qcurve"/>
      <point x="139" y="415"/>
      <point x="145" y="379" type="qcurve"/>
      <point x="78" y="379" type="line"/>
      <point x="60" y="290" type="line"/>
      <point x="153" y="290" type="line"/>
      <point x="153" y="162"/>
      <point x="51" y="116" type="qcurve"/>
      <point x="28" y="0" type="line"/>
    </contour>
  </outline>
</glyph>
<glyph name="yen" format="2">
  <advance width="608"/>
  <unicode hex="00A5"/>
  <outline>
    <contour>
      <point x="306" y="0" type="line"/>
      <point x="334" y="142" type="line"/>
      <point x="503" y="142" type="line"/>
      <point x="518" y="218" type="line"/>
      <point x="350" y="218" type="line"/>
      <point x="366" y="301" type="line"/>
      <point x="535" y="301" type="line"/>
      <point x="550" y="377" type="line"/>
      <point x="428" y="377" type="line"/>
      <point x="668" y="698" type="line"/>
      <point x="542" y="698" type="line"/>
      <point x="331" y="402" type="line"/>
      <point x="327" y="402" type="line"/>
      <point x="234" y="698" type="line"/>
      <point x="119" y="698" type="line"/>
      <point x="228" y="377" type="line"/>
      <point x="108" y="377" type="line"/>
      <point x="93" y="301" type="line"/>
      <point x="258" y="301" type="line"/>
      <point x="242" y="218" type="line"/>
      <point x="76" y="218" type="line"/>
      <point x="61" y="142" type="line"/>
      <point x="226" y="142" type="line"/>
      <point x="198" y="0" type="line"/>
    </contour>
  </outline>
</glyph>
<glyph name="brokenbar" format="2">
  <advance width="344"/>
  <unicode hex="00A6"/>
  <outline>
    <contour>
      <point x="247" y="404" type="line"/>
      <point x="318" y="760" type="line"/>
      <point x="227" y="760" type="line"/>
      <point x="155" y="404" type="line"/>
    </contour>
    <contour>
      <point x="139" y="-138" type="line"/>
      <point x="210" y="218" type="line"/>
      <point x="119" y="218" type="line"/>
      <point x="47" y="-138" type="line"/>
    </contour>
  </outline>
</glyph>
<glyph name="section" format="2">
  <advance width="556"/>
  <unicode hex="00A7"/>
  <outline>
    <contour>
      <point x="201" y="-158" type="qcurve"/>
      <point x="293" y="-158"/>
      <point x="417" y="-54"/>
      <point x="417" y="30" type="qcurve"/>
      <point x="417" y="100"/>
      <point x="364" y="142" type="qcurve"/>
      <point x="365" y="152" type="line"/>
      <point x="429" y="168"/>
      <point x="499" y="250"/>
      <point x="499" y="308" type="qcurve"/>
      <point x="499" y="401"/>
      <point x="378" y="440" type="qcurve"/>
      <point x="315" y="460" type="line"/>
      <point x="241" y="482"/>
      <point x="241" y="540" type="qcurve"/>
      <point x="241" y="581"/>
      <point x="305" y="628"/>
      <point x="348" y="628" type="qcurve"/>
      <point x="432" y="628"/>
      <point x="474" y="580" type="qcurve"/>
      <point x="539" y="643" type="line"/>
      <point x="476" y="710"/>
      <point x="358" y="710" type="qcurve"/>
      <point x="267" y="710"/>
      <point x="142" y="608"/>
      <point x="142" y="524" type="qcurve"/>
      <point x="142" y="455"/>
      <point x="196" y="412" type="qcurve"/>
      <point x="194" y="403" type="line"/>
      <point x="61" y="365"/>
      <point x="61" y="246" type="qcurve"/>
      <point x="61" y="154"/>
      <point x="181" y="115" type="qcurve"/>
      <point x="244" y="95" type="line"/>
      <point x="318" y="74"/>
      <point x="318" y="15" type="qcurve"/>
      <point x="318" y="-26"/>
      <point x="255" y="-76"/>
      <point x="211" y="-76" type="qcurve"/>
      <point x="127" y="-76"/>
      <point x="85" y="-28" type="qcurve"/>
      <point x="20" y="-92" type="line"/>
      <point x="53" y="-126"/>
      <point x="147" y="-158"/>
    </contour>
    <contour>
      <point x="328" y="163" type="qcurve"/>
      <point x="321" y="167"/>
      <point x="239" y="193" type="qcurve"/>
      <point x="195" y="207"/>
      <point x="158" y="248"/>
      <point x="158" y="283" type="qcurve"/>
      <point x="158" y="352"/>
      <point x="232" y="392" type="qcurve"/>
      <point x="242" y="386"/>
      <point x="257" y="381" type="qcurve"/>
      <point x="320" y="362" type="line"/>
      <point x="401" y="340"/>
      <point x="401" y="272" type="qcurve"/>
      <point x="401" y="208"/>
    </contour>
  </outline>
</glyph>
<glyph name="ordfeminine" format="2">
  <advance width="412"/>
  <unicode hex="00AA"/>
  <outline>
    <contour>
      <point x="174" y="342" type="qcurve"/>
      <point x="214" y="342"/>
      <point x="272" y="378"/>
      <point x="288" y="408" type="qcurve"/>
      <point x="292" y="408" type="line"/>
      <point x="291" y="404"/>
      <point x="291" y="396" type="qcurve"/>
      <point x="291" y="350"/>
      <point x="346" y="350" type="qcurve"/>
      <point x="390" y="350" type="line"/>
      <point x="402" y="412" type="line"/>
      <point x="365" y="412" type="line"/>
      <point x="396" y="570" type="line"/>
      <point x="400" y="587"/>
      <point x="400" y="605" type="qcurve"/>
      <point x="400" y="658"/>
      <point x="329" y="710"/>
      <point x="272" y="710" type="qcurve"/>
      <point x="177" y="710"/>
      <point x="123" y="639" type="qcurve"/>
      <point x="168" y="601" type="line"/>
      <point x="206" y="650"/>
      <point x="261" y="650" type="qcurve"/>
      <point x="320" y="650"/>
      <point x="320" y="598" type="qcurve"/>
      <point x="320" y="587" type="line"/>
      <point x="320" y="583"/>
      <point x="313" y="551" type="qcurve"/>
      <point x="245" y="551" type="line"/>
      <point x="83" y="551"/>
      <point x="78" y="428" type="qcurve"/>
      <point x="78" y="387"/>
      <point x="132" y="342"/>
    </contour>
    <contour>
      <point x="204" y="398" type="qcurve"/>
      <point x="182" y="398"/>
      <point x="156" y="416"/>
      <point x="156" y="433" type="qcurve"/>
      <point x="159" y="456" type="line"/>
      <point x="168" y="503"/>
      <point x="238" y="503" type="qcurve"/>
      <point x="303" y="503" type="line"/>
      <point x="295" y="460" type="line"/>
      <point x="289" y="431"/>
      <point x="237" y="398"/>
    </contour>
  </outline>
</glyph>
<glyph name="guillemotleft" format="2">
  <advance width="526"/>
  <unicode hex="00AB"/>
  <outline>
    <contour>
      <point x="33" y="234" type="line"/>
      <point x="52" y="331" type="line"/>
      <point x="263" y="492" type="line"/>
      <point x="289" y="419" type="line"/>
      <point x="130" y="274" type="line"/>
      <point x="230" y="132" type="line"/>
      <point x="187" y="67" type="line"/>
    </contour>
    <contour>
      <point x="255" y="234" type="line"/>
      <point x="274" y="331" type="line"/>
      <point x="485" y="492" type="line"/>
      <point x="511" y="419" type="line"/>
      <point x="352" y="274" type="line"/>
      <point x="452" y="132" type="line"/>
      <point x="409" y="67" type="line"/>
    </contour>
  </outline>
</glyph>
<glyph name="logicalnot" format="2">
  <advance width="600"/>
  <unicode hex="00AC"/>
  <outline>
    <contour>
      <point x="395" y="78" type="line"/>
      <point x="432" y="262" type="line"/>
      <point x="67" y="262" type="line"/>
      <point x="85" y="350" type="line"/>
      <point x="539" y="350" type="line"/>
      <point x="484" y="78" type="line"/>
    </contour>
  </outline>
</glyph>
<glyph name="degree" format="2">
  <advance width="456"/>
  <unicode hex="00B0"/>
  <outline>
    <contour>
      <point x="263" y="352" type="qcurve" smooth="yes"/>
      <point x="197" y="352"/>
      <point x="109" y="441"/>
      <point x="109" y="511" type="qcurve" smooth="yes"/>
      <point x="109" y="597"/>
      <point x="220" y="710"/>
      <point x="302" y="710" type="qcurve" smooth="yes"/>
      <point x="368" y="710"/>
      <point x="456" y="619"/>
      <point x="456" y="551" type="qcurve" smooth="yes"/>
      <point x="456" y="466"/>
      <point x="346" y="352"/>
    </contour>
    <contour>
      <point x="272" y="428" type="qcurve" smooth="yes"/>
      <point x="319" y="428"/>
      <point x="374" y="498"/>
      <point x="374" y="550" type="qcurve" smooth="yes"/>
      <point x="374" y="585"/>
      <point x="331" y="634"/>
      <point x="293" y="634" type="qcurve" smooth="yes"/>
      <point x="247" y="634"/>
      <point x="191" y="562"/>
      <point x="191" y="512" type="qcurve" smooth="yes"/>
      <point x="191" y="477"/>
      <point x="235" y="428"/>
    </contour>
  </outline>
</glyph>
<glyph name="plusminus" format="2">
  <advance width="600"/>
  <unicode hex="00B1"/>
  <outline>
    <contour>
      <point x="329" y="166" type="line"/>
      <point x="366" y="352" type="line"/>
      <point x="546" y="352" type="line"/>
      <point x="563" y="439" type="line"/>
      <point x="384" y="439" type="line"/>
      <point x="421" y="625" type="line"/>
      <point x="325" y="625" type="line"/>
      <point x="288" y="439" type="line"/>
      <point x="107" y="439" type="line"/>
      <point x="90" y="352" type="line"/>
      <point x="271" y="352" type="line"/>
      <point x="234" y="166" type="line"/>
    </contour>
    <contour>
      <point x="476" y="0" type="line"/>
      <point x="493" y="87" type="line"/>
      <point x="38" y="87" type="line"/>
      <point x="21" y="0" type="line"/>
    </contour>
  </outline>
</glyph>
<glyph name="twosuperior" format="2">
  <advance width="339"/>
  <unicode hex="00B2"/>
  <outline>
    <contour>
      <point x="312" y="329" type="line"/>
      <point x="324" y="391" type="line"/>
      <point x="144" y="391" type="line"/>
      <point x="228" y="447" type="line"/>
      <point x="279" y="476"/>
      <point x="317" y="513" type="qcurve"/>
      <point x="357" y="554"/>
      <point x="357" y="603" type="qcurve"/>
      <point x="357" y="652"/>
      <point x="284" y="704"/>
      <point x="231" y="704" type="qcurve"/>
      <point x="130" y="704"/>
      <point x="88" y="611" type="qcurve"/>
      <point x="153" y="585" type="line"/>
      <point x="175" y="639"/>
      <point x="225" y="639" type="qcurve"/>
      <point x="246" y="639"/>
      <point x="275" y="618"/>
      <point x="275" y="598" type="qcurve"/>
      <point x="273" y="582" type="line"/>
      <point x="268" y="557"/>
      <point x="230" y="520"/>
      <point x="196" y="496" type="qcurve"/>
      <point x="56" y="400" type="line"/>
      <point x="42" y="329" type="line"/>
    </contour>
  </outline>
</glyph>
<glyph name="uni00B5" format="2">
  <advance width="576"/>
  <unicode hex="00B5"/>
  <outline>
    <contour>
      <point x="-13" y="-200" type="line"/>
      <point x="131" y="520" type="line"/>
      <point x="235" y="520" type="line"/>
      <point x="172" y="202" type="line" smooth="yes"/>
      <point x="166" y="170"/>
      <point x="166" y="152" type="qcurve" smooth="yes"/>
      <point x="166" y="114"/>
      <point x="197" y="78"/>
      <point x="232" y="78" type="qcurve" smooth="yes"/>
      <point x="282" y="78"/>
      <point x="320" y="122" type="qcurve" smooth="yes"/>
      <point x="364" y="172"/>
      <point x="378" y="233" type="qcurve"/>
      <point x="436" y="520" type="line"/>
      <point x="540" y="520" type="line"/>
      <point x="453" y="87" type="line"/>
      <point x="520" y="87" type="line"/>
      <point x="503" y="0" type="line"/>
      <point x="423" y="0" type="line" smooth="yes"/>
      <point x="387" y="0"/>
      <point x="348" y="39"/>
      <point x="348" y="71" type="qcurve" smooth="yes"/>
      <point x="348" y="79"/>
      <point x="353" y="111" type="qcurve"/>
      <point x="349" y="111" type="line"/>
      <point x="322" y="51"/>
      <point x="256" y="-12"/>
      <point x="203" y="-12" type="qcurve" smooth="yes"/>
      <point x="141" y="-12"/>
      <point x="126" y="47" type="qcurve"/>
      <point x="121" y="47" type="line"/>
      <point x="117" y="-70" type="line"/>
      <point x="91" y="-200" type="line"/>
    </contour>
  </outline>
</glyph>
<glyph name="paragraph" format="2">
  <advance width="636"/>
  <unicode hex="00B6"/>
  <outline>
    <contour>
      <point x="420" y="-149" type="line"/>
      <point x="574" y="616" type="line"/>
      <point x="636" y="616" type="line"/>
      <point x="652" y="698" type="line"/>
      <point x="326" y="698" type="line"/>
      <point x="223" y="698"/>
      <point x="82" y="564"/>
      <point x="82" y="466" type="qcurve"/>
      <point x="82" y="393"/>
      <point x="173" y="285"/>
      <point x="237" y="285" type="qcurve"/>
      <point x="150" y="-149" type="line"/>
      <point x="234" y="-149" type="line"/>
      <point x="388" y="616" type="line"/>
      <point x="489" y="616" type="line"/>
      <point x="336" y="-149" type="line"/>
    </contour>
  </outline>
</glyph>
<glyph name="onesuperior" format="2">
  <advance width="311"/>
  <unicode hex="00B9"/>
  <outline>
    <contour>
      <point x="235" y="329" type="line"/>
      <point x="161" y="329" type="line"/>
      <point x="220" y="627" type="line"/>
      <point x="131" y="581" type="line"/>
      <point x="146" y="656" type="line"/>
      <point x="230" y="698" type="line"/>
      <point x="309" y="698" type="line"/>
    </contour>
  </outline>
</glyph>
<glyph name="ordmasculine" format="2">
  <advance width="405"/>
  <unicode hex="00BA"/>
  <outline>
    <contour>
      <point x="227" y="342" type="qcurve"/>
      <point x="318" y="342"/>
      <point x="372" y="411" type="qcurve"/>
      <point x="421" y="478"/>
      <point x="421" y="566" type="qcurve"/>
      <point x="421" y="632"/>
      <point x="346" y="710"/>
      <point x="283" y="710" type="qcurve"/>
      <point x="190" y="710"/>
      <point x="139" y="642" type="qcurve"/>
      <point x="90" y="572"/>
      <point x="90" y="486" type="qcurve"/>
      <point x="90" y="420"/>
      <point x="164" y="342"/>
    </contour>
    <contour>
      <point x="236" y="403" type="qcurve"/>
      <point x="172" y="403"/>
      <point x="168" y="470" type="qcurve"/>
      <point x="168" y="481"/>
      <point x="171" y="496" type="qcurve"/>
      <point x="183" y="555" type="line"/>
      <point x="191" y="598"/>
      <point x="239" y="649"/>
      <point x="275" y="649" type="qcurve"/>
      <point x="340" y="649"/>
      <point x="343" y="582" type="qcurve"/>
      <point x="343" y="572"/>
      <point x="340" y="556" type="qcurve"/>
      <point x="328" y="497" type="line"/>
      <point x="320" y="454"/>
      <point x="272" y="403"/>
    </contour>
  </outline>
</glyph>
<glyph name="guillemetright" format="2">
  <advance width="526"/>
  <unicode hex="00BB"/>
  <outline>
    <contour>
      <point x="266" y="67" type="line"/>
      <point x="477" y="228" type="line"/>
      <point x="497" y="325" type="line"/>
      <point x="342" y="492" type="line"/>
      <point x="299" y="426" type="line"/>
      <point x="399" y="284" type="line"/>
      <point x="241" y="140" type="line"/>
    </contour>
    <contour>
      <point x="44" y="67" type="line"/>
      <point x="255" y="228" type="line"/>
      <point x="275" y="325" type="line"/>
      <point x="120" y="492" type="line"/>
      <point x="77" y="426" type="line"/>
      <point x="177" y="284" type="line"/>
      <point x="19" y="140" type="line"/>
    </contour>
  </outline>
</glyph>
<glyph name="onehalf" format="2">
  <advance width="817"/>
  <unicode hex="00BD"/>
  <outline>
    <contour>
      <point x="142" y="0" type="line"/>
      <point x="771" y="698" type="line"/>
      <point x="681" y="698" type="line"/>
      <point x="51" y="0" type="line"/>
    </contour>
    <contour>
      <point x="728" y="0" type="line"/>
      <point x="740" y="62" type="line"/>
      <point x="560" y="62" type="line"/>
      <point x="644" y="118" type="line"/>
      <point x="695" y="147"/>
      <point x="733" y="184" type="qcurve"/>
      <point x="773" y="225"/>
      <point x="773" y="274" type="qcurve"/>
      <point x="773" y="323"/>
      <point x="700" y="375"/>
      <point x="647" y="375" type="qcurve"/>
      <point x="546" y="375"/>
      <point x="504" y="282" type="qcurve"/>
      <point x="569" y="256" type="line"/>
      <point x="591" y="310"/>
      <point x="641" y="310" type="qcurve"/>
      <point x="662" y="310"/>
      <point x="691" y="289"/>
      <point x="691" y="269" type="qcurve"/>
      <point x="689" y="253" type="line"/>
      <point x="684" y="228"/>
      <point x="646" y="191"/>
      <point x="612" y="167" type="qcurve"/>
      <point x="472" y="71" type="line"/>
      <point x="458" y="0" type="line"/>
    </contour>
    <contour>
      <point x="235" y="329" type="line"/>
      <point x="161" y="329" type="line"/>
      <point x="220" y="627" type="line"/>
      <point x="131" y="581" type="line"/>
      <point x="146" y="656" type="line"/>
      <point x="230" y="698" type="line"/>
      <point x="309" y="698" type="line"/>
    </contour>
  </outline>
</glyph>
<glyph name="questiondown" format="2">
  <advance width="480"/>
  <unicode hex="00BF"/>
  <outline>
    <contour>
      <point x="173" y="-190" type="qcurve"/>
      <point x="336" y="-190"/>
      <point x="405" y="-28" type="qcurve"/>
      <point x="318" y="9" type="line"/>
      <point x="278" y="-97"/>
      <point x="186" y="-97" type="qcurve"/>
      <point x="144" y="-97"/>
      <point x="95" y="-54"/>
      <point x="95" y="-16" type="qcurve"/>
      <point x="95" y="124"/>
      <point x="288" y="141" type="qcurve"/>
      <point x="320" y="301" type="line"/>
      <point x="219" y="301" type="line"/>
      <point x="199" y="207" type="line"/>
      <point x="102" y="187"/>
      <point x="-17" y="57"/>
      <point x="-17" y="-26" type="qcurve"/>
      <point x="-17" y="-103"/>
      <point x="85" y="-190"/>
    </contour>
    <contour>
      <point x="286" y="381" type="qcurve"/>
      <point x="354" y="381"/>
      <point x="365" y="444" type="qcurve"/>
      <point x="370" y="465"/>
      <point x="370" y="483" type="qcurve"/>
      <point x="370" y="504"/>
      <point x="340" y="532"/>
      <point x="308" y="532" type="qcurve"/>
      <point x="224" y="532"/>
      <point x="224" y="430" type="qcurve"/>
      <point x="224" y="409"/>
      <point x="254" y="381"/>
    </contour>
  </outline>
</glyph>
<glyph name="Agrave" format="2">
  <advance width="638"/>
  <unicode hex="00C0"/>
  <outline>
    <contour>
      <point x="565" y="0" type="line"/>
      <point x="477" y="698" type="line"/>
      <point x="337" y="698" type="line"/>
      <point x="-30" y="0" type="line"/>
      <point x="86" y="0" type="line"/>
      <point x="183" y="189" type="line"/>
      <point x="433" y="189" type="line"/>
      <point x="455" y="0" type="line"/>
    </contour>
    <contour>
      <point x="424" y="283" type="line"/>
      <point x="228" y="283" type="line"/>
      <point x="384" y="598" type="line"/>
      <point x="391" y="598" type="line"/>
    </contour>
    <contour>
      <point x="401" y="749" type="line"/>
      <point x="465" y="778" type="line"/>
      <point x="400" y="961" type="line"/>
      <point x="308" y="918" type="line"/>
    </contour>
  </outline>
</glyph>
<glyph name="Atilde" format="2">
  <advance width="638"/>
  <unicode hex="00C3"/>
  <outline>
    <contour>
      <point x="565" y="0" type="line"/>
      <point x="477" y="698" type="line"/>
      <point x="337" y="698" type="line"/>
      <point x="-30" y="0" type="line"/>
      <point x="86" y="0" type="line"/>
      <point x="183" y="189" type="line"/>
      <point x="433" y="189" type="line"/>
      <point x="455" y="0" type="line"/>
    </contour>
    <contour>
      <point x="424" y="283" type="line"/>
      <point x="228" y="283" type="line"/>
      <point x="384" y="598" type="line"/>
      <point x="391" y="598" type="line"/>
    </contour>
    <contour>
      <point x="495" y="774" type="qcurve"/>
      <point x="557" y="774"/>
      <point x="601" y="832" type="qcurve"/>
      <point x="567" y="883" type="line"/>
      <point x="550" y="870"/>
      <point x="525" y="857"/>
      <point x="508" y="857" type="qcurve"/>
      <point x="480" y="857"/>
      <point x="440" y="880" type="qcurve"/>
      <point x="422" y="890"/>
      <point x="387" y="904"/>
      <point x="364" y="904" type="qcurve"/>
      <point x="301" y="904"/>
      <point x="258" y="847" type="qcurve"/>
      <point x="292" y="795" type="line"/>
      <point x="309" y="808"/>
      <point x="335" y="821"/>
      <point x="351" y="821" type="qcurve"/>
      <point x="380" y="821"/>
      <point x="419" y="798" type="qcurve"/>
      <point x="429" y="793" type="line"/>
      <point x="443" y="786"/>
      <point x="474" y="774"/>
    </contour>
  </outline>
</glyph>
<glyph name="Ccedilla" format="2">
  <advance width="616"/>
  <unicode hex="00C7"/>
  <outline>
    <contour>
      <point x="269" y="-209" type="qcurve" smooth="yes"/>
      <point x="229" y="-209"/>
      <point x="175" y="-186"/>
      <point x="163" y="-168" type="qcurve"/>
      <point x="208" y="-123" type="line"/>
      <point x="215" y="-132"/>
      <point x="245" y="-149"/>
      <point x="267" y="-149" type="qcurve"/>
      <point x="315" y="-145"/>
      <point x="315" y="-115" type="qcurve" smooth="yes"/>
      <point x="315" y="-82"/>
      <point x="255" y="-77" type="qcurve" smooth="yes"/>
      <point x="231" y="-75" type="line"/>
      <point x="254" y="-9" type="line"/>
      <point x="165" y="5"/>
      <point x="56" y="145"/>
      <point x="56" y="269" type="qcurve" smooth="yes"/>
      <point x="56" y="451"/>
      <point x="153" y="581" type="qcurve" smooth="yes"/>
      <point x="199" y="642"/>
      <point x="326" y="710"/>
      <point x="402" y="710" type="qcurve" smooth="yes"/>
      <point x="578" y="710"/>
      <point x="630" y="546" type="qcurve"/>
      <point x="533" y="504" type="line"/>
      <point x="518" y="555"/>
      <point x="454" y="613"/>
      <point x="392" y="613" type="qcurve" smooth="yes"/>
      <point x="316" y="613"/>
      <point x="212" y="507"/>
      <point x="193" y="418" type="qcurve" smooth="yes"/>
      <point x="170" y="305" type="line" smooth="yes"/>
      <point x="164" y="272"/>
      <point x="164" y="246" type="qcurve" smooth="yes"/>
      <point x="164" y="171"/>
      <point x="237" y="85"/>
      <point x="306" y="85" type="qcurve" smooth="yes"/>
      <point x="372" y="85"/>
      <point x="452" y="149"/>
      <point x="481" y="204" type="qcurve"/>
      <point x="571" y="161" type="line"/>
      <point x="483" y="-9"/>
      <point x="310" y="-12" type="qcurve"/>
      <point x="294" y="-59" type="line"/>
      <point x="296" y="-62" type="line"/>
      <point x="313" y="-57"/>
      <point x="332" y="-57" type="qcurve" smooth="yes"/>
      <point x="358" y="-57"/>
      <point x="392" y="-84"/>
      <point x="392" y="-113" type="qcurve" smooth="yes"/>
      <point x="392" y="-159"/>
      <point x="322" y="-209"/>
    </contour>
  </outline>
</glyph>
<glyph name="Ecircumflex" format="2">
  <advance width="571"/>
  <unicode hex="00CA"/>
  <outline>
    <contour>
      <point x="473" y="0" type="line"/>
      <point x="492" y="96" type="line"/>
      <point x="160" y="96" type="line"/>
      <point x="202" y="304" type="line"/>
      <point x="486" y="304" type="line"/>
      <point x="505" y="400" type="line"/>
      <point x="221" y="400" type="line"/>
      <point x="261" y="602" type="line"/>
      <point x="579" y="602" type="line"/>
      <point x="599" y="698" type="line"/>
      <point x="172" y="698" type="line"/>
      <point x="32" y="0" type="line"/>
    </contour>
    <contour>
      <point x="277" y="751" type="line"/>
      <point x="414" y="867" type="line"/>
      <point x="509" y="752" type="line"/>
      <point x="566" y="794" type="line"/>
      <point x="476" y="944" type="line"/>
      <point x="370" y="944" type="line"/>
      <point x="224" y="794" type="line"/>
    </contour>
  </outline>
</glyph>
<glyph name="Iacute" format="2">
  <advance width="276"/>
  <unicode hex="00CD"/>
  <outline>
    <contour>
      <point x="187" y="783" type="line"/>
      <point x="297" y="962" type="line"/>
      <point x="384" y="916" type="line"/>
      <point x="251" y="749" type="line"/>
    </contour>
    <contour>
      <point x="32" y="0" type="line"/>
      <point x="172" y="698" type="line"/>
      <point x="280" y="698" type="line"/>
      <point x="140" y="0" type="line"/>
    </contour>
  </outline>
</glyph>
<glyph name="Ntilde" format="2">
  <advance width="691"/>
  <unicode hex="00D1"/>
  <outline>
    <contour>
      <point x="554" y="0" type="line"/>
      <point x="694" y="698" type="line"/>
      <point x="591" y="698" type="line"/>
      <point x="483" y="158" type="line"/>
      <point x="477" y="158" type="line"/>
      <point x="428" y="313" type="line"/>
      <point x="292" y="698" type="line"/>
      <point x="172" y="698" type="line"/>
      <point x="32" y="0" type="line"/>
      <point x="135" y="0" type="line"/>
      <point x="243" y="540" type="line"/>
      <point x="249" y="540" type="line"/>
      <point x="298" y="385" type="line"/>
      <point x="434" y="0" type="line"/>
    </contour>
    <contour>
      <point x="525" y="774" type="qcurve"/>
      <point x="587" y="774"/>
      <point x="631" y="832" type="qcurve"/>
      <point x="597" y="883" type="line"/>
      <point x="580" y="870"/>
      <point x="555" y="857"/>
      <point x="538" y="857" type="qcurve"/>
      <point x="510" y="857"/>
      <point x="470" y="880" type="qcurve"/>
      <point x="452" y="890"/>
      <point x="417" y="904"/>
      <point x="394" y="904" type="qcurve"/>
      <point x="331" y="904"/>
      <point x="288" y="847" type="qcurve"/>
      <point x="322" y="795" type="line"/>
      <point x="339" y="808"/>
      <point x="365" y="821"/>
      <point x="381" y="821" type="qcurve"/>
      <point x="410" y="821"/>
      <point x="449" y="798" type="qcurve"/>
      <point x="459" y="793" type="line"/>
      <point x="473" y="786"/>
      <point x="504" y="774"/>
    </contour>
  </outline>
</glyph>
<glyph name="Ocircumflex" format="2">
  <advance width="687"/>
  <unicode hex="00D4"/>
  <outline>
    <contour>
      <point x="263" y="794" type="line"/>
      <point x="409" y="944" type="line"/>
      <point x="515" y="944" type="line"/>
      <point x="605" y="794" type="line"/>
      <point x="548" y="752" type="line"/>
      <point x="453" y="867" type="line"/>
      <point x="316" y="751" type="line"/>
    </contour>
    <contour>
      <point x="303" y="-12" type="qcurve" smooth="yes"/>
      <point x="201" y="-12"/>
      <point x="129" y="57" type="qcurve"/>
      <point x="56" y="131"/>
      <point x="56" y="265" type="qcurve" smooth="yes"/>
      <point x="56" y="441"/>
      <point x="153" y="576" type="qcurve"/>
      <point x="200" y="638"/>
      <point x="331" y="710"/>
      <point x="412" y="710" type="qcurve" smooth="yes"/>
      <point x="521" y="710"/>
      <point x="588" y="642" type="qcurve" smooth="yes"/>
      <point x="660" y="568"/>
      <point x="660" y="433" type="qcurve" smooth="yes"/>
      <point x="660" y="258"/>
      <point x="563" y="123" type="qcurve"/>
      <point x="516" y="61"/>
      <point x="384" y="-12"/>
    </contour>
    <contour>
      <point x="313" y="85" type="qcurve" smooth="yes"/>
      <point x="397" y="85"/>
      <point x="503" y="191"/>
      <point x="523" y="290" type="qcurve" smooth="yes"/>
      <point x="545" y="396" type="line"/>
      <point x="551" y="433"/>
      <point x="551" y="458" type="qcurve"/>
      <point x="547" y="613"/>
      <point x="404" y="613" type="qcurve" smooth="yes"/>
      <point x="238" y="613"/>
      <point x="192" y="406" type="qcurve"/>
      <point x="171" y="302" type="line"/>
      <point x="165" y="266"/>
      <point x="165" y="240" type="qcurve" smooth="yes"/>
      <point x="165" y="167"/>
      <point x="241" y="85"/>
    </contour>
  </outline>
</glyph>
<glyph name="Otilde" format="2">
  <advance width="687"/>
  <unicode hex="00D5"/>
  <outline>
    <contour>
      <point x="303" y="-12" type="qcurve"/>
      <point x="384" y="-12"/>
      <point x="516" y="61"/>
      <point x="563" y="123" type="qcurve"/>
      <point x="660" y="258"/>
      <point x="660" y="433" type="qcurve"/>
      <point x="660" y="568"/>
      <point x="588" y="642" type="qcurve"/>
      <point x="521" y="710"/>
      <point x="412" y="710" type="qcurve"/>
      <point x="331" y="710"/>
      <point x="200" y="638"/>
      <point x="153" y="576" type="qcurve"/>
      <point x="56" y="441"/>
      <point x="56" y="265" type="qcurve"/>
      <point x="56" y="131"/>
      <point x="129" y="57" type="qcurve"/>
      <point x="201" y="-12"/>
    </contour>
    <contour>
      <point x="313" y="85" type="qcurve"/>
      <point x="241" y="85"/>
      <point x="165" y="167"/>
      <point x="165" y="240" type="qcurve"/>
      <point x="165" y="266"/>
      <point x="171" y="302" type="qcurve"/>
      <point x="192" y="406" type="line"/>
      <point x="238" y="613"/>
      <point x="404" y="613" type="qcurve"/>
      <point x="547" y="613"/>
      <point x="551" y="458" type="qcurve"/>
      <point x="551" y="433"/>
      <point x="545" y="396" type="qcurve"/>
      <point x="523" y="290" type="line"/>
      <point x="503" y="191"/>
      <point x="397" y="85"/>
    </contour>
    <contour>
      <point x="512" y="774" type="qcurve"/>
      <point x="574" y="774"/>
      <point x="618" y="832" type="qcurve"/>
      <point x="584" y="883" type="line"/>
      <point x="567" y="870"/>
      <point x="542" y="857"/>
      <point x="525" y="857" type="qcurve"/>
      <point x="497" y="857"/>
      <point x="457" y="880" type="qcurve"/>
      <point x="439" y="890"/>
      <point x="404" y="904"/>
      <point x="381" y="904" type="qcurve"/>
      <point x="318" y="904"/>
      <point x="275" y="847" type="qcurve"/>
      <point x="309" y="795" type="line"/>
      <point x="326" y="808"/>
      <point x="352" y="821"/>
      <point x="368" y="821" type="qcurve"/>
      <point x="397" y="821"/>
      <point x="436" y="798" type="qcurve"/>
      <point x="446" y="793" type="line"/>
      <point x="460" y="786"/>
      <point x="491" y="774"/>
    </contour>
  </outline>
</glyph>
<glyph name="multiply" format="2">
  <advance width="600"/>
  <unicode hex="00D7"/>
  <outline>
    <contour>
      <point x="124" y="85" type="line"/>
      <point x="302" y="240" type="line"/>
      <point x="417" y="86" type="line"/>
      <point x="489" y="147" type="line"/>
      <point x="373" y="301" type="line"/>
      <point x="552" y="457" type="line"/>
      <point x="497" y="525" type="line"/>
      <point x="319" y="371" type="line"/>
      <point x="203" y="525" type="line"/>
      <point x="131" y="464" type="line"/>
      <point x="248" y="310" type="line"/>
      <point x="69" y="153" type="line"/>
    </contour>
  </outline>
</glyph>
<glyph name="Oslash" format="2">
  <advance width="687"/>
  <unicode hex="00D8"/>
  <outline>
    <contour>
      <point x="65" y="-52" type="line"/>
      <point x="145" y="41" type="line"/>
      <point x="212" y="-12"/>
      <point x="302" y="-12" type="qcurve"/>
      <point x="383" y="-12"/>
      <point x="515" y="61"/>
      <point x="562" y="123" type="qcurve"/>
      <point x="659" y="258"/>
      <point x="659" y="433" type="qcurve"/>
      <point x="659" y="531"/>
      <point x="623" y="592" type="qcurve"/>
      <point x="712" y="696" type="line"/>
      <point x="650" y="750" type="line"/>
      <point x="570" y="657" type="line"/>
      <point x="503" y="710"/>
      <point x="413" y="710" type="qcurve"/>
      <point x="332" y="710"/>
      <point x="201" y="638"/>
      <point x="154" y="576" type="qcurve"/>
      <point x="56" y="441"/>
      <point x="56" y="265" type="qcurve"/>
      <point x="56" y="168"/>
      <point x="92" y="106" type="qcurve"/>
      <point x="3" y="2" type="line"/>
    </contour>
    <contour>
      <point x="169" y="187" type="line"/>
      <point x="162" y="210"/>
      <point x="162" y="238" type="qcurve"/>
      <point x="162" y="267"/>
      <point x="169" y="301" type="qcurve"/>
      <point x="190" y="405" type="line"/>
      <point x="236" y="614"/>
      <point x="404" y="614" type="qcurve"/>
      <point x="469" y="614"/>
      <point x="508" y="577" type="qcurve"/>
    </contour>
    <contour>
      <point x="311" y="84" type="qcurve"/>
      <point x="247" y="84"/>
      <point x="207" y="121" type="qcurve"/>
      <point x="546" y="511" type="line"/>
      <point x="553" y="489"/>
      <point x="553" y="460" type="qcurve"/>
      <point x="553" y="432"/>
      <point x="546" y="397" type="qcurve"/>
      <point x="525" y="293" type="line"/>
      <point x="479" y="84"/>
    </contour>
  </outline>
</glyph>
<glyph name="Ugrave" format="2">
  <advance width="665"/>
  <unicode hex="00D9"/>
  <outline>
    <contour>
      <point x="292" y="-12" type="qcurve"/>
      <point x="418" y="-12"/>
      <point x="557" y="123"/>
      <point x="587" y="277" type="qcurve"/>
      <point x="671" y="698" type="line"/>
      <point x="563" y="698" type="line"/>
      <point x="479" y="278" type="line"/>
      <point x="459" y="177"/>
      <point x="373" y="88"/>
      <point x="300" y="88" type="qcurve"/>
      <point x="188" y="88"/>
      <point x="183" y="207" type="qcurve"/>
      <point x="183" y="239"/>
      <point x="192" y="275" type="qcurve"/>
      <point x="276" y="698" type="line"/>
      <point x="168" y="698" type="line"/>
      <point x="88" y="298" type="line"/>
      <point x="78" y="244"/>
      <point x="78" y="200" type="qcurve"/>
      <point x="78" y="97"/>
      <point x="189" y="-12"/>
    </contour>
    <contour>
      <point x="412" y="749" type="line"/>
      <point x="476" y="778" type="line"/>
      <point x="411" y="961" type="line"/>
      <point x="319" y="918" type="line"/>
    </contour>
  </outline>
</glyph>
<glyph name="Uacute" format="2">
  <advance width="665"/>
  <unicode hex="00DA"/>
  <outline>
    <contour>
      <point x="292" y="-12" type="qcurve"/>
      <point x="418" y="-12"/>
      <point x="557" y="123"/>
      <point x="587" y="277" type="qcurve"/>
      <point x="671" y="698" type="line"/>
      <point x="563" y="698" type="line"/>
      <point x="479" y="278" type="line"/>
      <point x="459" y="177"/>
      <point x="373" y="88"/>
      <point x="300" y="88" type="qcurve"/>
      <point x="188" y="88"/>
      <point x="183" y="207" type="qcurve"/>
      <point x="183" y="239"/>
      <point x="192" y="275" type="qcurve"/>
      <point x="276" y="698" type="line"/>
      <point x="168" y="698" type="line"/>
      <point x="88" y="298" type="line"/>
      <point x="78" y="244"/>
      <point x="78" y="200" type="qcurve"/>
      <point x="78" y="97"/>
      <point x="189" y="-12"/>
    </contour>
    <contour>
      <point x="440" y="749" type="line"/>
      <point x="573" y="916" type="line"/>
      <point x="486" y="962" type="line"/>
      <point x="376" y="783" type="line"/>
    </contour>
  </outline>
</glyph>
<glyph name="Udieresis" format="2">
  <advance width="665"/>
  <unicode hex="00DC"/>
  <outline>
    <contour>
      <point x="292" y="-12" type="qcurve"/>
      <point x="418" y="-12"/>
      <point x="557" y="123"/>
      <point x="587" y="277" type="qcurve"/>
      <point x="671" y="698" type="line"/>
      <point x="563" y="698" type="line"/>
      <point x="479" y="278" type="line"/>
      <point x="459" y="177"/>
      <point x="373" y="88"/>
      <point x="300" y="88" type="qcurve"/>
      <point x="188" y="88"/>
      <point x="183" y="207" type="qcurve"/>
      <point x="183" y="239"/>
      <point x="192" y="275" type="qcurve"/>
      <point x="276" y="698" type="line"/>
      <point x="168" y="698" type="line"/>
      <point x="88" y="298" type="line"/>
      <point x="78" y="244"/>
      <point x="78" y="200" type="qcurve"/>
      <point x="78" y="97"/>
      <point x="189" y="-12"/>
    </contour>
    <contour>
      <point x="334" y="776" type="qcurve"/>
      <point x="366" y="776"/>
      <point x="398" y="806"/>
      <point x="407" y="852"/>
      <point x="407" y="862" type="qcurve"/>
      <point x="407" y="902"/>
      <point x="358" y="902" type="qcurve"/>
      <point x="325" y="902"/>
      <point x="308" y="887" type="qcurve"/>
      <point x="293" y="871"/>
      <point x="283" y="826"/>
      <point x="283" y="816" type="qcurve"/>
      <point x="283" y="798"/>
      <point x="308" y="776"/>
    </contour>
    <contour>
      <point x="523" y="776" type="qcurve"/>
      <point x="555" y="776"/>
      <point x="587" y="806"/>
      <point x="596" y="852"/>
      <point x="596" y="862" type="qcurve"/>
      <point x="596" y="902"/>
      <point x="547" y="902" type="qcurve"/>
      <point x="514" y="902"/>
      <point x="497" y="887" type="qcurve"/>
      <point x="482" y="871"/>
      <point x="472" y="826"/>
      <point x="472" y="816" type="qcurve"/>
      <point x="472" y="798"/>
      <point x="497" y="776"/>
    </contour>
  </outline>
</glyph>
<glyph name="Yacute" format="2">
  <advance width="597"/>
  <unicode hex="00DD"/>
  <outline>
    <contour>
      <point x="299" y="0" type="line"/>
      <point x="353" y="267" type="line"/>
      <point x="672" y="698" type="line"/>
      <point x="550" y="698" type="line"/>
      <point x="321" y="377" type="line"/>
      <point x="316" y="377" type="line"/>
      <point x="209" y="698" type="line"/>
      <point x="99" y="698" type="line"/>
      <point x="246" y="272" type="line"/>
      <point x="191" y="0" type="line"/>
    </contour>
    <contour>
      <point x="397" y="749" type="line"/>
      <point x="530" y="916" type="line"/>
      <point x="443" y="962" type="line"/>
      <point x="333" y="783" type="line"/>
    </contour>
  </outline>
</glyph>
<glyph name="Thorn" format="2">
  <advance width="606"/>
  <unicode hex="00DE"/>
  <outline>
    <contour>
      <point x="139" y="0" type="line"/>
      <point x="168" y="145" type="line"/>
      <point x="344" y="145" type="line"/>
      <point x="457" y="145"/>
      <point x="593" y="283"/>
      <point x="593" y="389" type="qcurve"/>
      <point x="593" y="468"/>
      <point x="498" y="564"/>
      <point x="400" y="564" type="qcurve"/>
      <point x="253" y="564" type="line"/>
      <point x="280" y="698" type="line"/>
      <point x="171" y="698" type="line"/>
      <point x="31" y="0" type="line"/>
    </contour>
    <contour>
      <point x="358" y="242" type="qcurve"/>
      <point x="189" y="242" type="line"/>
      <point x="233" y="467" type="line"/>
      <point x="399" y="467" type="line"/>
      <point x="481" y="467"/>
      <point x="481" y="399" type="qcurve"/>
      <point x="481" y="383"/>
      <point x="474" y="353"/>
      <point x="469" y="330" type="qcurve"/>
      <point x="460" y="286"/>
      <point x="401" y="242"/>
    </contour>
  </outline>
</glyph>
<glyph name="ccedilla" format="2">
  <advance width="490"/>
  <unicode hex="00E7"/>
  <outline>
    <contour>
      <point x="216" y="-209" type="qcurve" smooth="yes"/>
      <point x="177" y="-209"/>
      <point x="123" y="-186"/>
      <point x="111" y="-168" type="qcurve"/>
      <point x="156" y="-123" type="line"/>
      <point x="163" y="-132"/>
      <point x="193" y="-149"/>
      <point x="215" y="-149" type="qcurve"/>
      <point x="262" y="-145"/>
      <point x="262" y="-115" type="qcurve" smooth="yes"/>
      <point x="262" y="-101"/>
      <point x="237" y="-80"/>
      <point x="203" y="-77" type="qcurve" smooth="yes"/>
      <point x="178" y="-75" type="line"/>
      <point x="201" y="-10" type="line"/>
      <point x="128" y="0"/>
      <point x="41" y="109"/>
      <point x="41" y="206" type="qcurve" smooth="yes"/>
      <point x="41" y="343"/>
      <point x="189" y="532"/>
      <point x="305" y="532" type="qcurve" smooth="yes"/>
      <point x="377" y="532"/>
      <point x="470" y="463"/>
      <point x="483" y="405" type="qcurve"/>
      <point x="396" y="370" type="line"/>
      <point x="385" y="405"/>
      <point x="342" y="444"/>
      <point x="300" y="444" type="qcurve" smooth="yes"/>
      <point x="192" y="444"/>
      <point x="166" y="313" type="qcurve" smooth="yes"/>
      <point x="149" y="227" type="line" smooth="yes"/>
      <point x="144" y="203"/>
      <point x="144" y="183" type="qcurve" smooth="yes"/>
      <point x="144" y="135"/>
      <point x="194" y="76"/>
      <point x="246" y="76" type="qcurve" smooth="yes"/>
      <point x="284" y="76"/>
      <point x="340" y="121"/>
      <point x="366" y="169" type="qcurve"/>
      <point x="446" y="131" type="line"/>
      <point x="384" y="1"/>
      <point x="258" y="-11" type="qcurve"/>
      <point x="241" y="-59" type="line"/>
      <point x="243" y="-62" type="line"/>
      <point x="257" y="-57"/>
      <point x="279" y="-57" type="qcurve" smooth="yes"/>
      <point x="305" y="-57"/>
      <point x="340" y="-84"/>
      <point x="340" y="-113" type="qcurve" smooth="yes"/>
      <point x="340" y="-159"/>
      <point x="270" y="-209"/>
    </contour>
  </outline>
</glyph>
<glyph name="egrave" format="2">
  <advance width="512"/>
  <unicode hex="00E8"/>
  <outline>
    <contour>
      <point x="248" y="-12" type="qcurve"/>
      <point x="309" y="-12"/>
      <point x="417" y="39"/>
      <point x="466" y="99" type="qcurve"/>
      <point x="400" y="154" type="line"/>
      <point x="341" y="76"/>
      <point x="255" y="76" type="qcurve"/>
      <point x="198" y="76"/>
      <point x="145" y="134"/>
      <point x="145" y="182" type="qcurve"/>
      <point x="145" y="196"/>
      <point x="148" y="215" type="qcurve"/>
      <point x="326" y="220"/>
      <point x="493" y="308"/>
      <point x="493" y="390" type="qcurve"/>
      <point x="493" y="461"/>
      <point x="437" y="499" type="qcurve"/>
      <point x="388" y="532"/>
      <point x="318" y="532" type="qcurve"/>
      <point x="255" y="532"/>
      <point x="153" y="480"/>
      <point x="117" y="434" type="qcurve"/>
      <point x="42" y="336"/>
      <point x="42" y="208" type="qcurve"/>
      <point x="42" y="103"/>
      <point x="147" y="-12"/>
    </contour>
    <contour>
      <point x="160" y="288" type="qcurve"/>
      <point x="165" y="314" type="line"/>
      <point x="178" y="377"/>
      <point x="256" y="449"/>
      <point x="310" y="449" type="qcurve"/>
      <point x="340" y="449"/>
      <point x="365" y="437" type="qcurve"/>
      <point x="390" y="423"/>
      <point x="390" y="385" type="qcurve"/>
      <point x="390" y="363"/>
      <point x="372" y="329"/>
      <point x="347" y="317" type="qcurve"/>
      <point x="299" y="294"/>
    </contour>
    <contour>
      <point x="315" y="582" type="line"/>
      <point x="379" y="611" type="line"/>
      <point x="315" y="794" type="line"/>
      <point x="222" y="750" type="line"/>
    </contour>
  </outline>
</glyph>
<glyph name="edieresis" format="2">
  <advance width="512"/>
  <unicode hex="00EB"/>
  <outline>
    <contour>
      <point x="248" y="-12" type="qcurve"/>
      <point x="309" y="-12"/>
      <point x="417" y="39"/>
      <point x="466" y="99" type="qcurve"/>
      <point x="400" y="154" type="line"/>
      <point x="341" y="76"/>
      <point x="255" y="76" type="qcurve"/>
      <point x="198" y="76"/>
      <point x="145" y="134"/>
      <point x="145" y="182" type="qcurve"/>
      <point x="145" y="196"/>
      <point x="148" y="215" type="qcurve"/>
      <point x="326" y="220"/>
      <point x="493" y="308"/>
      <point x="493" y="390" type="qcurve"/>
      <point x="493" y="461"/>
      <point x="437" y="499" type="qcurve"/>
      <point x="388" y="532"/>
      <point x="318" y="532" type="qcurve"/>
      <point x="255" y="532"/>
      <point x="153" y="480"/>
      <point x="117" y="434" type="qcurve"/>
      <point x="42" y="336"/>
      <point x="42" y="208" type="qcurve"/>
      <point x="42" y="103"/>
      <point x="147" y="-12"/>
    </contour>
    <contour>
      <point x="160" y="288" type="qcurve"/>
      <point x="165" y="314" type="line"/>
      <point x="178" y="377"/>
      <point x="256" y="449"/>
      <point x="310" y="449" type="qcurve"/>
      <point x="340" y="449"/>
      <point x="365" y="437" type="qcurve"/>
      <point x="390" y="423"/>
      <point x="390" y="385" type="qcurve"/>
      <point x="390" y="363"/>
      <point x="372" y="329"/>
      <point x="347" y="317" type="qcurve"/>
      <point x="299" y="294"/>
    </contour>
    <contour>
      <point x="243" y="610" type="qcurve"/>
      <point x="301" y="610"/>
      <point x="312" y="664" type="qcurve"/>
      <point x="316" y="688"/>
      <point x="316" y="694" type="qcurve"/>
      <point x="316" y="734"/>
      <point x="267" y="734" type="qcurve"/>
      <point x="234" y="734"/>
      <point x="217" y="719" type="qcurve"/>
      <point x="202" y="703"/>
      <point x="192" y="658"/>
      <point x="192" y="650" type="qcurve"/>
      <point x="192" y="632"/>
      <point x="217" y="610"/>
    </contour>
    <contour>
      <point x="432" y="610" type="qcurve"/>
      <point x="490" y="610"/>
      <point x="501" y="664" type="qcurve"/>
      <point x="505" y="688"/>
      <point x="505" y="694" type="qcurve"/>
      <point x="505" y="734"/>
      <point x="456" y="734" type="qcurve"/>
      <point x="423" y="734"/>
      <point x="406" y="719" type="qcurve"/>
      <point x="391" y="703"/>
      <point x="381" y="658"/>
      <point x="381" y="650" type="qcurve"/>
      <point x="381" y="632"/>
      <point x="406" y="610"/>
    </contour>
  </outline>
</glyph>
<glyph name="igrave" format="2">
  <advance width="271"/>
  <unicode hex="00EC"/>
  <outline>
    <contour>
      <point x="87" y="750" type="line"/>
      <point x="180" y="794" type="line"/>
      <point x="244" y="611" type="line"/>
      <point x="180" y="582" type="line"/>
    </contour>
    <contour>
      <point x="121" y="0" type="line" smooth="yes"/>
      <point x="83" y="0"/>
      <point x="43" y="39"/>
      <point x="43" y="71" type="qcurve" smooth="yes"/>
      <point x="43" y="82"/>
      <point x="45" y="93" type="qcurve" smooth="yes"/>
      <point x="131" y="520" type="line"/>
      <point x="235" y="520" type="line"/>
      <point x="148" y="87" type="line"/>
      <point x="215" y="87" type="line"/>
      <point x="198" y="0" type="line"/>
    </contour>
  </outline>
</glyph>
<glyph name="icircumflex" format="2">
  <advance width="271"/>
  <unicode hex="00EE"/>
  <outline>
    <contour>
      <point x="198" y="0" type="line"/>
      <point x="215" y="87" type="line"/>
      <point x="148" y="87" type="line"/>
      <point x="235" y="520" type="line"/>
      <point x="131" y="520" type="line"/>
      <point x="45" y="93" type="line"/>
      <point x="43" y="82"/>
      <point x="43" y="71" type="qcurve"/>
      <point x="43" y="39"/>
      <point x="83" y="0"/>
      <point x="121" y="0" type="qcurve"/>
    </contour>
    <contour>
      <point x="314" y="585" type="line"/>
      <point x="371" y="628" type="line"/>
      <point x="281" y="778" type="line"/>
      <point x="175" y="778" type="line"/>
      <point x="30" y="629" type="line"/>
      <point x="82" y="586" type="line"/>
      <point x="219" y="701" type="line"/>
    </contour>
  </outline>
</glyph>
<glyph name="eth" format="2">
  <advance width="567"/>
  <unicode hex="00F0"/>
  <outline>
    <contour>
      <point x="239" y="-12" type="qcurve"/>
      <point x="358" y="-12"/>
      <point x="439" y="81" type="qcurve"/>
      <point x="521" y="179"/>
      <point x="521" y="351" type="qcurve"/>
      <point x="521" y="530"/>
      <point x="429" y="649" type="qcurve"/>
      <point x="514" y="699" type="line"/>
      <point x="484" y="752" type="line"/>
      <point x="389" y="695" type="line"/>
      <point x="365" y="721"/>
      <point x="340" y="740" type="qcurve"/>
      <point x="191" y="740" type="line"/>
      <point x="251" y="706"/>
      <point x="306" y="648" type="qcurve"/>
      <point x="219" y="597" type="line"/>
      <point x="248" y="545" type="line"/>
      <point x="345" y="601" type="line"/>
      <point x="405" y="516"/>
      <point x="420" y="408" type="qcurve"/>
      <point x="413" y="407" type="line"/>
      <point x="399" y="452"/>
      <point x="331" y="502"/>
      <point x="278" y="502" type="qcurve"/>
      <point x="178" y="502"/>
      <point x="41" y="326"/>
      <point x="41" y="204" type="qcurve"/>
      <point x="41" y="104"/>
      <point x="145" y="-12"/>
    </contour>
    <contour>
      <point x="250" y="73" type="qcurve"/>
      <point x="201" y="73"/>
      <point x="145" y="128"/>
      <point x="145" y="177" type="qcurve"/>
      <point x="145" y="197"/>
      <point x="150" y="220" type="qcurve"/>
      <point x="162" y="277" type="line"/>
      <point x="177" y="342"/>
      <point x="247" y="417"/>
      <point x="299" y="417" type="qcurve"/>
      <point x="348" y="417"/>
      <point x="404" y="362"/>
      <point x="404" y="313" type="qcurve"/>
      <point x="404" y="294"/>
      <point x="399" y="270" type="qcurve"/>
      <point x="387" y="213" type="line"/>
      <point x="372" y="148"/>
      <point x="302" y="73"/>
    </contour>
  </outline>
</glyph>
<glyph name="ntilde" format="2">
  <advance width="573"/>
  <unicode hex="00F1"/>
  <outline>
    <contour>
      <point x="504" y="0" type="line"/>
      <point x="521" y="87" type="line"/>
      <point x="458" y="87" type="line"/>
      <point x="505" y="322" type="line"/>
      <point x="513" y="358"/>
      <point x="513" y="392" type="qcurve"/>
      <point x="513" y="458"/>
      <point x="448" y="532"/>
      <point x="383" y="532" type="qcurve"/>
      <point x="325" y="532"/>
      <point x="247" y="469"/>
      <point x="218" y="409" type="qcurve"/>
      <point x="213" y="409" type="line"/>
      <point x="235" y="520" type="line"/>
      <point x="131" y="520" type="line"/>
      <point x="27" y="0" type="line"/>
      <point x="131" y="0" type="line"/>
      <point x="187" y="280" type="line"/>
      <point x="197" y="335"/>
      <point x="278" y="442"/>
      <point x="338" y="442" type="qcurve"/>
      <point x="406" y="442"/>
      <point x="406" y="370" type="qcurve"/>
      <point x="406" y="345"/>
      <point x="400" y="315" type="qcurve"/>
      <point x="354" y="85" type="line"/>
      <point x="353" y="80"/>
      <point x="353" y="66" type="qcurve"/>
      <point x="353" y="2"/>
      <point x="425" y="0" type="qcurve"/>
    </contour>
    <contour>
      <point x="433" y="607" type="qcurve"/>
      <point x="468" y="607"/>
      <point x="519" y="639"/>
      <point x="539" y="664" type="qcurve"/>
      <point x="504" y="716" type="line"/>
      <point x="487" y="703"/>
      <point x="462" y="690"/>
      <point x="445" y="690" type="qcurve"/>
      <point x="417" y="690"/>
      <point x="377" y="713" type="qcurve"/>
      <point x="360" y="722"/>
      <point x="325" y="736"/>
      <point x="302" y="736" type="qcurve"/>
      <point x="267" y="736"/>
      <point x="216" y="704"/>
      <point x="196" y="679" type="qcurve"/>
      <point x="231" y="628" type="line"/>
      <point x="248" y="641"/>
      <point x="273" y="654"/>
      <point x="290" y="654" type="qcurve"/>
      <point x="319" y="654"/>
      <point x="358" y="631" type="qcurve"/>
      <point x="363" y="628" type="line"/>
      <point x="379" y="620"/>
      <point x="411" y="607"/>
    </contour>
  </outline>
</glyph>
<glyph name="ugrave" format="2">
  <advance width="570"/>
  <unicode hex="00F9"/>
  <outline>
    <contour>
      <point x="231" y="750" type="line"/>
      <point x="324" y="794" type="line"/>
      <point x="388" y="611" type="line"/>
      <point x="324" y="582" type="line"/>
    </contour>
    <contour>
      <point x="182" y="-12" type="qcurve" smooth="yes"/>
      <point x="118" y="-12"/>
      <point x="53" y="62"/>
      <point x="53" y="128" type="qcurve" smooth="yes"/>
      <point x="53" y="163"/>
      <point x="61" y="199" type="qcurve"/>
      <point x="125" y="520" type="line"/>
      <point x="229" y="520" type="line"/>
      <point x="166" y="204" type="line" smooth="yes"/>
      <point x="160" y="174"/>
      <point x="160" y="151" type="qcurve" smooth="yes"/>
      <point x="160" y="116"/>
      <point x="190" y="78"/>
      <point x="225" y="78" type="qcurve" smooth="yes"/>
      <point x="284" y="78"/>
      <point x="325" y="135" type="qcurve" smooth="yes"/>
      <point x="363" y="186"/>
      <point x="374" y="242" type="qcurve" smooth="yes"/>
      <point x="430" y="520" type="line"/>
      <point x="534" y="520" type="line"/>
      <point x="447" y="87" type="line"/>
      <point x="514" y="87" type="line"/>
      <point x="497" y="0" type="line"/>
      <point x="417" y="0" type="line"/>
      <point x="343" y="5"/>
      <point x="343" y="69" type="qcurve" smooth="yes"/>
      <point x="343" y="81"/>
      <point x="348" y="111" type="qcurve"/>
      <point x="343" y="111" type="line"/>
      <point x="314" y="51"/>
      <point x="238" y="-12"/>
    </contour>
  </outline>
</glyph>
<glyph name="Abreve" format="2">
  <advance width="638"/>
  <unicode hex="0102"/>
  <outline>
    <contour>
      <point x="565" y="0" type="line"/>
      <point x="477" y="698" type="line"/>
      <point x="337" y="698" type="line"/>
      <point x="-30" y="0" type="line"/>
      <point x="86" y="0" type="line"/>
      <point x="183" y="189" type="line"/>
      <point x="433" y="189" type="line"/>
      <point x="455" y="0" type="line"/>
    </contour>
    <contour>
      <point x="424" y="283" type="line"/>
      <point x="228" y="283" type="line"/>
      <point x="384" y="598" type="line"/>
      <point x="391" y="598" type="line"/>
    </contour>
    <contour>
      <point x="419" y="755" type="qcurve"/>
      <point x="489" y="755"/>
      <point x="539" y="804" type="qcurve"/>
      <point x="583" y="848"/>
      <point x="607" y="903" type="qcurve"/>
      <point x="544" y="934" type="line"/>
      <point x="522" y="904" type="line"/>
      <point x="477" y="833"/>
      <point x="423" y="833" type="qcurve"/>
      <point x="393" y="833"/>
      <point x="359" y="870"/>
      <point x="345" y="903" type="qcurve"/>
      <point x="331" y="934" type="line"/>
      <point x="271" y="905" type="line"/>
      <point x="277" y="852"/>
      <point x="310" y="805" type="qcurve"/>
      <point x="348" y="755"/>
    </contour>
  </outline>
</glyph>
<glyph name="Ccircumflex" format="2">
  <advance width="616"/>
  <unicode hex="0108"/>
  <outline>
    <contour>
      <point x="248" y="794" type="line"/>
      <point x="394" y="944" type="line"/>
      <point x="500" y="944" type="line"/>
      <point x="590" y="794" type="line"/>
      <point x="533" y="752" type="line"/>
      <point x="438" y="867" type="line"/>
      <point x="301" y="751" type="line"/>
    </contour>
    <contour>
      <point x="297" y="-12" type="qcurve" smooth="yes"/>
      <point x="191" y="-12"/>
      <point x="56" y="131"/>
      <point x="56" y="269" type="qcurve" smooth="yes"/>
      <point x="56" y="451"/>
      <point x="153" y="581" type="qcurve" smooth="yes"/>
      <point x="198" y="642"/>
      <point x="325" y="710"/>
      <point x="401" y="710" type="qcurve" smooth="yes"/>
      <point x="580" y="710"/>
      <point x="630" y="546" type="qcurve"/>
      <point x="533" y="504" type="line"/>
      <point x="519" y="555"/>
      <point x="453" y="613"/>
      <point x="392" y="613" type="qcurve" smooth="yes"/>
      <point x="316" y="613"/>
      <point x="212" y="508"/>
      <point x="193" y="418" type="qcurve" smooth="yes"/>
      <point x="170" y="305" type="line" smooth="yes"/>
      <point x="164" y="272"/>
      <point x="164" y="246" type="qcurve" smooth="yes"/>
      <point x="164" y="171"/>
      <point x="237" y="85"/>
      <point x="305" y="85" type="qcurve" smooth="yes"/>
      <point x="371" y="85"/>
      <point x="411" y="118" type="qcurve"/>
      <point x="452" y="149"/>
      <point x="481" y="204" type="qcurve"/>
      <point x="571" y="161" type="line"/>
      <point x="483" y="-12"/>
    </contour>
  </outline>
</glyph>
<glyph name="Cdotaccent" format="2">
  <advance width="616"/>
  <unicode hex="010A"/>
  <outline>
    <contour>
      <point x="421" y="772" type="qcurve" smooth="yes"/>
      <point x="365" y="772"/>
      <point x="365" y="817" type="qcurve" smooth="yes"/>
      <point x="365" y="822"/>
      <point x="367" y="831"/>
      <point x="368" y="841"/>
      <point x="370" y="848" type="qcurve" smooth="yes"/>
      <point x="375" y="874"/>
      <point x="407" y="904"/>
      <point x="442" y="904" type="qcurve" smooth="yes"/>
      <point x="498" y="904"/>
      <point x="498" y="859" type="qcurve" smooth="yes"/>
      <point x="498" y="855"/>
      <point x="496" y="845"/>
      <point x="495" y="835"/>
      <point x="493" y="828" type="qcurve" smooth="yes"/>
      <point x="488" y="802"/>
      <point x="456" y="772"/>
    </contour>
    <contour>
      <point x="297" y="-12" type="qcurve" smooth="yes"/>
      <point x="191" y="-12"/>
      <point x="56" y="131"/>
      <point x="56" y="269" type="qcurve" smooth="yes"/>
      <point x="56" y="451"/>
      <point x="153" y="581" type="qcurve" smooth="yes"/>
      <point x="198" y="642"/>
      <point x="325" y="710"/>
      <point x="401" y="710" type="qcurve" smooth="yes"/>
      <point x="580" y="710"/>
      <point x="630" y="546" type="qcurve"/>
      <point x="533" y="504" type="line"/>
      <point x="519" y="555"/>
      <point x="453" y="613"/>
      <point x="392" y="613" type="qcurve" smooth="yes"/>
      <point x="316" y="613"/>
      <point x="212" y="508"/>
      <point x="193" y="418" type="qcurve" smooth="yes"/>
      <point x="170" y="305" type="line" smooth="yes"/>
      <point x="164" y="272"/>
      <point x="164" y="246" type="qcurve" smooth="yes"/>
      <point x="164" y="171"/>
      <point x="237" y="85"/>
      <point x="305" y="85" type="qcurve" smooth="yes"/>
      <point x="371" y="85"/>
      <point x="411" y="118" type="qcurve"/>
      <point x="452" y="149"/>
      <point x="481" y="204" type="qcurve"/>
      <point x="571" y="161" type="line"/>
      <point x="483" y="-12"/>
    </contour>
  </outline>
</glyph>
<glyph name="cdotaccent" format="2">
  <advance width="491"/>
  <unicode hex="010B"/>
  <outline>
    <contour>
      <point x="326" y="605" type="qcurve" smooth="yes"/>
      <point x="270" y="605"/>
      <point x="270" y="650" type="qcurve" smooth="yes"/>
      <point x="270" y="655"/>
      <point x="272" y="664"/>
      <point x="273" y="674"/>
      <point x="275" y="681" type="qcurve" smooth="yes"/>
      <point x="280" y="707"/>
      <point x="312" y="737"/>
      <point x="347" y="737" type="qcurve" smooth="yes"/>
      <point x="403" y="737"/>
      <point x="403" y="692" type="qcurve" smooth="yes"/>
      <point x="403" y="688"/>
      <point x="401" y="678"/>
      <point x="400" y="668"/>
      <point x="398" y="661" type="qcurve" smooth="yes"/>
      <point x="393" y="635"/>
      <point x="361" y="605"/>
    </contour>
    <contour>
      <point x="237" y="-12" type="qcurve" smooth="yes"/>
      <point x="150" y="-12"/>
      <point x="42" y="99"/>
      <point x="42" y="206" type="qcurve" smooth="yes"/>
      <point x="42" y="343"/>
      <point x="190" y="532"/>
      <point x="306" y="532" type="qcurve" smooth="yes"/>
      <point x="378" y="532"/>
      <point x="471" y="463"/>
      <point x="484" y="405" type="qcurve"/>
      <point x="397" y="370" type="line"/>
      <point x="386" y="405"/>
      <point x="343" y="444"/>
      <point x="301" y="444" type="qcurve" smooth="yes"/>
      <point x="193" y="444"/>
      <point x="167" y="313" type="qcurve" smooth="yes"/>
      <point x="150" y="227" type="line" smooth="yes"/>
      <point x="145" y="203"/>
      <point x="145" y="183" type="qcurve" smooth="yes"/>
      <point x="145" y="135"/>
      <point x="195" y="76"/>
      <point x="247" y="76" type="qcurve" smooth="yes"/>
      <point x="285" y="76"/>
      <point x="341" y="121"/>
      <point x="367" y="169" type="qcurve"/>
      <point x="447" y="131" type="line"/>
      <point x="380" y="-12"/>
    </contour>
  </outline>
</glyph>
<glyph name="Ccaron" format="2">
  <advance width="616"/>
  <unicode hex="010C"/>
  <outline>
    <contour>
      <point x="297" y="-12" type="qcurve"/>
      <point x="483" y="-12"/>
      <point x="571" y="161" type="qcurve"/>
      <point x="481" y="204" type="line"/>
      <point x="452" y="149"/>
      <point x="411" y="118" type="qcurve"/>
      <point x="371" y="85"/>
      <point x="305" y="85" type="qcurve"/>
      <point x="237" y="85"/>
      <point x="164" y="171"/>
      <point x="164" y="246" type="qcurve"/>
      <point x="164" y="272"/>
      <point x="170" y="305" type="qcurve"/>
      <point x="193" y="418" type="line"/>
      <point x="212" y="508"/>
      <point x="316" y="613"/>
      <point x="392" y="613" type="qcurve"/>
      <point x="453" y="613"/>
      <point x="519" y="555"/>
      <point x="533" y="504" type="qcurve"/>
      <point x="630" y="546" type="line"/>
      <point x="580" y="710"/>
      <point x="401" y="710" type="qcurve"/>
      <point x="325" y="710"/>
      <point x="198" y="642"/>
      <point x="153" y="581" type="qcurve"/>
      <point x="56" y="451"/>
      <point x="56" y="269" type="qcurve"/>
      <point x="56" y="131"/>
      <point x="191" y="-12"/>
    </contour>
    <contour>
      <point x="471" y="760" type="line"/>
      <point x="617" y="910" type="line"/>
      <point x="563" y="953" type="line"/>
      <point x="424" y="837" type="line"/>
      <point x="331" y="953" type="line"/>
      <point x="274" y="910" type="line"/>
      <point x="365" y="760" type="line"/>
    </contour>
  </outline>
</glyph>
<glyph name="Dcaron" format="2">
  <advance width="665"/>
  <unicode hex="010E"/>
  <outline>
    <contour>
      <point x="281" y="0" type="line"/>
      <point x="366" y="0"/>
      <point x="499" y="69"/>
      <point x="544" y="130" type="qcurve"/>
      <point x="636" y="259"/>
      <point x="636" y="431" type="qcurve"/>
      <point x="636" y="563"/>
      <point x="502" y="698"/>
      <point x="385" y="698" type="qcurve"/>
      <point x="172" y="698" type="line"/>
      <point x="32" y="0" type="line"/>
    </contour>
    <contour>
      <point x="287" y="97" type="qcurve"/>
      <point x="160" y="97" type="line"/>
      <point x="261" y="601" type="line"/>
      <point x="387" y="601" type="line"/>
      <point x="450" y="601"/>
      <point x="525" y="529"/>
      <point x="525" y="454" type="qcurve"/>
      <point x="525" y="430"/>
      <point x="519" y="392" type="qcurve"/>
      <point x="499" y="292" type="line"/>
      <point x="478" y="195"/>
      <point x="368" y="97"/>
    </contour>
    <contour>
      <point x="451" y="760" type="line"/>
      <point x="597" y="910" type="line"/>
      <point x="543" y="953" type="line"/>
      <point x="404" y="837" type="line"/>
      <point x="311" y="953" type="line"/>
      <point x="254" y="910" type="line"/>
      <point x="345" y="760" type="line"/>
    </contour>
  </outline>
</glyph>
<glyph name="Dcroat" format="2">
  <advance width="669"/>
  <unicode hex="0110"/>
  <outline>
    <contour>
      <point x="284" y="0" type="line"/>
      <point x="369" y="0"/>
      <point x="502" y="69"/>
      <point x="548" y="130" type="qcurve"/>
      <point x="640" y="259"/>
      <point x="640" y="431" type="qcurve"/>
      <point x="640" y="563"/>
      <point x="506" y="698"/>
      <point x="389" y="698" type="qcurve"/>
      <point x="176" y="698" type="line"/>
      <point x="117" y="403" type="line"/>
      <point x="42" y="403" type="line"/>
      <point x="25" y="319" type="line"/>
      <point x="100" y="319" type="line"/>
      <point x="36" y="0" type="line"/>
    </contour>
    <contour>
      <point x="291" y="97" type="qcurve"/>
      <point x="164" y="97" type="line"/>
      <point x="209" y="319" type="line"/>
      <point x="333" y="319" type="line"/>
      <point x="350" y="403" type="line"/>
      <point x="226" y="403" type="line"/>
      <point x="265" y="601" type="line"/>
      <point x="390" y="601" type="line"/>
      <point x="454" y="601"/>
      <point x="529" y="529"/>
      <point x="529" y="454" type="qcurve"/>
      <point x="529" y="430"/>
      <point x="523" y="392" type="qcurve"/>
      <point x="503" y="292" type="line"/>
      <point x="482" y="195"/>
      <point x="372" y="97"/>
    </contour>
  </outline>
</glyph>
<glyph name="ebreve" format="2">
  <advance width="512"/>
  <unicode hex="0115"/>
  <outline>
    <contour>
      <point x="248" y="-12" type="qcurve"/>
      <point x="309" y="-12"/>
      <point x="417" y="39"/>
      <point x="466" y="99" type="qcurve"/>
      <point x="400" y="154" type="line"/>
      <point x="341" y="76"/>
      <point x="255" y="76" type="qcurve"/>
      <point x="198" y="76"/>
      <point x="145" y="134"/>
      <point x="145" y="182" type="qcurve"/>
      <point x="145" y="196"/>
      <point x="148" y="215" type="qcurve"/>
      <point x="326" y="220"/>
      <point x="493" y="308"/>
      <point x="493" y="390" type="qcurve"/>
      <point x="493" y="461"/>
      <point x="437" y="499" type="qcurve"/>
      <point x="388" y="532"/>
      <point x="318" y="532" type="qcurve"/>
      <point x="255" y="532"/>
      <point x="153" y="480"/>
      <point x="117" y="434" type="qcurve"/>
      <point x="42" y="336"/>
      <point x="42" y="208" type="qcurve"/>
      <point x="42" y="103"/>
      <point x="147" y="-12"/>
    </contour>
    <contour>
      <point x="160" y="288" type="qcurve"/>
      <point x="165" y="314" type="line"/>
      <point x="178" y="377"/>
      <point x="256" y="449"/>
      <point x="310" y="449" type="qcurve"/>
      <point x="340" y="449"/>
      <point x="365" y="437" type="qcurve"/>
      <point x="390" y="423"/>
      <point x="390" y="385" type="qcurve"/>
      <point x="390" y="363"/>
      <point x="372" y="329"/>
      <point x="347" y="317" type="qcurve"/>
      <point x="299" y="294"/>
    </contour>
    <contour>
      <point x="336" y="589" type="qcurve"/>
      <point x="454" y="589"/>
      <point x="525" y="737" type="qcurve"/>
      <point x="462" y="768" type="line"/>
      <point x="440" y="740" type="line"/>
      <point x="412" y="702"/>
      <point x="368" y="668"/>
      <point x="341" y="668" type="qcurve"/>
      <point x="311" y="668"/>
      <point x="277" y="705"/>
      <point x="263" y="739" type="qcurve"/>
      <point x="249" y="768" type="line"/>
      <point x="189" y="739" type="line"/>
      <point x="196" y="686"/>
      <point x="228" y="639" type="qcurve"/>
      <point x="265" y="589"/>
    </contour>
  </outline>
</glyph>
<glyph name="eogonek" format="2">
  <advance width="512"/>
  <unicode hex="0119"/>
  <outline>
    <contour>
      <point x="233" y="-209" type="qcurve" smooth="yes"/>
      <point x="191" y="-209"/>
      <point x="127" y="-171"/>
      <point x="127" y="-131" type="qcurve" smooth="yes"/>
      <point x="127" y="-57"/>
      <point x="241" y="-15" type="qcurve"/>
      <point x="240" y="-12" type="line"/>
      <point x="143" y="-9"/>
      <point x="42" y="105"/>
      <point x="42" y="208" type="qcurve" smooth="yes"/>
      <point x="42" y="336"/>
      <point x="117" y="434" type="qcurve" smooth="yes"/>
      <point x="153" y="480"/>
      <point x="255" y="532"/>
      <point x="318" y="532" type="qcurve" smooth="yes"/>
      <point x="388" y="532"/>
      <point x="437" y="499" type="qcurve" smooth="yes"/>
      <point x="493" y="461"/>
      <point x="493" y="390" type="qcurve" smooth="yes"/>
      <point x="493" y="308"/>
      <point x="326" y="220"/>
      <point x="148" y="215" type="qcurve"/>
      <point x="145" y="196"/>
      <point x="145" y="182" type="qcurve" smooth="yes"/>
      <point x="145" y="134"/>
      <point x="198" y="76"/>
      <point x="255" y="76" type="qcurve" smooth="yes"/>
      <point x="341" y="76"/>
      <point x="400" y="154" type="qcurve"/>
      <point x="466" y="99" type="line"/>
      <point x="430" y="54"/>
      <point x="396" y="33" type="qcurve" smooth="yes"/>
      <point x="383" y="25"/>
      <point x="369" y="18" type="qcurve" smooth="yes"/>
      <point x="342" y="4" type="line"/>
      <point x="342" y="4"/>
      <point x="342" y="4" type="qcurve"/>
      <point x="340" y="3" type="line"/>
      <point x="340" y="3"/>
      <point x="340" y="3" type="qcurve"/>
      <point x="338" y="2" type="line"/>
      <point x="338" y="2"/>
      <point x="338" y="2" type="qcurve"/>
      <point x="337" y="1" type="line"/>
      <point x="337" y="1"/>
      <point x="336" y="1" type="qcurve"/>
      <point x="335" y="0" type="line"/>
      <point x="335" y="0"/>
      <point x="335" y="0" type="qcurve"/>
      <point x="333" y="-1" type="line"/>
      <point x="333" y="-1"/>
      <point x="333" y="-1" type="qcurve"/>
      <point x="331" y="-2" type="line"/>
      <point x="331" y="-2"/>
      <point x="331" y="-2" type="qcurve"/>
      <point x="330" y="-3" type="line"/>
      <point x="329" y="-3"/>
      <point x="329" y="-3" type="qcurve"/>
      <point x="328" y="-4" type="line"/>
      <point x="328" y="-4"/>
      <point x="327" y="-4" type="qcurve"/>
      <point x="326" y="-5" type="line"/>
      <point x="326" y="-5"/>
      <point x="326" y="-5" type="qcurve"/>
      <point x="324" y="-6" type="line"/>
      <point x="324" y="-6"/>
      <point x="324" y="-6" type="qcurve"/>
      <point x="264" y="-38"/>
      <point x="210" y="-93"/>
      <point x="210" y="-117" type="qcurve" smooth="yes"/>
      <point x="210" y="-147"/>
      <point x="244" y="-147" type="qcurve" smooth="yes"/>
      <point x="273" y="-147"/>
      <point x="298" y="-120" type="qcurve"/>
      <point x="342" y="-167" type="line"/>
      <point x="305" y="-209"/>
    </contour>
    <contour>
      <point x="160" y="288" type="line"/>
      <point x="299" y="294"/>
      <point x="347" y="317" type="qcurve" smooth="yes"/>
      <point x="372" y="329"/>
      <point x="390" y="363"/>
      <point x="390" y="385" type="qcurve" smooth="yes"/>
      <point x="390" y="423"/>
      <point x="365" y="437" type="qcurve"/>
      <point x="340" y="449"/>
      <point x="310" y="449" type="qcurve" smooth="yes"/>
      <point x="256" y="449"/>
      <point x="178" y="377"/>
      <point x="165" y="314" type="qcurve" smooth="yes"/>
    </contour>
  </outline>
</glyph>
<glyph name="Gbreve" format="2">
  <advance width="616"/>
  <unicode hex="011E"/>
  <outline>
    <contour>
      <point x="429" y="759" type="qcurve" smooth="yes"/>
      <point x="378" y="759"/>
      <point x="320" y="806"/>
      <point x="293" y="872"/>
      <point x="288" y="902" type="qcurve"/>
      <point x="343" y="928" type="line"/>
      <point x="355" y="902" type="line" smooth="yes"/>
      <point x="371" y="868"/>
      <point x="403" y="830"/>
      <point x="432" y="830" type="qcurve" smooth="yes"/>
      <point x="459" y="830"/>
      <point x="503" y="864"/>
      <point x="532" y="902" type="qcurve" smooth="yes"/>
      <point x="552" y="928" type="line"/>
      <point x="608" y="901" type="line"/>
      <point x="593" y="871"/>
      <point x="547" y="804"/>
      <point x="479" y="759"/>
    </contour>
    <contour>
      <point x="605" y="370" type="line"/>
      <point x="582" y="253" type="line"/>
      <point x="550" y="116"/>
      <point x="398" y="-12"/>
      <point x="273" y="-12" type="qcurve" smooth="yes"/>
      <point x="225" y="-12"/>
      <point x="140" y="24"/>
      <point x="75" y="95"/>
      <point x="37" y="201"/>
      <point x="37" y="272" type="qcurve" smooth="yes"/>
      <point x="37" y="355"/>
      <point x="82" y="513"/>
      <point x="171" y="636"/>
      <point x="303" y="710"/>
      <point x="390" y="710" type="qcurve" smooth="yes"/>
      <point x="442" y="710"/>
      <point x="520" y="682"/>
      <point x="577" y="637"/>
      <point x="612" y="579"/>
      <point x="621" y="550" type="qcurve"/>
      <point x="529" y="504" type="line"/>
      <point x="524" y="527"/>
      <point x="501" y="569"/>
      <point x="464" y="600"/>
      <point x="412" y="619"/>
      <point x="378" y="619" type="qcurve" smooth="yes"/>
      <point x="296" y="619"/>
      <point x="188" y="510"/>
      <point x="170" y="417" type="qcurve" smooth="yes"/>
      <point x="152" y="322" type="line"/>
      <point x="147" y="303"/>
      <point x="141" y="262"/>
      <point x="141" y="244" type="qcurve" smooth="yes"/>
      <point x="141" y="171"/>
      <point x="218" y="79"/>
      <point x="287" y="79" type="qcurve" smooth="yes"/>
      <point x="355" y="79"/>
      <point x="457" y="152"/>
      <point x="472" y="227" type="qcurve" smooth="yes"/>
      <point x="483" y="277" type="line"/>
      <point x="307" y="277" type="line"/>
      <point x="326" y="370" type="line"/>
    </contour>
  </outline>
</glyph>
<glyph name="Gdotaccent" format="2">
  <advance width="616"/>
  <unicode hex="0120"/>
  <outline>
    <contour>
      <point x="430" y="778" type="qcurve" smooth="yes"/>
      <point x="405" y="778"/>
      <point x="379" y="800"/>
      <point x="379" y="819" type="qcurve" smooth="yes"/>
      <point x="379" y="824"/>
      <point x="381" y="834"/>
      <point x="383" y="845" type="qcurve" smooth="yes"/>
      <point x="388" y="870"/>
      <point x="418" y="897"/>
      <point x="449" y="897" type="qcurve" smooth="yes"/>
      <point x="474" y="897"/>
      <point x="499" y="876"/>
      <point x="499" y="856" type="qcurve" smooth="yes"/>
      <point x="499" y="852"/>
      <point x="498" y="841"/>
      <point x="495" y="830" type="qcurve"/>
      <point x="491" y="806"/>
      <point x="460" y="778"/>
    </contour>
    <contour>
      <point x="605" y="370" type="line"/>
      <point x="582" y="253" type="line"/>
      <point x="550" y="116"/>
      <point x="398" y="-12"/>
      <point x="273" y="-12" type="qcurve" smooth="yes"/>
      <point x="225" y="-12"/>
      <point x="140" y="24"/>
      <point x="75" y="95"/>
      <point x="37" y="201"/>
      <point x="37" y="272" type="qcurve" smooth="yes"/>
      <point x="37" y="355"/>
      <point x="82" y="513"/>
      <point x="171" y="636"/>
      <point x="303" y="710"/>
      <point x="390" y="710" type="qcurve" smooth="yes"/>
      <point x="442" y="710"/>
      <point x="520" y="682"/>
      <point x="577" y="637"/>
      <point x="612" y="579"/>
      <point x="621" y="550" type="qcurve"/>
      <point x="529" y="504" type="line"/>
      <point x="524" y="527"/>
      <point x="501" y="569"/>
      <point x="464" y="600"/>
      <point x="412" y="619"/>
      <point x="378" y="619" type="qcurve" smooth="yes"/>
      <point x="296" y="619"/>
      <point x="188" y="510"/>
      <point x="170" y="417" type="qcurve" smooth="yes"/>
      <point x="152" y="322" type="line"/>
      <point x="147" y="303"/>
      <point x="141" y="262"/>
      <point x="141" y="244" type="qcurve" smooth="yes"/>
      <point x="141" y="171"/>
      <point x="218" y="79"/>
      <point x="287" y="79" type="qcurve" smooth="yes"/>
      <point x="355" y="79"/>
      <point x="457" y="152"/>
      <point x="472" y="227" type="qcurve" smooth="yes"/>
      <point x="483" y="277" type="line"/>
      <point x="307" y="277" type="line"/>
      <point x="326" y="370" type="line"/>
    </contour>
  </outline>
</glyph>
<glyph name="gdotaccent" format="2">
  <advance width="566"/>
  <unicode hex="0121"/>
  <outline>
    <contour>
      <point x="347" y="605" type="qcurve"/>
      <point x="291" y="605"/>
      <point x="291" y="650" type="qcurve"/>
      <point x="291" y="657"/>
      <point x="301" y="707"/>
      <point x="334" y="737"/>
      <point x="368" y="737" type="qcurve"/>
      <point x="424" y="737"/>
      <point x="424" y="692" type="qcurve"/>
      <point x="424" y="685"/>
      <point x="414" y="635"/>
      <point x="382" y="605"/>
    </contour>
    <contour>
      <point x="202" y="-212" type="qcurve"/>
      <point x="66" y="-212"/>
      <point x="3" y="-121" type="qcurve"/>
      <point x="73" y="-59" type="line"/>
      <point x="114" y="-125"/>
      <point x="201" y="-125" type="qcurve"/>
      <point x="317" y="-125"/>
      <point x="344" y="12" type="qcurve"/>
      <point x="366" y="122" type="line"/>
      <point x="362" y="122" type="line"/>
      <point x="332" y="58"/>
      <point x="252" y="-6"/>
      <point x="193" y="-6" type="qcurve"/>
      <point x="122" y="-6"/>
      <point x="44" y="99"/>
      <point x="44" y="185" type="qcurve"/>
      <point x="44" y="276"/>
      <point x="103" y="434"/>
      <point x="214" y="532"/>
      <point x="291" y="532" type="qcurve"/>
      <point x="341" y="532"/>
      <point x="415" y="479"/>
      <point x="424" y="433" type="qcurve"/>
      <point x="429" y="433" type="line"/>
      <point x="446" y="520" type="line"/>
      <point x="550" y="520" type="line"/>
      <point x="447" y="4" type="line"/>
      <point x="427" y="-100"/>
      <point x="310" y="-212"/>
    </contour>
    <contour>
      <point x="235" y="83" type="qcurve"/>
      <point x="289" y="83"/>
      <point x="334" y="133" type="qcurve"/>
      <point x="377" y="179"/>
      <point x="391" y="248" type="qcurve"/>
      <point x="410" y="348"/>
      <point x="410" y="358" type="qcurve"/>
      <point x="410" y="387"/>
      <point x="370" y="443"/>
      <point x="310" y="443" type="qcurve"/>
      <point x="199" y="443"/>
      <point x="170" y="303" type="qcurve"/>
      <point x="156" y="236" type="line"/>
      <point x="151" y="208"/>
      <point x="151" y="182" type="qcurve"/>
      <point x="151" y="139"/>
      <point x="193" y="83"/>
    </contour>
  </outline>
</glyph>
<glyph name="Hcircumflex" format="2">
  <advance width="691"/>
  <unicode hex="0124"/>
  <outline>
    <contour>
      <point x="554" y="0" type="line"/>
      <point x="694" y="698" type="line"/>
      <point x="586" y="698" type="line"/>
      <point x="527" y="400" type="line"/>
      <point x="221" y="400" type="line"/>
      <point x="280" y="698" type="line"/>
      <point x="172" y="698" type="line"/>
      <point x="32" y="0" type="line"/>
      <point x="140" y="0" type="line"/>
      <point x="202" y="304" type="line"/>
      <point x="508" y="304" type="line"/>
      <point x="446" y="0" type="line"/>
    </contour>
    <contour>
      <point x="325" y="751" type="line"/>
      <point x="462" y="867" type="line"/>
      <point x="557" y="752" type="line"/>
      <point x="614" y="794" type="line"/>
      <point x="524" y="944" type="line"/>
      <point x="418" y="944" type="line"/>
      <point x="272" y="794" type="line"/>
    </contour>
  </outline>
</glyph>
<glyph name="hbar" format="2">
  <advance width="573"/>
  <unicode hex="0127"/>
  <outline>
    <contour>
      <point x="504" y="0" type="line"/>
      <point x="521" y="87" type="line"/>
      <point x="458" y="87" type="line"/>
      <point x="505" y="322" type="line"/>
      <point x="513" y="358"/>
      <point x="513" y="392" type="qcurve"/>
      <point x="513" y="458"/>
      <point x="448" y="532"/>
      <point x="383" y="532" type="qcurve"/>
      <point x="325" y="532"/>
      <point x="247" y="469"/>
      <point x="218" y="409" type="qcurve"/>
      <point x="213" y="409" type="line"/>
      <point x="251" y="600" type="line"/>
      <point x="394" y="600" type="line"/>
      <point x="409" y="676" type="line"/>
      <point x="266" y="676" type="line"/>
      <point x="279" y="740" type="line"/>
      <point x="175" y="740" type="line"/>
      <point x="162" y="676" type="line"/>
      <point x="97" y="676" type="line"/>
      <point x="82" y="600" type="line"/>
      <point x="147" y="600" type="line"/>
      <point x="27" y="0" type="line"/>
      <point x="131" y="0" type="line"/>
      <point x="187" y="280" type="line"/>
      <point x="200" y="347"/>
      <point x="247" y="398" type="qcurve"/>
      <point x="290" y="442"/>
      <point x="338" y="442" type="qcurve"/>
      <point x="406" y="442"/>
      <point x="406" y="370" type="qcurve"/>
      <point x="406" y="345"/>
      <point x="400" y="315" type="qcurve"/>
      <point x="355" y="90" type="line"/>
      <point x="353" y="78"/>
      <point x="353" y="66" type="qcurve"/>
      <point x="353" y="2"/>
      <point x="425" y="0" type="qcurve"/>
    </contour>
  </outline>
</glyph>
<glyph name="Imacron" format="2">
  <advance width="276"/>
  <unicode hex="012A"/>
  <outline>
    <contour>
      <point x="381" y="800" type="line"/>
      <point x="397" y="881" type="line"/>
      <point x="123" y="881" type="line"/>
      <point x="106" y="800" type="line"/>
    </contour>
    <contour>
      <point x="140" y="0" type="line"/>
      <point x="280" y="698" type="line"/>
      <point x="172" y="698" type="line"/>
      <point x="32" y="0" type="line"/>
    </contour>
  </outline>
</glyph>
<glyph name="imacron" format="2">
  <advance width="271"/>
  <unicode hex="012B"/>
  <outline>
    <contour>
      <point x="198" y="0" type="line"/>
      <point x="215" y="87" type="line"/>
      <point x="148" y="87" type="line"/>
      <point x="235" y="520" type="line"/>
      <point x="131" y="520" type="line"/>
      <point x="45" y="93" type="line"/>
      <point x="43" y="82"/>
      <point x="43" y="71" type="qcurve"/>
      <point x="43" y="39"/>
      <point x="83" y="0"/>
      <point x="121" y="0" type="qcurve"/>
    </contour>
    <contour>
      <point x="343" y="632" type="line"/>
      <point x="360" y="714" type="line"/>
      <point x="85" y="714" type="line"/>
      <point x="68" y="632" type="line"/>
    </contour>
  </outline>
</glyph>
<glyph name="iogonek" format="2">
  <advance width="271"/>
  <unicode hex="012F"/>
  <outline>
    <contour>
      <point x="103" y="-209" type="qcurve"/>
      <point x="176" y="-209"/>
      <point x="211" y="-167" type="qcurve"/>
      <point x="168" y="-120" type="line"/>
      <point x="143" y="-147"/>
      <point x="114" y="-147" type="qcurve"/>
      <point x="80" y="-147"/>
      <point x="80" y="-117" type="qcurve"/>
      <point x="80" y="-98"/>
      <point x="99" y="-76" type="qcurve"/>
      <point x="121" y="-51"/>
      <point x="198" y="0" type="qcurve"/>
      <point x="215" y="87" type="line"/>
      <point x="148" y="87" type="line"/>
      <point x="235" y="520" type="line"/>
      <point x="131" y="520" type="line"/>
      <point x="43" y="80"/>
      <point x="43" y="70" type="qcurve"/>
      <point x="43" y="39"/>
      <point x="83" y="0"/>
      <point x="121" y="0" type="qcurve"/>
      <point x="128" y="0" type="line"/>
      <point x="129" y="-5" type="line"/>
      <point x="-3" y="-51"/>
      <point x="-3" y="-131" type="qcurve"/>
      <point x="-3" y="-171"/>
      <point x="61" y="-209"/>
    </contour>
    <contour>
      <point x="204" y="613" type="qcurve"/>
      <point x="239" y="613"/>
      <point x="270" y="645"/>
      <point x="281" y="692"/>
      <point x="281" y="702" type="qcurve"/>
      <point x="281" y="720"/>
      <point x="255" y="744"/>
      <point x="226" y="744" type="qcurve"/>
      <point x="192" y="744"/>
      <point x="175" y="729" type="qcurve"/>
      <point x="160" y="712"/>
      <point x="149" y="665"/>
      <point x="149" y="655" type="qcurve"/>
      <point x="149" y="637"/>
      <point x="175" y="613"/>
    </contour>
  </outline>
</glyph>
<glyph name="dotlessi" format="2">
  <advance width="271"/>
  <unicode hex="0131"/>
  <outline>
    <contour>
      <point x="121" y="0" type="line" smooth="yes"/>
      <point x="83" y="0"/>
      <point x="43" y="39"/>
      <point x="43" y="71" type="qcurve" smooth="yes"/>
      <point x="43" y="82"/>
      <point x="45" y="93" type="qcurve" smooth="yes"/>
      <point x="131" y="520" type="line"/>
      <point x="235" y="520" type="line"/>
      <point x="148" y="87" type="line"/>
      <point x="215" y="87" type="line"/>
      <point x="198" y="0" type="line"/>
    </contour>
  </outline>
</glyph>
<glyph name="idotless" format="2">
  <advance width="271"/>
  <unicode hex="0131"/>
  <outline>
    <contour>
      <point x="198" y="0" type="line"/>
      <point x="215" y="87" type="line"/>
      <point x="148" y="87" type="line"/>
      <point x="235" y="520" type="line"/>
      <point x="131" y="520" type="line"/>
      <point x="45" y="93" type="line"/>
      <point x="43" y="82"/>
      <point x="43" y="71" type="qcurve"/>
      <point x="43" y="39"/>
      <point x="83" y="0"/>
      <point x="121" y="0" type="qcurve"/>
    </contour>
  </outline>
</glyph>
<glyph name="ij" format="2">
  <advance width="530"/>
  <unicode hex="0133"/>
  <outline>
    <contour>
      <point x="204" y="613" type="qcurve" smooth="yes"/>
      <point x="175" y="613"/>
      <point x="149" y="637"/>
      <point x="149" y="655" type="qcurve" smooth="yes"/>
      <point x="149" y="665"/>
      <point x="160" y="712"/>
      <point x="175" y="729" type="qcurve"/>
      <point x="192" y="744"/>
      <point x="226" y="744" type="qcurve" smooth="yes"/>
      <point x="255" y="744"/>
      <point x="281" y="720"/>
      <point x="281" y="702" type="qcurve" smooth="yes"/>
      <point x="281" y="692"/>
      <point x="270" y="645"/>
      <point x="239" y="613"/>
    </contour>
    <contour>
      <point x="473" y="613" type="qcurve" smooth="yes"/>
      <point x="444" y="613"/>
      <point x="418" y="637"/>
      <point x="418" y="655" type="qcurve" smooth="yes"/>
      <point x="418" y="665"/>
      <point x="429" y="712"/>
      <point x="444" y="729" type="qcurve"/>
      <point x="461" y="744"/>
      <point x="495" y="744" type="qcurve" smooth="yes"/>
      <point x="524" y="744"/>
      <point x="550" y="720"/>
      <point x="550" y="702" type="qcurve" smooth="yes"/>
      <point x="550" y="692"/>
      <point x="539" y="645"/>
      <point x="508" y="613"/>
    </contour>
    <contour>
      <point x="121" y="0" type="line" smooth="yes"/>
      <point x="83" y="0"/>
      <point x="43" y="39"/>
      <point x="43" y="70" type="qcurve" smooth="yes"/>
      <point x="43" y="80"/>
      <point x="131" y="520" type="qcurve"/>
      <point x="235" y="520" type="line"/>
      <point x="148" y="87" type="line"/>
      <point x="215" y="87" type="line"/>
      <point x="198" y="0" type="line"/>
    </contour>
    <contour>
      <point x="176" y="-200" type="line"/>
      <point x="193" y="-114" type="line"/>
      <point x="273" y="-114" type="line"/>
      <point x="400" y="520" type="line"/>
      <point x="504" y="520" type="line"/>
      <point x="383" y="-83" type="line"/>
      <point x="372" y="-142"/>
      <point x="310" y="-200"/>
      <point x="248" y="-200" type="qcurve" smooth="yes"/>
    </contour>
  </outline>
</glyph>
<glyph name="kcedilla" format="2">
  <advance width="532"/>
  <unicode hex="0137"/>
  <outline>
    <contour>
      <point x="468" y="0" type="line"/>
      <point x="485" y="87" type="line"/>
      <point x="422" y="87" type="line"/>
      <point x="331" y="310" type="line"/>
      <point x="554" y="520" type="line"/>
      <point x="431" y="520" type="line"/>
      <point x="278" y="377" type="line"/>
      <point x="195" y="289" type="line"/>
      <point x="189" y="289" type="line"/>
      <point x="279" y="740" type="line"/>
      <point x="175" y="740" type="line"/>
      <point x="27" y="0" type="line"/>
      <point x="131" y="0" type="line"/>
      <point x="163" y="162" type="line"/>
      <point x="249" y="243" type="line"/>
      <point x="320" y="65" type="line"/>
      <point x="341" y="0"/>
      <point x="411" y="0" type="qcurve"/>
    </contour>
    <contour>
      <point x="199" y="-258" type="line"/>
      <point x="259" y="-206"/>
      <point x="280" y="-124" type="qcurve"/>
      <point x="281" y="-117"/>
      <point x="283" y="-108"/>
      <point x="283" y="-99" type="qcurve"/>
      <point x="283" y="-56"/>
      <point x="234" y="-56" type="qcurve"/>
      <point x="180" y="-56"/>
      <point x="168" y="-109" type="qcurve"/>
      <point x="167" y="-113" type="line"/>
      <point x="165" y="-134" type="line"/>
      <point x="165" y="-165"/>
      <point x="197" y="-172" type="qcurve"/>
      <point x="186" y="-197"/>
      <point x="157" y="-236"/>
      <point x="131" y="-258" type="qcurve"/>
    </contour>
  </outline>
</glyph>
<glyph name="lacute" format="2">
  <advance width="270"/>
  <unicode hex="013A"/>
  <outline>
    <contour>
      <point x="189" y="816" type="line"/>
      <point x="299" y="995" type="line"/>
      <point x="386" y="949" type="line"/>
      <point x="252" y="782" type="line"/>
    </contour>
    <contour>
      <point x="120" y="0" type="line" smooth="yes"/>
      <point x="82" y="0"/>
      <point x="42" y="39"/>
      <point x="42" y="70" type="qcurve" smooth="yes"/>
      <point x="42" y="80"/>
      <point x="174" y="740" type="qcurve"/>
      <point x="278" y="740" type="line"/>
      <point x="147" y="87" type="line"/>
      <point x="219" y="87" type="line"/>
      <point x="202" y="0" type="line"/>
    </contour>
  </outline>
</glyph>
<glyph name="Lcedilla" format="2">
  <advance width="498"/>
  <unicode hex="013B"/>
  <outline>
    <contour>
      <point x="415" y="0" type="line"/>
      <point x="434" y="96" type="line"/>
      <point x="160" y="96" type="line"/>
      <point x="281" y="698" type="line"/>
      <point x="172" y="698" type="line"/>
      <point x="32" y="0" type="line"/>
    </contour>
    <contour>
      <point x="177" y="-258" type="line"/>
      <point x="237" y="-206"/>
      <point x="258" y="-124" type="qcurve"/>
      <point x="259" y="-117"/>
      <point x="261" y="-108"/>
      <point x="261" y="-99" type="qcurve"/>
      <point x="261" y="-56"/>
      <point x="212" y="-56" type="qcurve"/>
      <point x="158" y="-56"/>
      <point x="146" y="-109" type="qcurve"/>
      <point x="145" y="-113" type="line"/>
      <point x="143" y="-134" type="line"/>
      <point x="143" y="-165"/>
      <point x="175" y="-172" type="qcurve"/>
      <point x="164" y="-197"/>
      <point x="135" y="-236"/>
      <point x="109" y="-258" type="qcurve"/>
    </contour>
  </outline>
</glyph>
<glyph name="Lcaron" format="2">
  <advance width="498"/>
  <unicode hex="013D"/>
  <outline>
    <contour>
      <point x="415" y="0" type="line"/>
      <point x="434" y="96" type="line"/>
      <point x="160" y="96" type="line"/>
      <point x="281" y="698" type="line"/>
      <point x="172" y="698" type="line"/>
      <point x="32" y="0" type="line"/>
    </contour>
    <contour>
      <point x="396" y="542" type="line"/>
      <point x="486" y="740" type="line"/>
      <point x="366" y="740" type="line"/>
      <point x="324" y="542" type="line"/>
    </contour>
  </outline>
</glyph>
<glyph name="lcaron" format="2">
  <advance width="303"/>
  <unicode hex="013E"/>
  <outline>
    <contour>
      <point x="202" y="0" type="line"/>
      <point x="219" y="87" type="line"/>
      <point x="147" y="87" type="line"/>
      <point x="278" y="740" type="line"/>
      <point x="174" y="740" type="line"/>
      <point x="42" y="80"/>
      <point x="42" y="70" type="qcurve"/>
      <point x="42" y="39"/>
      <point x="82" y="0"/>
      <point x="120" y="0" type="qcurve"/>
    </contour>
    <contour>
      <point x="371" y="542" type="line"/>
      <point x="461" y="740" type="line"/>
      <point x="341" y="740" type="line"/>
      <point x="299" y="542" type="line"/>
    </contour>
  </outline>
</glyph>
<glyph name="Lmiddledot" format="2">
  <advance width="498"/>
  <unicode hex="013F"/>
  <outline>
    <contour>
      <point x="415" y="0" type="line"/>
      <point x="434" y="96" type="line"/>
      <point x="160" y="96" type="line"/>
      <point x="281" y="698" type="line"/>
      <point x="172" y="698" type="line"/>
      <point x="32" y="0" type="line"/>
    </contour>
    <contour>
      <point x="393" y="298" type="qcurve"/>
      <point x="428" y="298"/>
      <point x="460" y="328"/>
      <point x="465" y="354" type="qcurve"/>
      <point x="467" y="361"/>
      <point x="468" y="371"/>
      <point x="470" y="381"/>
      <point x="470" y="385" type="qcurve"/>
      <point x="470" y="430"/>
      <point x="414" y="430" type="qcurve"/>
      <point x="379" y="430"/>
      <point x="347" y="400"/>
      <point x="342" y="374" type="qcurve"/>
      <point x="340" y="367"/>
      <point x="339" y="357"/>
      <point x="337" y="348"/>
      <point x="337" y="343" type="qcurve"/>
      <point x="337" y="298"/>
    </contour>
  </outline>
</glyph>
<glyph name="ldot" format="2">
  <advance width="372"/>
  <unicode hex="0140"/>
  <outline>
    <contour>
      <point x="120" y="0" type="line" smooth="yes"/>
      <point x="82" y="0"/>
      <point x="42" y="39"/>
      <point x="42" y="70" type="qcurve" smooth="yes"/>
      <point x="42" y="80"/>
      <point x="174" y="740" type="qcurve"/>
      <point x="278" y="740" type="line"/>
      <point x="147" y="87" type="line"/>
      <point x="219" y="87" type="line"/>
      <point x="202" y="0" type="line"/>
    </contour>
    <contour>
      <point x="320" y="262" type="qcurve" smooth="yes"/>
      <point x="264" y="262"/>
      <point x="264" y="307" type="qcurve" smooth="yes"/>
      <point x="264" y="312"/>
      <point x="266" y="321"/>
      <point x="267" y="331"/>
      <point x="269" y="338" type="qcurve" smooth="yes"/>
      <point x="274" y="364"/>
      <point x="306" y="394"/>
      <point x="341" y="394" type="qcurve" smooth="yes"/>
      <point x="397" y="394"/>
      <point x="397" y="349" type="qcurve" smooth="yes"/>
      <point x="397" y="345"/>
      <point x="395" y="335"/>
      <point x="394" y="325"/>
      <point x="392" y="318" type="qcurve" smooth="yes"/>
      <point x="387" y="292"/>
      <point x="355" y="262"/>
    </contour>
  </outline>
</glyph>
<glyph name="lmiddledot" format="2">
  <advance width="372"/>
  <unicode hex="0140"/>
  <outline>
    <contour>
      <point x="202" y="0" type="line"/>
      <point x="219" y="87" type="line"/>
      <point x="147" y="87" type="line"/>
      <point x="278" y="740" type="line"/>
      <point x="174" y="740" type="line"/>
      <point x="42" y="80"/>
      <point x="42" y="70" type="qcurve"/>
      <point x="42" y="39"/>
      <point x="82" y="0"/>
      <point x="120" y="0" type="qcurve"/>
    </contour>
    <contour>
      <point x="320" y="262" type="qcurve"/>
      <point x="355" y="262"/>
      <point x="387" y="292"/>
      <point x="392" y="318" type="qcurve"/>
      <point x="394" y="325"/>
      <point x="395" y="335"/>
      <point x="397" y="345"/>
      <point x="397" y="349" type="qcurve"/>
      <point x="397" y="394"/>
      <point x="341" y="394" type="qcurve"/>
      <point x="306" y="394"/>
      <point x="274" y="364"/>
      <point x="269" y="338" type="qcurve"/>
      <point x="267" y="331"/>
      <point x="266" y="321"/>
      <point x="264" y="312"/>
      <point x="264" y="307" type="qcurve"/>
      <point x="264" y="262"/>
    </contour>
  </outline>
</glyph>
<glyph name="Lslash" format="2">
  <advance width="507"/>
  <unicode hex="0141"/>
  <outline>
    <contour>
      <point x="37" y="0" type="line"/>
      <point x="90" y="261" type="line"/>
      <point x="-5" y="232" type="line"/>
      <point x="12" y="319" type="line"/>
      <point x="107" y="349" type="line"/>
      <point x="177" y="698" type="line"/>
      <point x="285" y="698" type="line"/>
      <point x="223" y="384" type="line"/>
      <point x="402" y="441" type="line"/>
      <point x="384" y="350" type="line"/>
      <point x="205" y="295" type="line"/>
      <point x="165" y="96" type="line"/>
      <point x="438" y="96" type="line"/>
      <point x="419" y="0" type="line"/>
    </contour>
  </outline>
</glyph>
<glyph name="lslash" format="2">
  <advance width="282"/>
  <unicode hex="0142"/>
  <outline>
    <contour>
      <point x="203" y="0" type="line"/>
      <point x="220" y="87" type="line"/>
      <point x="148" y="87" type="line"/>
      <point x="200" y="349" type="line"/>
      <point x="306" y="383" type="line"/>
      <point x="323" y="468" type="line"/>
      <point x="217" y="433" type="line"/>
      <point x="278" y="740" type="line"/>
      <point x="174" y="740" type="line"/>
      <point x="105" y="396" type="line"/>
      <point x="33" y="372" type="line"/>
      <point x="16" y="288" type="line"/>
      <point x="88" y="311" type="line"/>
      <point x="42" y="80"/>
      <point x="42" y="70" type="qcurve"/>
      <point x="42" y="39"/>
      <point x="82" y="0"/>
      <point x="120" y="0" type="qcurve"/>
    </contour>
  </outline>
</glyph>
<glyph name="nacute" format="2">
  <advance width="573"/>
  <unicode hex="0144"/>
  <outline>
    <contour>
      <point x="504" y="0" type="line"/>
      <point x="521" y="87" type="line"/>
      <point x="458" y="87" type="line"/>
      <point x="505" y="322" type="line"/>
      <point x="513" y="358"/>
      <point x="513" y="392" type="qcurve"/>
      <point x="513" y="458"/>
      <point x="448" y="532"/>
      <point x="383" y="532" type="qcurve"/>
      <point x="325" y="532"/>
      <point x="247" y="469"/>
      <point x="218" y="409" type="qcurve"/>
      <point x="213" y="409" type="line"/>
      <point x="235" y="520" type="line"/>
      <point x="131" y="520" type="line"/>
      <point x="27" y="0" type="line"/>
      <point x="131" y="0" type="line"/>
      <point x="187" y="280" type="line"/>
      <point x="197" y="335"/>
      <point x="278" y="442"/>
      <point x="338" y="442" type="qcurve"/>
      <point x="406" y="442"/>
      <point x="406" y="370" type="qcurve"/>
      <point x="406" y="345"/>
      <point x="400" y="315" type="qcurve"/>
      <point x="354" y="85" type="line"/>
      <point x="353" y="80"/>
      <point x="353" y="66" type="qcurve"/>
      <point x="353" y="2"/>
      <point x="425" y="0" type="qcurve"/>
    </contour>
    <contour>
      <point x="368" y="582" type="line"/>
      <point x="502" y="749" type="line"/>
      <point x="415" y="795" type="line"/>
      <point x="305" y="616" type="line"/>
    </contour>
  </outline>
</glyph>
<glyph name="ncedilla" format="2">
  <advance width="573"/>
  <unicode hex="0146"/>
  <outline>
    <contour>
      <point x="504" y="0" type="line"/>
      <point x="521" y="87" type="line"/>
      <point x="458" y="87" type="line"/>
      <point x="505" y="322" type="line"/>
      <point x="513" y="358"/>
      <point x="513" y="392" type="qcurve"/>
      <point x="513" y="458"/>
      <point x="448" y="532"/>
      <point x="383" y="532" type="qcurve"/>
      <point x="325" y="532"/>
      <point x="247" y="469"/>
      <point x="218" y="409" type="qcurve"/>
      <point x="213" y="409" type="line"/>
      <point x="235" y="520" type="line"/>
      <point x="131" y="520" type="line"/>
      <point x="27" y="0" type="line"/>
      <point x="131" y="0" type="line"/>
      <point x="187" y="280" type="line"/>
      <point x="197" y="335"/>
      <point x="278" y="442"/>
      <point x="338" y="442" type="qcurve"/>
      <point x="406" y="442"/>
      <point x="406" y="370" type="qcurve"/>
      <point x="406" y="345"/>
      <point x="400" y="315" type="qcurve"/>
      <point x="354" y="85" type="line"/>
      <point x="353" y="80"/>
      <point x="353" y="66" type="qcurve"/>
      <point x="353" y="2"/>
      <point x="425" y="0" type="qcurve"/>
    </contour>
    <contour>
      <point x="210" y="-258" type="line"/>
      <point x="270" y="-206"/>
      <point x="291" y="-124" type="qcurve"/>
      <point x="292" y="-117"/>
      <point x="294" y="-108"/>
      <point x="294" y="-99" type="qcurve"/>
      <point x="294" y="-56"/>
      <point x="245" y="-56" type="qcurve"/>
      <point x="191" y="-56"/>
      <point x="179" y="-109" type="qcurve"/>
      <point x="178" y="-113" type="line"/>
      <point x="176" y="-134" type="line"/>
      <point x="176" y="-165"/>
      <point x="208" y="-172" type="qcurve"/>
      <point x="197" y="-197"/>
      <point x="168" y="-236"/>
      <point x="142" y="-258" type="qcurve"/>
    </contour>
  </outline>
</glyph>
<glyph name="ncaron" format="2">
  <advance width="573"/>
  <unicode hex="0148"/>
  <outline>
    <contour>
      <point x="301" y="594" type="line"/>
      <point x="211" y="744" type="line"/>
      <point x="268" y="786" type="line"/>
      <point x="360" y="670" type="line"/>
      <point x="499" y="786" type="line"/>
      <point x="553" y="744" type="line"/>
      <point x="408" y="594" type="line"/>
    </contour>
    <contour>
      <point x="425" y="0" type="line"/>
      <point x="353" y="2"/>
      <point x="353" y="66" type="qcurve" smooth="yes"/>
      <point x="353" y="80"/>
      <point x="354" y="85" type="qcurve" smooth="yes"/>
      <point x="400" y="315" type="line" smooth="yes"/>
      <point x="406" y="345"/>
      <point x="406" y="370" type="qcurve" smooth="yes"/>
      <point x="406" y="442"/>
      <point x="338" y="442" type="qcurve" smooth="yes"/>
      <point x="278" y="442"/>
      <point x="197" y="335"/>
      <point x="187" y="280" type="qcurve"/>
      <point x="131" y="0" type="line"/>
      <point x="27" y="0" type="line"/>
      <point x="131" y="520" type="line"/>
      <point x="235" y="520" type="line"/>
      <point x="213" y="409" type="line"/>
      <point x="218" y="409" type="line"/>
      <point x="247" y="469"/>
      <point x="325" y="532"/>
      <point x="383" y="532" type="qcurve" smooth="yes"/>
      <point x="448" y="532"/>
      <point x="513" y="458"/>
      <point x="513" y="392" type="qcurve" smooth="yes"/>
      <point x="513" y="358"/>
      <point x="505" y="322" type="qcurve"/>
      <point x="458" y="87" type="line"/>
      <point x="521" y="87" type="line"/>
      <point x="504" y="0" type="line"/>
    </contour>
  </outline>
</glyph>
<glyph name="napostrophe" format="2">
  <advance width="833"/>
  <unicode hex="0149"/>
  <outline>
    <contour>
      <point x="166" y="473" type="line"/>
      <point x="220" y="512"/>
      <point x="281" y="615"/>
      <point x="292" y="663" type="qcurve"/>
      <point x="297" y="682"/>
      <point x="297" y="699" type="qcurve"/>
      <point x="297" y="721"/>
      <point x="267" y="750"/>
      <point x="235" y="750" type="qcurve"/>
      <point x="170" y="750"/>
      <point x="157" y="687" type="qcurve"/>
      <point x="152" y="667"/>
      <point x="152" y="650" type="qcurve"/>
      <point x="152" y="613"/>
      <point x="193" y="604" type="qcurve"/>
      <point x="159" y="535"/>
      <point x="83" y="473" type="qcurve"/>
    </contour>
    <contour>
      <point x="764" y="0" type="line"/>
      <point x="781" y="87" type="line"/>
      <point x="718" y="87" type="line"/>
      <point x="765" y="322" type="line"/>
      <point x="773" y="358"/>
      <point x="773" y="392" type="qcurve"/>
      <point x="773" y="458"/>
      <point x="708" y="532"/>
      <point x="643" y="532" type="qcurve"/>
      <point x="585" y="532"/>
      <point x="507" y="469"/>
      <point x="478" y="409" type="qcurve"/>
      <point x="473" y="409" type="line"/>
      <point x="495" y="520" type="line"/>
      <point x="391" y="520" type="line"/>
      <point x="287" y="0" type="line"/>
      <point x="391" y="0" type="line"/>
      <point x="447" y="280" type="line"/>
      <point x="457" y="335"/>
      <point x="538" y="442"/>
      <point x="598" y="442" type="qcurve"/>
      <point x="666" y="442"/>
      <point x="666" y="370" type="qcurve"/>
      <point x="666" y="345"/>
      <point x="660" y="315" type="qcurve"/>
      <point x="614" y="85" type="line"/>
      <point x="613" y="80"/>
      <point x="613" y="66" type="qcurve"/>
      <point x="613" y="2"/>
      <point x="685" y="0" type="qcurve"/>
    </contour>
  </outline>
</glyph>
<glyph name="Eng" format="2">
  <advance width="691"/>
  <unicode hex="014A"/>
  <outline>
    <contour>
      <point x="401" y="-200" type="line"/>
      <point x="461" y="-200"/>
      <point x="526" y="-142"/>
      <point x="538" y="-80" type="qcurve"/>
      <point x="694" y="698" type="line"/>
      <point x="591" y="698" type="line"/>
      <point x="483" y="158" type="line"/>
      <point x="477" y="158" type="line"/>
      <point x="428" y="313" type="line"/>
      <point x="292" y="698" type="line"/>
      <point x="172" y="698" type="line"/>
      <point x="32" y="0" type="line"/>
      <point x="135" y="0" type="line"/>
      <point x="243" y="540" type="line"/>
      <point x="249" y="540" type="line"/>
      <point x="298" y="385" type="line"/>
      <point x="434" y="0" type="line"/>
      <point x="451" y="0" type="line"/>
      <point x="429" y="-112" type="line"/>
      <point x="341" y="-112" type="line"/>
      <point x="323" y="-200" type="line"/>
    </contour>
  </outline>
</glyph>
<glyph name="obreve" format="2">
  <advance width="548"/>
  <unicode hex="014F"/>
  <outline>
    <contour>
      <point x="332" y="589" type="qcurve" smooth="yes"/>
      <point x="261" y="589"/>
      <point x="224" y="639" type="qcurve"/>
      <point x="192" y="686"/>
      <point x="185" y="739" type="qcurve"/>
      <point x="245" y="768" type="line"/>
      <point x="259" y="739" type="line"/>
      <point x="273" y="705"/>
      <point x="307" y="668"/>
      <point x="337" y="668" type="qcurve" smooth="yes"/>
      <point x="364" y="668"/>
      <point x="408" y="702"/>
      <point x="436" y="740" type="qcurve"/>
      <point x="458" y="768" type="line"/>
      <point x="521" y="737" type="line"/>
      <point x="450" y="589"/>
    </contour>
    <contour>
      <point x="238" y="-12" type="qcurve" smooth="yes"/>
      <point x="150" y="-12"/>
      <point x="42" y="98"/>
      <point x="42" y="203" type="qcurve" smooth="yes"/>
      <point x="42" y="337"/>
      <point x="118" y="435" type="qcurve" smooth="yes"/>
      <point x="153" y="480"/>
      <point x="251" y="532"/>
      <point x="310" y="532" type="qcurve" smooth="yes"/>
      <point x="398" y="532"/>
      <point x="506" y="422"/>
      <point x="506" y="317" type="qcurve" smooth="yes"/>
      <point x="506" y="181"/>
      <point x="354" y="-12"/>
    </contour>
    <contour>
      <point x="246" y="76" type="qcurve" smooth="yes"/>
      <point x="295" y="76"/>
      <point x="367" y="148"/>
      <point x="382" y="217" type="qcurve" smooth="yes"/>
      <point x="399" y="300" type="line" smooth="yes"/>
      <point x="403" y="317"/>
      <point x="403" y="339" type="qcurve" smooth="yes"/>
      <point x="403" y="387"/>
      <point x="352" y="444"/>
      <point x="302" y="444" type="qcurve" smooth="yes"/>
      <point x="253" y="444"/>
      <point x="181" y="372"/>
      <point x="166" y="303" type="qcurve" smooth="yes"/>
      <point x="149" y="220" type="line"/>
      <point x="145" y="204"/>
      <point x="145" y="181" type="qcurve" smooth="yes"/>
      <point x="145" y="133"/>
      <point x="196" y="76"/>
    </contour>
  </outline>
</glyph>
<glyph name="racute" format="2">
  <advance width="377"/>
  <unicode hex="0155"/>
  <outline>
    <contour>
      <point x="224" y="616" type="line"/>
      <point x="334" y="795" type="line"/>
      <point x="421" y="749" type="line"/>
      <point x="287" y="582" type="line"/>
    </contour>
    <contour>
      <point x="27" y="0" type="line"/>
      <point x="131" y="520" type="line"/>
      <point x="235" y="520" type="line"/>
      <point x="213" y="409" type="line"/>
      <point x="219" y="409" type="line"/>
      <point x="237" y="452"/>
      <point x="274" y="485" type="qcurve"/>
      <point x="317" y="520"/>
      <point x="373" y="520" type="qcurve" smooth="yes"/>
      <point x="402" y="520" type="line"/>
      <point x="381" y="417" type="line"/>
      <point x="346" y="417" type="line" smooth="yes"/>
      <point x="213" y="417"/>
      <point x="190" y="294" type="qcurve"/>
      <point x="131" y="0" type="line"/>
    </contour>
  </outline>
</glyph>
<glyph name="uni0156" format="2">
  <advance width="638"/>
  <unicode hex="0156"/>
  <outline>
    <contour>
      <point x="420" y="0" type="line"/>
      <point x="336" y="283" type="line"/>
      <point x="197" y="283" type="line"/>
      <point x="140" y="0" type="line"/>
      <point x="32" y="0" type="line"/>
      <point x="172" y="698" type="line"/>
      <point x="431" y="698" type="line" smooth="yes"/>
      <point x="527" y="698"/>
      <point x="620" y="603"/>
      <point x="620" y="525" type="qcurve" smooth="yes"/>
      <point x="620" y="446"/>
      <point x="526" y="318"/>
      <point x="442" y="296" type="qcurve"/>
      <point x="536" y="0" type="line"/>
    </contour>
    <contour>
      <point x="385" y="375" type="line" smooth="yes"/>
      <point x="471" y="375"/>
      <point x="496" y="465" type="qcurve"/>
      <point x="508" y="514"/>
      <point x="508" y="533" type="qcurve" smooth="yes"/>
      <point x="508" y="602"/>
      <point x="426" y="602" type="qcurve" smooth="yes"/>
      <point x="261" y="602" type="line"/>
      <point x="216" y="375" type="line"/>
    </contour>
    <contour>
      <point x="163" y="-258" type="line"/>
      <point x="189" y="-236"/>
      <point x="218" y="-197"/>
      <point x="229" y="-172" type="qcurve"/>
      <point x="197" y="-165"/>
      <point x="197" y="-134" type="qcurve"/>
      <point x="200" y="-109" type="line"/>
      <point x="212" y="-56"/>
      <point x="266" y="-56" type="qcurve" smooth="yes"/>
      <point x="315" y="-56"/>
      <point x="315" y="-99" type="qcurve" smooth="yes"/>
      <point x="315" y="-108"/>
      <point x="313" y="-117"/>
      <point x="312" y="-124" type="qcurve"/>
      <point x="291" y="-206"/>
      <point x="231" y="-258" type="qcurve"/>
    </contour>
  </outline>
</glyph>
<glyph name="rcedilla" format="2">
  <advance width="377"/>
  <unicode hex="0157"/>
  <outline>
    <contour>
      <point x="131" y="0" type="line"/>
      <point x="190" y="294" type="line"/>
      <point x="213" y="417"/>
      <point x="346" y="417" type="qcurve"/>
      <point x="381" y="417" type="line"/>
      <point x="402" y="520" type="line"/>
      <point x="373" y="520" type="line"/>
      <point x="317" y="520"/>
      <point x="274" y="485" type="qcurve"/>
      <point x="237" y="452"/>
      <point x="219" y="409" type="qcurve"/>
      <point x="213" y="409" type="line"/>
      <point x="235" y="520" type="line"/>
      <point x="131" y="520" type="line"/>
      <point x="27" y="0" type="line"/>
    </contour>
    <contour>
      <point x="32" y="-258" type="line"/>
      <point x="92" y="-206"/>
      <point x="113" y="-124" type="qcurve"/>
      <point x="114" y="-117"/>
      <point x="116" y="-108"/>
      <point x="116" y="-99" type="qcurve"/>
      <point x="116" y="-56"/>
      <point x="67" y="-56" type="qcurve"/>
      <point x="13" y="-56"/>
      <point x="1" y="-109" type="qcurve"/>
      <point x="0" y="-113" type="line"/>
      <point x="-2" y="-134" type="line"/>
      <point x="-2" y="-165"/>
      <point x="30" y="-172" type="qcurve"/>
      <point x="19" y="-197"/>
      <point x="-10" y="-236"/>
      <point x="-36" y="-258" type="qcurve"/>
    </contour>
  </outline>
</glyph>
<glyph name="rcaron" format="2">
  <advance width="377"/>
  <unicode hex="0159"/>
  <outline>
    <contour>
      <point x="220" y="594" type="line"/>
      <point x="130" y="744" type="line"/>
      <point x="187" y="786" type="line"/>
      <point x="279" y="670" type="line"/>
      <point x="418" y="786" type="line"/>
      <point x="472" y="744" type="line"/>
      <point x="327" y="594" type="line"/>
    </contour>
    <contour>
      <point x="27" y="0" type="line"/>
      <point x="131" y="520" type="line"/>
      <point x="235" y="520" type="line"/>
      <point x="213" y="409" type="line"/>
      <point x="219" y="409" type="line"/>
      <point x="237" y="452"/>
      <point x="274" y="485" type="qcurve"/>
      <point x="317" y="520"/>
      <point x="373" y="520" type="qcurve" smooth="yes"/>
      <point x="402" y="520" type="line"/>
      <point x="381" y="417" type="line"/>
      <point x="346" y="417" type="line" smooth="yes"/>
      <point x="213" y="417"/>
      <point x="190" y="294" type="qcurve"/>
      <point x="131" y="0" type="line"/>
    </contour>
  </outline>
</glyph>
<glyph name="Tcaron" format="2">
  <advance width="561"/>
  <unicode hex="0164"/>
  <outline>
    <contour>
      <point x="329" y="760" type="line"/>
      <point x="238" y="910" type="line"/>
      <point x="295" y="953" type="line"/>
      <point x="388" y="837" type="line"/>
      <point x="527" y="953" type="line"/>
      <point x="581" y="910" type="line"/>
      <point x="435" y="760" type="line"/>
    </contour>
    <contour>
      <point x="174" y="0" type="line"/>
      <point x="294" y="602" type="line"/>
      <point x="94" y="602" type="line"/>
      <point x="113" y="698" type="line"/>
      <point x="622" y="698" type="line"/>
      <point x="603" y="602" type="line"/>
      <point x="403" y="602" type="line"/>
      <point x="282" y="0" type="line"/>
    </contour>
  </outline>
</glyph>
<glyph name="tcaron" format="2">
  <advance width="341"/>
  <unicode hex="0165"/>
  <outline>
    <contour>
      <point x="252" y="0" type="line"/>
      <point x="269" y="87" type="line"/>
      <point x="169" y="87" type="line"/>
      <point x="237" y="433" type="line"/>
      <point x="342" y="433" type="line"/>
      <point x="359" y="520" type="line"/>
      <point x="255" y="520" type="line"/>
      <point x="283" y="662" type="line"/>
      <point x="186" y="662" type="line"/>
      <point x="168" y="571" type="line"/>
      <point x="164" y="544"/>
      <point x="142" y="520"/>
      <point x="113" y="520" type="qcurve"/>
      <point x="74" y="520" type="line"/>
      <point x="57" y="433" type="line"/>
      <point x="134" y="433" type="line"/>
      <point x="70" y="117" type="line"/>
      <point x="66" y="96"/>
      <point x="66" y="79" type="qcurve"/>
      <point x="66" y="42"/>
      <point x="111" y="0"/>
      <point x="159" y="0" type="qcurve"/>
    </contour>
    <contour>
      <point x="393" y="571" type="line"/>
      <point x="483" y="769" type="line"/>
      <point x="363" y="769" type="line"/>
      <point x="321" y="571" type="line"/>
    </contour>
  </outline>
</glyph>
<glyph name="Tbar" format="2">
  <advance width="561"/>
  <unicode hex="0166"/>
  <outline>
    <contour>
      <point x="175" y="0" type="line"/>
      <point x="238" y="314" type="line"/>
      <point x="86" y="314" type="line"/>
      <point x="103" y="397" type="line"/>
      <point x="254" y="397" type="line"/>
      <point x="295" y="602" type="line"/>
      <point x="95" y="602" type="line"/>
      <point x="114" y="698" type="line"/>
      <point x="623" y="698" type="line"/>
      <point x="604" y="602" type="line"/>
      <point x="404" y="602" type="line"/>
      <point x="363" y="397" type="line"/>
      <point x="514" y="397" type="line"/>
      <point x="498" y="314" type="line"/>
      <point x="346" y="314" type="line"/>
      <point x="283" y="0" type="line"/>
    </contour>
  </outline>
</glyph>
<glyph name="tbar" format="2">
  <advance width="339"/>
  <unicode hex="0167"/>
  <outline>
    <contour>
      <point x="253" y="0" type="line"/>
      <point x="270" y="87" type="line"/>
      <point x="169" y="87" type="line"/>
      <point x="200" y="241" type="line"/>
      <point x="290" y="241" type="line"/>
      <point x="304" y="313" type="line"/>
      <point x="214" y="313" type="line"/>
      <point x="238" y="433" type="line"/>
      <point x="343" y="433" type="line"/>
      <point x="360" y="520" type="line"/>
      <point x="256" y="520" type="line"/>
      <point x="284" y="662" type="line"/>
      <point x="187" y="662" type="line"/>
      <point x="169" y="571" type="line"/>
      <point x="165" y="544"/>
      <point x="143" y="520"/>
      <point x="114" y="520" type="qcurve"/>
      <point x="75" y="520" type="line"/>
      <point x="58" y="433" type="line"/>
      <point x="134" y="433" type="line"/>
      <point x="110" y="313" type="line"/>
      <point x="55" y="313" type="line"/>
      <point x="41" y="241" type="line"/>
      <point x="96" y="241" type="line"/>
      <point x="71" y="117" type="line"/>
      <point x="67" y="96"/>
      <point x="67" y="79" type="qcurve"/>
      <point x="67" y="42"/>
      <point x="112" y="0"/>
      <point x="160" y="0" type="qcurve"/>
    </contour>
  </outline>
</glyph>
<glyph name="Utilde" format="2">
  <advance width="665"/>
  <unicode hex="0168"/>
  <outline>
    <contour>
      <point x="292" y="-12" type="qcurve"/>
      <point x="418" y="-12"/>
      <point x="557" y="123"/>
      <point x="587" y="277" type="qcurve"/>
      <point x="671" y="698" type="line"/>
      <point x="563" y="698" type="line"/>
      <point x="479" y="278" type="line"/>
      <point x="459" y="177"/>
      <point x="373" y="88"/>
      <point x="300" y="88" type="qcurve"/>
      <point x="188" y="88"/>
      <point x="183" y="207" type="qcurve"/>
      <point x="183" y="239"/>
      <point x="192" y="275" type="qcurve"/>
      <point x="276" y="698" type="line"/>
      <point x="168" y="698" type="line"/>
      <point x="88" y="298" type="line"/>
      <point x="78" y="244"/>
      <point x="78" y="200" type="qcurve"/>
      <point x="78" y="97"/>
      <point x="189" y="-12"/>
    </contour>
    <contour>
      <point x="506" y="774" type="qcurve"/>
      <point x="568" y="774"/>
      <point x="612" y="832" type="qcurve"/>
      <point x="578" y="883" type="line"/>
      <point x="561" y="870"/>
      <point x="536" y="857"/>
      <point x="519" y="857" type="qcurve"/>
      <point x="491" y="857"/>
      <point x="451" y="880" type="qcurve"/>
      <point x="433" y="890"/>
      <point x="398" y="904"/>
      <point x="375" y="904" type="qcurve"/>
      <point x="312" y="904"/>
      <point x="269" y="847" type="qcurve"/>
      <point x="303" y="795" type="line"/>
      <point x="320" y="808"/>
      <point x="346" y="821"/>
      <point x="362" y="821" type="qcurve"/>
      <point x="391" y="821"/>
      <point x="430" y="798" type="qcurve"/>
      <point x="440" y="793" type="line"/>
      <point x="454" y="786"/>
      <point x="485" y="774"/>
    </contour>
  </outline>
</glyph>
<glyph name="utilde" format="2">
  <advance width="570"/>
  <unicode hex="0169"/>
  <outline>
    <contour>
      <point x="423" y="607" type="qcurve" smooth="yes"/>
      <point x="401" y="607"/>
      <point x="369" y="620"/>
      <point x="353" y="628" type="qcurve"/>
      <point x="348" y="631" type="line" smooth="yes"/>
      <point x="309" y="654"/>
      <point x="280" y="654" type="qcurve" smooth="yes"/>
      <point x="263" y="654"/>
      <point x="238" y="641"/>
      <point x="221" y="628" type="qcurve"/>
      <point x="186" y="679" type="line"/>
      <point x="206" y="704"/>
      <point x="257" y="736"/>
      <point x="292" y="736" type="qcurve" smooth="yes"/>
      <point x="315" y="736"/>
      <point x="350" y="722"/>
      <point x="367" y="713" type="qcurve" smooth="yes"/>
      <point x="407" y="690"/>
      <point x="435" y="690" type="qcurve" smooth="yes"/>
      <point x="452" y="690"/>
      <point x="477" y="703"/>
      <point x="494" y="716" type="qcurve"/>
      <point x="529" y="664" type="line"/>
      <point x="509" y="639"/>
      <point x="458" y="607"/>
    </contour>
    <contour>
      <point x="182" y="-12" type="qcurve" smooth="yes"/>
      <point x="118" y="-12"/>
      <point x="53" y="62"/>
      <point x="53" y="128" type="qcurve" smooth="yes"/>
      <point x="53" y="163"/>
      <point x="61" y="199" type="qcurve"/>
      <point x="125" y="520" type="line"/>
      <point x="229" y="520" type="line"/>
      <point x="166" y="204" type="line" smooth="yes"/>
      <point x="160" y="174"/>
      <point x="160" y="151" type="qcurve" smooth="yes"/>
      <point x="160" y="116"/>
      <point x="190" y="78"/>
      <point x="225" y="78" type="qcurve" smooth="yes"/>
      <point x="284" y="78"/>
      <point x="325" y="135" type="qcurve" smooth="yes"/>
      <point x="363" y="186"/>
      <point x="374" y="242" type="qcurve" smooth="yes"/>
      <point x="430" y="520" type="line"/>
      <point x="534" y="520" type="line"/>
      <point x="447" y="87" type="line"/>
      <point x="514" y="87" type="line"/>
      <point x="497" y="0" type="line"/>
      <point x="417" y="0" type="line"/>
      <point x="343" y="5"/>
      <point x="343" y="69" type="qcurve" smooth="yes"/>
      <point x="343" y="81"/>
      <point x="348" y="111" type="qcurve"/>
      <point x="343" y="111" type="line"/>
      <point x="314" y="51"/>
      <point x="238" y="-12"/>
    </contour>
  </outline>
</glyph>
<glyph name="umacron" format="2">
  <advance width="570"/>
  <unicode hex="016B"/>
  <outline>
    <contour>
      <point x="212" y="632" type="line"/>
      <point x="229" y="714" type="line"/>
      <point x="504" y="714" type="line"/>
      <point x="487" y="632" type="line"/>
    </contour>
    <contour>
      <point x="182" y="-12" type="qcurve" smooth="yes"/>
      <point x="118" y="-12"/>
      <point x="53" y="62"/>
      <point x="53" y="128" type="qcurve" smooth="yes"/>
      <point x="53" y="163"/>
      <point x="61" y="199" type="qcurve"/>
      <point x="125" y="520" type="line"/>
      <point x="229" y="520" type="line"/>
      <point x="166" y="204" type="line" smooth="yes"/>
      <point x="160" y="174"/>
      <point x="160" y="151" type="qcurve" smooth="yes"/>
      <point x="160" y="116"/>
      <point x="190" y="78"/>
      <point x="225" y="78" type="qcurve" smooth="yes"/>
      <point x="284" y="78"/>
      <point x="325" y="135" type="qcurve" smooth="yes"/>
      <point x="363" y="186"/>
      <point x="374" y="242" type="qcurve" smooth="yes"/>
      <point x="430" y="520" type="line"/>
      <point x="534" y="520" type="line"/>
      <point x="447" y="87" type="line"/>
      <point x="514" y="87" type="line"/>
      <point x="497" y="0" type="line"/>
      <point x="417" y="0" type="line"/>
      <point x="343" y="5"/>
      <point x="343" y="69" type="qcurve" smooth="yes"/>
      <point x="343" y="81"/>
      <point x="348" y="111" type="qcurve"/>
      <point x="343" y="111" type="line"/>
      <point x="314" y="51"/>
      <point x="238" y="-12"/>
    </contour>
  </outline>
</glyph>
<glyph name="Ubreve" format="2">
  <advance width="665"/>
  <unicode hex="016C"/>
  <outline>
    <contour>
      <point x="430" y="755" type="qcurve" smooth="yes"/>
      <point x="359" y="755"/>
      <point x="321" y="805" type="qcurve"/>
      <point x="288" y="852"/>
      <point x="282" y="905" type="qcurve"/>
      <point x="342" y="934" type="line"/>
      <point x="356" y="903" type="line" smooth="yes"/>
      <point x="370" y="870"/>
      <point x="404" y="833"/>
      <point x="434" y="833" type="qcurve" smooth="yes"/>
      <point x="488" y="833"/>
      <point x="533" y="904" type="qcurve"/>
      <point x="555" y="934" type="line"/>
      <point x="618" y="903" type="line"/>
      <point x="594" y="848"/>
      <point x="550" y="804" type="qcurve" smooth="yes"/>
      <point x="500" y="755"/>
    </contour>
    <contour>
      <point x="292" y="-12" type="qcurve" smooth="yes"/>
      <point x="189" y="-12"/>
      <point x="78" y="97"/>
      <point x="78" y="200" type="qcurve" smooth="yes"/>
      <point x="78" y="244"/>
      <point x="88" y="298" type="qcurve"/>
      <point x="168" y="698" type="line"/>
      <point x="276" y="698" type="line"/>
      <point x="192" y="275" type="line"/>
      <point x="183" y="239"/>
      <point x="183" y="207" type="qcurve"/>
      <point x="188" y="88"/>
      <point x="300" y="88" type="qcurve" smooth="yes"/>
      <point x="373" y="88"/>
      <point x="459" y="177"/>
      <point x="479" y="278" type="qcurve" smooth="yes"/>
      <point x="563" y="698" type="line"/>
      <point x="671" y="698" type="line"/>
      <point x="587" y="277" type="line" smooth="yes"/>
      <point x="557" y="123"/>
      <point x="418" y="-12"/>
    </contour>
  </outline>
</glyph>
<glyph name="Uring" format="2">
  <advance width="665"/>
  <unicode hex="016E"/>
  <outline>
    <contour>
      <point x="292" y="-12" type="qcurve"/>
      <point x="418" y="-12"/>
      <point x="557" y="123"/>
      <point x="587" y="277" type="qcurve"/>
      <point x="671" y="698" type="line"/>
      <point x="563" y="698" type="line"/>
      <point x="479" y="278" type="line"/>
      <point x="459" y="177"/>
      <point x="373" y="88"/>
      <point x="300" y="88" type="qcurve"/>
      <point x="188" y="88"/>
      <point x="183" y="207" type="qcurve"/>
      <point x="183" y="239"/>
      <point x="192" y="275" type="qcurve"/>
      <point x="276" y="698" type="line"/>
      <point x="168" y="698" type="line"/>
      <point x="88" y="298" type="line"/>
      <point x="78" y="244"/>
      <point x="78" y="200" type="qcurve"/>
      <point x="78" y="97"/>
      <point x="189" y="-12"/>
    </contour>
    <contour>
      <point x="425" y="734" type="qcurve"/>
      <point x="487" y="734"/>
      <point x="570" y="813"/>
      <point x="570" y="879" type="qcurve"/>
      <point x="570" y="927"/>
      <point x="508" y="988"/>
      <point x="458" y="988" type="qcurve"/>
      <point x="397" y="988"/>
      <point x="313" y="909"/>
      <point x="313" y="843" type="qcurve"/>
      <point x="313" y="796"/>
      <point x="375" y="734"/>
    </contour>
    <contour>
      <point x="431" y="793" type="qcurve"/>
      <point x="385" y="793"/>
      <point x="385" y="835" type="qcurve"/>
      <point x="385" y="852"/>
      <point x="396" y="901"/>
      <point x="426" y="929"/>
      <point x="452" y="929" type="qcurve"/>
      <point x="498" y="929"/>
      <point x="498" y="889" type="qcurve"/>
      <point x="498" y="874"/>
      <point x="492" y="846" type="qcurve"/>
      <point x="481" y="793"/>
    </contour>
  </outline>
</glyph>
<glyph name="Uogonek" format="2">
  <advance width="665"/>
  <unicode hex="0172"/>
  <outline>
    <contour>
      <point x="287" y="-209" type="qcurve" smooth="yes"/>
      <point x="245" y="-209"/>
      <point x="182" y="-171"/>
      <point x="182" y="-131" type="qcurve" smooth="yes"/>
      <point x="182" y="-95"/>
      <point x="238" y="-35"/>
      <point x="293" y="-16" type="qcurve"/>
      <point x="292" y="-12" type="line"/>
      <point x="78" y="-4"/>
      <point x="78" y="200" type="qcurve" smooth="yes"/>
      <point x="78" y="244"/>
      <point x="88" y="298" type="qcurve"/>
      <point x="168" y="698" type="line"/>
      <point x="276" y="698" type="line"/>
      <point x="192" y="275" type="line"/>
      <point x="183" y="239"/>
      <point x="183" y="207" type="qcurve"/>
      <point x="188" y="88"/>
      <point x="300" y="88" type="qcurve" smooth="yes"/>
      <point x="373" y="88"/>
      <point x="459" y="177"/>
      <point x="479" y="278" type="qcurve" smooth="yes"/>
      <point x="563" y="698" type="line"/>
      <point x="671" y="698" type="line"/>
      <point x="587" y="277" type="line"/>
      <point x="555" y="122"/>
      <point x="501" y="71" type="qcurve"/>
      <point x="455" y="25"/>
      <point x="395" y="-1" type="qcurve"/>
      <point x="309" y="-44"/>
      <point x="285" y="-74" type="qcurve"/>
      <point x="265" y="-97"/>
      <point x="265" y="-117" type="qcurve" smooth="yes"/>
      <point x="265" y="-147"/>
      <point x="298" y="-147" type="qcurve" smooth="yes"/>
      <point x="331" y="-147"/>
      <point x="352" y="-120" type="qcurve"/>
      <point x="396" y="-167" type="line"/>
      <point x="359" y="-209"/>
    </contour>
  </outline>
</glyph>
<glyph name="uogonek" format="2">
  <advance width="570"/>
  <unicode hex="0173"/>
  <outline>
    <contour>
      <point x="401" y="-209" type="qcurve"/>
      <point x="473" y="-209"/>
      <point x="510" y="-167" type="qcurve"/>
      <point x="466" y="-120" type="line"/>
      <point x="445" y="-147"/>
      <point x="412" y="-147" type="qcurve"/>
      <point x="379" y="-147"/>
      <point x="379" y="-117" type="qcurve"/>
      <point x="379" y="-98"/>
      <point x="398" y="-76" type="qcurve"/>
      <point x="420" y="-51"/>
      <point x="497" y="0" type="qcurve"/>
      <point x="514" y="87" type="line"/>
      <point x="447" y="87" type="line"/>
      <point x="534" y="520" type="line"/>
      <point x="430" y="520" type="line"/>
      <point x="374" y="242" type="line"/>
      <point x="363" y="185"/>
      <point x="325" y="134" type="qcurve"/>
      <point x="284" y="78"/>
      <point x="225" y="78" type="qcurve"/>
      <point x="190" y="78"/>
      <point x="160" y="116"/>
      <point x="160" y="151" type="qcurve"/>
      <point x="160" y="174"/>
      <point x="166" y="204" type="qcurve"/>
      <point x="229" y="520" type="line"/>
      <point x="125" y="520" type="line"/>
      <point x="61" y="199" type="line"/>
      <point x="53" y="163"/>
      <point x="53" y="128" type="qcurve"/>
      <point x="53" y="62"/>
      <point x="118" y="-12"/>
      <point x="182" y="-12" type="qcurve"/>
      <point x="238" y="-12"/>
      <point x="314" y="51"/>
      <point x="343" y="111" type="qcurve"/>
      <point x="348" y="111" type="line"/>
      <point x="346" y="98" type="line"/>
      <point x="342" y="86"/>
      <point x="342" y="69" type="qcurve"/>
      <point x="342" y="5"/>
      <point x="421" y="0" type="qcurve"/>
      <point x="422" y="-5" type="line"/>
      <point x="296" y="-48"/>
      <point x="296" y="-131" type="qcurve"/>
      <point x="296" y="-171"/>
      <point x="359" y="-209"/>
    </contour>
  </outline>
</glyph>
<glyph name="Wcircumflex" format="2">
  <advance width="896"/>
  <unicode hex="0174"/>
  <outline>
    <contour>
      <point x="658" y="0" type="line"/>
      <point x="961" y="698" type="line"/>
      <point x="851" y="698" type="line"/>
      <point x="715" y="364" type="line"/>
      <point x="617" y="116" type="line"/>
      <point x="610" y="116" type="line"/>
      <point x="605" y="409" type="line"/>
      <point x="594" y="698" type="line"/>
      <point x="471" y="698" type="line"/>
      <point x="345" y="410" type="line"/>
      <point x="225" y="119" type="line"/>
      <point x="218" y="119" type="line"/>
      <point x="219" y="376" type="line"/>
      <point x="216" y="698" type="line"/>
      <point x="109" y="698" type="line"/>
      <point x="131" y="0" type="line"/>
      <point x="258" y="0" type="line"/>
      <point x="507" y="576" type="line"/>
      <point x="513" y="576" type="line"/>
      <point x="519" y="335" type="line"/>
      <point x="533" y="0" type="line"/>
    </contour>
    <contour>
      <point x="426" y="751" type="line"/>
      <point x="563" y="867" type="line"/>
      <point x="658" y="752" type="line"/>
      <point x="715" y="794" type="line"/>
      <point x="625" y="944" type="line"/>
      <point x="519" y="944" type="line"/>
      <point x="373" y="794" type="line"/>
    </contour>
  </outline>
</glyph>
<glyph name="Ycircumflex" format="2">
  <advance width="597"/>
  <unicode hex="0176"/>
  <outline>
    <contour>
      <point x="299" y="0" type="line"/>
      <point x="353" y="267" type="line"/>
      <point x="672" y="698" type="line"/>
      <point x="550" y="698" type="line"/>
      <point x="321" y="377" type="line"/>
      <point x="316" y="377" type="line"/>
      <point x="209" y="698" type="line"/>
      <point x="99" y="698" type="line"/>
      <point x="246" y="272" type="line"/>
      <point x="191" y="0" type="line"/>
    </contour>
    <contour>
      <point x="267" y="751" type="line"/>
      <point x="404" y="867" type="line"/>
      <point x="499" y="752" type="line"/>
      <point x="556" y="794" type="line"/>
      <point x="466" y="944" type="line"/>
      <point x="360" y="944" type="line"/>
      <point x="214" y="794" type="line"/>
    </contour>
  </outline>
</glyph>
<glyph name="Ydieresis" format="2">
  <advance width="597"/>
  <unicode hex="0178"/>
  <outline>
    <contour>
      <point x="299" y="0" type="line"/>
      <point x="353" y="267" type="line"/>
      <point x="672" y="698" type="line"/>
      <point x="550" y="698" type="line"/>
      <point x="321" y="377" type="line"/>
      <point x="316" y="377" type="line"/>
      <point x="209" y="698" type="line"/>
      <point x="99" y="698" type="line"/>
      <point x="246" y="272" type="line"/>
      <point x="191" y="0" type="line"/>
    </contour>
    <contour>
      <point x="291" y="776" type="qcurve"/>
      <point x="323" y="776"/>
      <point x="355" y="806"/>
      <point x="364" y="852"/>
      <point x="364" y="862" type="qcurve"/>
      <point x="364" y="902"/>
      <point x="315" y="902" type="qcurve"/>
      <point x="282" y="902"/>
      <point x="265" y="887" type="qcurve"/>
      <point x="250" y="871"/>
      <point x="240" y="826"/>
      <point x="240" y="816" type="qcurve"/>
      <point x="240" y="798"/>
      <point x="265" y="776"/>
    </contour>
    <contour>
      <point x="480" y="776" type="qcurve"/>
      <point x="512" y="776"/>
      <point x="544" y="806"/>
      <point x="553" y="852"/>
      <point x="553" y="862" type="qcurve"/>
      <point x="553" y="902"/>
      <point x="504" y="902" type="qcurve"/>
      <point x="471" y="902"/>
      <point x="454" y="887" type="qcurve"/>
      <point x="439" y="871"/>
      <point x="429" y="826"/>
      <point x="429" y="816" type="qcurve"/>
      <point x="429" y="798"/>
      <point x="454" y="776"/>
    </contour>
  </outline>
</glyph>
<glyph name="zacute" format="2">
  <advance width="466"/>
  <unicode hex="017A"/>
  <outline>
    <contour>
      <point x="387" y="0" type="line"/>
      <point x="404" y="86" type="line"/>
      <point x="133" y="86" type="line"/>
      <point x="460" y="434" type="line"/>
      <point x="477" y="520" type="line"/>
      <point x="96" y="520" type="line"/>
      <point x="79" y="434" type="line"/>
      <point x="335" y="434" type="line"/>
      <point x="9" y="86" type="line"/>
      <point x="-8" y="0" type="line"/>
    </contour>
    <contour>
      <point x="316" y="582" type="line"/>
      <point x="450" y="749" type="line"/>
      <point x="363" y="795" type="line"/>
      <point x="253" y="616" type="line"/>
    </contour>
  </outline>
</glyph>
<glyph name="Zcaron" format="2">
  <advance width="566"/>
  <unicode hex="017D"/>
  <outline>
    <contour>
      <point x="325" y="760" type="line"/>
      <point x="234" y="910" type="line"/>
      <point x="291" y="953" type="line"/>
      <point x="384" y="837" type="line"/>
      <point x="523" y="953" type="line"/>
      <point x="577" y="910" type="line"/>
      <point x="431" y="760" type="line"/>
    </contour>
    <contour>
      <point x="-13" y="0" type="line"/>
      <point x="7" y="99" type="line"/>
      <point x="463" y="602" type="line"/>
      <point x="119" y="602" type="line"/>
      <point x="138" y="698" type="line"/>
      <point x="611" y="698" type="line"/>
      <point x="591" y="599" type="line"/>
      <point x="135" y="96" type="line"/>
      <point x="497" y="96" type="line"/>
      <point x="478" y="0" type="line"/>
    </contour>
  </outline>
</glyph>
<glyph name="zcaron" format="2">
  <advance width="466"/>
  <unicode hex="017E"/>
  <outline>
    <contour>
      <point x="387" y="0" type="line"/>
      <point x="404" y="86" type="line"/>
      <point x="133" y="86" type="line"/>
      <point x="460" y="434" type="line"/>
      <point x="477" y="520" type="line"/>
      <point x="96" y="520" type="line"/>
      <point x="79" y="434" type="line"/>
      <point x="335" y="434" type="line"/>
      <point x="9" y="86" type="line"/>
      <point x="-8" y="0" type="line"/>
    </contour>
    <contour>
      <point x="356" y="594" type="line"/>
      <point x="501" y="744" type="line"/>
      <point x="447" y="786" type="line"/>
      <point x="308" y="670" type="line"/>
      <point x="216" y="786" type="line"/>
      <point x="159" y="744" type="line"/>
      <point x="249" y="594" type="line"/>
    </contour>
  </outline>
</glyph>
<glyph name="fhook" format="2">
  <advance width="478"/>
  <unicode hex="0192"/>
  <outline>
    <contour>
      <point x="41" y="-134" type="line"/>
      <point x="107" y="-134"/>
      <point x="185" y="-71"/>
      <point x="202" y="-10" type="qcurve"/>
      <point x="281" y="281" type="line"/>
      <point x="440" y="281" type="line"/>
      <point x="458" y="371" type="line"/>
      <point x="306" y="371" type="line"/>
      <point x="370" y="611" type="line"/>
      <point x="509" y="611" type="line"/>
      <point x="527" y="698" type="line"/>
      <point x="414" y="698" type="line"/>
      <point x="287" y="698"/>
      <point x="254" y="573" type="qcurve"/>
      <point x="199" y="371" type="line"/>
      <point x="78" y="371" type="line"/>
      <point x="60" y="281" type="line"/>
      <point x="173" y="281" type="line"/>
      <point x="84" y="-47" type="line"/>
      <point x="-47" y="-47" type="line"/>
      <point x="-65" y="-134" type="line"/>
    </contour>
  </outline>
</glyph>
<glyph name="Uhorn" format="2">
  <advance width="665"/>
  <unicode hex="01AF"/>
  <outline>
    <contour>
      <point x="292" y="-12" type="qcurve" smooth="yes"/>
      <point x="189" y="-12"/>
      <point x="78" y="97"/>
      <point x="78" y="200" type="qcurve" smooth="yes"/>
      <point x="78" y="244"/>
      <point x="88" y="298" type="qcurve"/>
      <point x="168" y="698" type="line"/>
      <point x="276" y="698" type="line"/>
      <point x="192" y="275" type="line"/>
      <point x="183" y="239"/>
      <point x="183" y="207" type="qcurve"/>
      <point x="188" y="88"/>
      <point x="300" y="88" type="qcurve" smooth="yes"/>
      <point x="373" y="88"/>
      <point x="459" y="177"/>
      <point x="479" y="278" type="qcurve" smooth="yes"/>
      <point x="563" y="698" type="line"/>
      <point x="654" y="698" type="line"/>
      <point x="676" y="807" type="line"/>
      <point x="768" y="807" type="line"/>
      <point x="748" y="707" type="line" smooth="yes"/>
      <point x="740" y="668"/>
      <point x="705" y="630"/>
      <point x="668" y="630" type="qcurve" smooth="yes"/>
      <point x="656" y="630" type="line"/>
      <point x="587" y="277" type="line"/>
      <point x="558" y="123"/>
      <point x="418" y="-12"/>
    </contour>
  </outline>
</glyph>
<glyph name="Aringacute" format="2">
  <advance width="638"/>
  <unicode hex="01FA"/>
  <outline>
    <contour>
      <point x="565" y="0" type="line"/>
      <point x="477" y="698" type="line"/>
      <point x="337" y="698" type="line"/>
      <point x="-30" y="0" type="line"/>
      <point x="86" y="0" type="line"/>
      <point x="183" y="189" type="line"/>
      <point x="433" y="189" type="line"/>
      <point x="455" y="0" type="line"/>
    </contour>
    <contour>
      <point x="424" y="283" type="line"/>
      <point x="228" y="283" type="line"/>
      <point x="384" y="598" type="line"/>
      <point x="391" y="598" type="line"/>
    </contour>
    <contour>
      <point x="458" y="981" type="line"/>
      <point x="587" y="1082" type="line"/>
      <point x="530" y="1137" type="line"/>
      <point x="417" y="1021" type="line"/>
    </contour>
    <contour>
      <point x="415" y="731" type="qcurve"/>
      <point x="477" y="731"/>
      <point x="520" y="767" type="qcurve"/>
      <point x="561" y="804"/>
      <point x="561" y="865" type="qcurve"/>
      <point x="561" y="910"/>
      <point x="499" y="965"/>
      <point x="449" y="965" type="qcurve"/>
      <point x="385" y="965"/>
      <point x="303" y="893"/>
      <point x="303" y="831" type="qcurve"/>
      <point x="303" y="786"/>
      <point x="365" y="731"/>
    </contour>
    <contour>
      <point x="423" y="788" type="qcurve"/>
      <point x="377" y="788"/>
      <point x="376" y="829" type="qcurve"/>
      <point x="376" y="837"/>
      <point x="380" y="857" type="qcurve"/>
      <point x="392" y="908"/>
      <point x="441" y="908" type="qcurve"/>
      <point x="488" y="908"/>
      <point x="488" y="867" type="qcurve"/>
      <point x="488" y="860"/>
      <point x="484" y="839" type="qcurve"/>
      <point x="473" y="788"/>
    </contour>
  </outline>
</glyph>
